<?xml version="1.0" encoding="utf-8"?>
<!-- Generator: Adobe Illustrator 21.1.0, SVG Export Plug-In . SVG Version: 6.00 Build 0)  -->
<svg version="1.1" id="Layer_1" xmlns="http://www.w3.org/2000/svg" xmlns:xlink="http://www.w3.org/1999/xlink" x="0px" y="0px"
	 viewBox="0 0 512 512" style="enable-background:new 0 0 512 512;" xml:space="preserve">
<style type="text/css">
	.st0{fill:#FFFFFF;stroke:#00AEEF;stroke-width:6;stroke-miterlimit:10;}
	.st1{fill:#FFFFFF;stroke:#000000;stroke-width:6;stroke-linecap:round;stroke-linejoin:round;stroke-miterlimit:10;}
	.st2{fill:#FFFFFF;stroke:#00AEEF;stroke-width:6.2963;stroke-miterlimit:10;}
	.st3{fill:#FFFFFF;stroke:#000000;stroke-width:6.296;stroke-linecap:round;stroke-linejoin:round;stroke-miterlimit:10;}
	.st4{fill:#00AEEF;}
	.st5{fill:none;}
	.st6{fill:none;stroke:#FFFFFF;stroke-width:0;stroke-linecap:round;stroke-linejoin:round;}
	.st7{fill:none;stroke:#00AEEF;stroke-width:0;stroke-linecap:round;stroke-linejoin:round;}
	.st8{fill:#FFFFFF;stroke:#000000;stroke-width:6;stroke-miterlimit:10;}
	.st9{fill:none;stroke:#000000;stroke-width:6;stroke-miterlimit:10;}
	.st10{fill:#00AEEF;stroke:#000000;stroke-width:6;stroke-miterlimit:10;}
	.st11{fill:none;stroke:#000000;stroke-width:6;stroke-linecap:round;stroke-linejoin:round;stroke-miterlimit:10;}
	.st12{fill:#00AEEF;stroke:#000000;stroke-width:6;stroke-linecap:round;stroke-linejoin:round;stroke-miterlimit:10;}
	.st13{fill:#FFFFFF;}
</style>
<path class="st4" d="M59.8,380.5C36.3,343.6,23.7,300.8,23.7,256c0-62.1,24.2-120.4,68-164.3s102.2-68,164.3-68s120.4,24.2,164.3,68
	s68,102.2,68,164.3c0,45.1-12.8,88.2-36.6,125.2c1.7,1.3,3,3,4,4.9c25.1-38.4,38.6-83.2,38.6-130.1c0-63.7-24.8-123.5-69.8-168.5
	S319.7,17.7,256,17.7S132.5,42.5,87.5,87.5S17.7,192.3,17.7,256c0,49.1,14.7,95.8,42.1,135.3V380.5z"/>
<path class="st4" d="M429.2,410.8c-2.9,3.2-5.9,6.4-8.9,9.5c-43.9,43.9-102.2,68-164.3,68s-120.4-24.2-164.3-68
	c-3.1-3.1-6-6.2-8.9-9.5h-8c4,4.7,8.2,9.3,12.7,13.7c45,45,104.9,69.8,168.5,69.8s123.5-24.8,168.5-69.8c4.4-4.4,8.6-9,12.7-13.7
	H429.2z"/>
<path d="M451.8,381.2c-2.5-2-5.7-3.2-9.1-3.2h-1.8c1.8-2.4,2.9-5.4,2.9-8.7v-3.1c0-3.3-1.1-6.3-2.9-8.7h1.8
	c8.1,0,14.7-6.6,14.7-14.7v-3.1c0-4.8-2.3-9-5.8-11.7c3.5-2.7,5.8-6.9,5.8-11.7v-3.1c0-8.1-6.6-14.7-14.7-14.7h-40.3
	c30.2-9.6,52.1-38,52.1-71.3c0-41.3-33.6-74.8-74.8-74.8c-15.4,0-29.7,4.7-41.6,12.7l-126.1-64.3l-149.1,76l-0.1,0.1
	c-2.6,1.5-3.8,4.7-3,7.9c0.8,2.9,3,4.7,5.7,4.7h249.7c-1.8,3.1-3.4,6.3-4.8,9.6H59.9v29.7h36.2v140.5H59.8v11.3v10.8v13.5H25.5
	c-1.7,0-3,1.3-3,3s1.3,3,3,3h49.3h8h346.4h8h49.3c1.7,0,3-1.3,3-3s-1.3-3-3-3h-32.3c1.9-2.5,3.1-5.6,3.1-9v-3.1
	c0-2.4-0.6-4.6-1.6-6.6C454.8,384.2,453.4,382.5,451.8,381.2z M451.3,392.7v3.1c0,4.8-3.9,8.7-8.7,8.7H307.9c-4.8,0-8.7-3.9-8.7-8.7
	v-3.1c0-4.8,3.9-8.7,8.7-8.7h134.7C447.4,384,451.3,387.9,451.3,392.7z M65.8,375.2h215.2c2.3,5.2,7.4,8.8,13.4,8.8h1.8
	c-1.8,2.4-2.9,5.4-2.9,8.7v3.1c0,3,0.9,5.7,2.4,8H65.8V375.2z M65.9,205.1h242.3c-2.2,7-3.4,14.5-3.4,22.2
	c0,17.9,6.3,34.3,16.8,47.2v24.1h-13.7c-2.8,0-5.5,0.8-7.7,2.2v-78h-44.6v146.2h-21.4V222.8h-44.6v146.2h-21.4V222.8h-44.6v146.2
	h-21.4V222.8H65.9V205.1z M65.4,182.5c0-0.2,0.1-0.4,0.2-0.4l146.2-74.5l120.8,61.5c-5.1,4.2-9.7,9-13.6,14.4H65.6
	C65.5,183.3,65.4,182.9,65.4,182.5z M379.6,158.4c38,0,68.8,30.9,68.8,68.8s-30.9,68.8-68.8,68.8s-68.8-30.9-68.8-68.8
	S341.7,158.4,379.6,158.4z M451.3,316.4c0,4.8-3.9,8.7-8.7,8.7H307.9c-4.8,0-8.7-3.9-8.7-8.7v-3.1c0-4.8,3.9-8.7,8.7-8.7h134.7
	c4.8,0,8.7,3.9,8.7,8.7V316.4z M451.3,339.7v3.1c0,4.8-3.9,8.7-8.7,8.7H307.9c-4.8,0-8.7-3.9-8.7-8.7v-3.1c0-4.8,3.9-8.7,8.7-8.7
	h134.7C447.4,331,451.3,334.9,451.3,339.7z M437.7,366.2v3.1c0,4.8-3.9,8.7-8.7,8.7H294.3c-4.8,0-8.7-3.9-8.7-8.7v-3.1
	c0-4.8,3.9-8.7,8.7-8.7h134.7C433.8,357.5,437.7,361.4,437.7,366.2z M327.6,281c8.2,7.9,18.2,14,29.3,17.6h-29.3V281z M261.6,369.2
	V228.8h32.6v79.4c-0.6,1.6-0.9,3.3-0.9,5.1v3.1c0,1.8,0.3,3.5,0.9,5.1v13.2c-0.6,1.6-0.9,3.3-0.9,5.1v3.1c0,1.8,0.3,3.5,0.9,5.1v3.6
	c-8,0.1-14.5,6.6-14.5,14.7v3H261.6z M228.2,369.2h-32.6V228.8h32.6V369.2z M129.5,228.8h32.6v140.5h-32.6V228.8z"/>
<path class="st4" d="M378.7,220.2v-15.4c-2.6,0.4-4.6,1.3-6,2.5c-1.4,1.2-2,2.8-2,4.6c0,2,0.6,3.6,1.8,4.9
	C373.7,218,375.7,219.1,378.7,220.2z"/>
<path class="st4" d="M310.8,227.2c0,38,30.9,68.8,68.8,68.8s68.8-30.9,68.8-68.8s-30.9-68.8-68.8-68.8S310.8,189.3,310.8,227.2z
	 M368,203.4c2.7-2.2,6.2-3.6,10.7-4.1v-7.2h5.1v7.2c4.9,0.1,9.6,1.1,14.1,2.9l-2.1,5.2c-4-1.6-8-2.5-12-2.8v17.3
	c4.2,1.3,7.3,2.6,9.3,3.9c2.1,1.3,3.6,2.7,4.6,4.3c1,1.6,1.5,3.6,1.5,5.9c0,3.6-1.4,6.6-4.1,8.9c-2.7,2.3-6.5,3.8-11.3,4.4v9.2h-5.1
	v-8.9c-3,0-5.8-0.2-8.6-0.7c-2.8-0.5-5.1-1.1-6.8-1.9V241c2.2,1,4.7,1.8,7.6,2.4c2.9,0.6,5.5,0.9,7.9,0.9v-17.5
	c-5.4-1.7-9.2-3.7-11.4-6c-2.2-2.3-3.3-5.2-3.3-8.8C364,208.5,365.3,205.6,368,203.4z"/>
<path class="st4" d="M392.4,236.6c0-1.9-0.6-3.5-1.8-4.6s-3.5-2.4-6.9-3.5v15.5C389.6,243.1,392.4,240.7,392.4,236.6z"/>
<path d="M364,212c0,3.6,1.1,6.5,3.3,8.8c2.2,2.3,6,4.3,11.4,6v17.5c-2.4,0-5-0.3-7.9-0.9c-2.9-0.6-5.4-1.4-7.6-2.4v6.2
	c1.8,0.8,4.1,1.5,6.8,1.9c2.8,0.5,5.7,0.7,8.6,0.7v8.9h5.1v-9.2c4.9-0.6,8.6-2.1,11.3-4.4c2.7-2.3,4.1-5.3,4.1-8.9
	c0-2.3-0.5-4.3-1.5-5.9c-1-1.6-2.5-3.1-4.6-4.3c-2.1-1.3-5.2-2.6-9.3-3.9v-17.3c4.1,0.3,8.1,1.2,12,2.8l2.1-5.2
	c-4.5-1.8-9.2-2.8-14.1-2.9v-7.2h-5.1v7.2c-4.4,0.5-8,1.8-10.7,4.1C365.3,205.6,364,208.5,364,212z M383.8,228.4
	c3.4,1.2,5.7,2.3,6.9,3.5s1.8,2.7,1.8,4.6c0,4.1-2.9,6.5-8.6,7.3V228.4z M372.7,207.3c1.4-1.2,3.3-2.1,6-2.5v15.4
	c-2.9-1.1-5-2.2-6.2-3.5c-1.2-1.2-1.8-2.8-1.8-4.9C370.7,210.1,371.4,208.5,372.7,207.3z"/>
</svg>
