<?xml version="1.0" encoding="utf-8"?>
<!-- Generator: Adobe Illustrator 21.1.0, SVG Export Plug-In . SVG Version: 6.00 Build 0)  -->
<svg version="1.1" id="Layer_1" xmlns="http://www.w3.org/2000/svg" xmlns:xlink="http://www.w3.org/1999/xlink" x="0px" y="0px"
	 viewBox="0 0 512 512" style="enable-background:new 0 0 512 512;" xml:space="preserve">
<style type="text/css">
	.st0{fill:#FFFFFF;stroke:#00AEEF;stroke-width:6;stroke-miterlimit:10;}
	.st1{fill:#FFFFFF;stroke:#000000;stroke-width:6;stroke-linecap:round;stroke-linejoin:round;stroke-miterlimit:10;}
	.st2{fill:#FFFFFF;stroke:#00AEEF;stroke-width:6.2963;stroke-miterlimit:10;}
	.st3{fill:#FFFFFF;stroke:#000000;stroke-width:6.296;stroke-linecap:round;stroke-linejoin:round;stroke-miterlimit:10;}
	.st4{fill:#00AEEF;}
	.st5{fill:none;}
	.st6{fill:none;stroke:#FFFFFF;stroke-width:0;stroke-linecap:round;stroke-linejoin:round;}
	.st7{fill:none;stroke:#00AEEF;stroke-width:0;stroke-linecap:round;stroke-linejoin:round;}
	.st8{fill:#FFFFFF;stroke:#000000;stroke-width:6;stroke-miterlimit:10;}
	.st9{fill:none;stroke:#000000;stroke-width:6;stroke-miterlimit:10;}
	.st10{fill:#00AEEF;stroke:#000000;stroke-width:6;stroke-miterlimit:10;}
	.st11{fill:none;stroke:#000000;stroke-width:6;stroke-linecap:round;stroke-linejoin:round;stroke-miterlimit:10;}
	.st12{fill:#00AEEF;stroke:#000000;stroke-width:6;stroke-linecap:round;stroke-linejoin:round;stroke-miterlimit:10;}
	.st13{fill:#FFFFFF;}
</style>
<circle class="st0" cx="256" cy="256" r="235.3"/>
<line class="st1" x1="25.5" y1="407.8" x2="486.5" y2="407.8"/>
<path d="M433.1,165.4h-39.2V207h39.2V165.4z M427.5,201.3h-27.9V171h27.9V201.3z"/>
<path d="M334.2,265.3h39.2v-41.6h-39.2V265.3z M339.8,229.4h27.9v30.3h-27.9V229.4z"/>
<path d="M394.2,265.3h39.2v-41.6h-39.2V265.3z M399.9,229.4h27.9v30.3h-27.9V229.4z"/>
<path d="M334.2,323.7h39.2v-41.6h-39.2V323.7z M339.8,287.8h27.9v30.3h-27.9V287.8z"/>
<path d="M394.2,323.7h39.2v-41.6h-39.2V323.7z M399.9,287.8h27.9v30.3h-27.9V287.8z"/>
<path class="st4" d="M301.3,184.3l7.9,16.8c0.4,0,0.9,0,1.3,0l7.9-16.8l1.6-0.3c8.1-1.3,15.7-4.2,22.7-8.6l1.4-0.9l16.6,7.7
	c0.5-0.4,1-0.8,1.4-1.3l-4.8-18.3l0.9-1.2c4.7-5.9,8.3-12.5,10.6-19.6l0.5-1.5l17.7-4.8c0.2-1.1,0.3-2.3,0.5-3.4l-15.7-11.1
	l-0.1-1.5c-0.3-6.5-1.7-12.8-4-18.9l-0.6-1.5l10.6-15.2c-0.9-1.5-1.8-2.9-2.7-4.4l-19.2,1.6l-1-1c-3.9-4.1-8.2-7.6-13-10.4l-1.3-0.8
	l-1.7-18.7c-1.9-0.8-3.9-1.5-5.9-2.1l-13.6,13.5l-1.5-0.2c-2.7-0.3-5.3-0.5-7.8-0.5c-2.5,0-5.1,0.2-7.8,0.5l-1.5,0.2L287,48.4
	c-2,0.6-4,1.3-5.9,2.1l-1.7,18.7l-1.3,0.8c-4.8,2.9-9.1,6.4-13,10.4l-1,1l-19.2-1.6c-1,1.4-1.9,2.9-2.7,4.4l10.6,15.2l-0.6,1.5
	c-2.3,6.1-3.7,12.4-4,18.9l-0.1,1.5l-15.7,11.1c0.1,1.1,0.3,2.3,0.5,3.4l17.7,4.8l0.5,1.5c2.3,7.1,5.8,13.7,10.6,19.6l0.9,1.2
	l-4.8,18.3c0.5,0.4,0.9,0.8,1.4,1.3l16.6-7.7l1.4,0.9c7,4.4,14.6,7.2,22.7,8.6L301.3,184.3z M283.5,120.5
	c0-15.1,12.3-27.3,27.3-27.3s27.3,12.3,27.3,27.3s-12.3,27.3-27.3,27.3S283.5,135.6,283.5,120.5z"/>
<path d="M373.7,100.2l10.9-15.7l-0.9-1.6c-1.5-2.7-3.1-5.4-4.9-8l-1-1.4l-19.9,1.7c-3.6-3.6-7.6-6.9-11.9-9.6l-1.8-19.3l-1.7-0.7
	c-3.2-1.4-6.5-2.5-9.9-3.5l-1.7-0.5l-14,13.9c-4.8-0.5-9.3-0.5-14.2,0l-14-13.9l-1.7,0.5c-3.4,0.9-6.7,2.1-9.9,3.5l-1.7,0.7
	l-1.8,19.3c-4.3,2.7-8.3,5.9-11.9,9.6l-19.9-1.7l-1,1.4c-1.8,2.6-3.5,5.2-4.9,8l-0.9,1.6l10.9,15.7c-2.1,5.7-3.3,11.7-3.8,17.8
	L226,129.4l0.2,1.7c0.2,2.5,0.6,5,1.1,7.5l0.3,1.9l18.2,4.9c2.4,6.8,5.8,13.1,10.1,18.8l-5,18.8l1.3,1.2c1.4,1.4,3,2.7,4.5,3.9
	l1.5,1.2l17.1-7.9c6.8,4,14.1,6.8,21.9,8.3l3.5,7.4V409h50.5v0.5h66.3V409h49.3V115.8h-89.6C376.7,110.5,375.5,105.2,373.7,100.2z
	 M461.2,403.4h-43.7v-57.9h-66.3v57.9h-44.9V207l0.8,0c0.9,0,1.8,0,2.7,0c0.9,0,1.8,0,2.7,0l1.8-0.1l8.1-17.3
	c4-0.8,7.9-1.9,11.7-3.3V207h39.2v-41.6h-9.2l-0.3-1.2c4.4-5.7,7.8-12,10.1-18.8l18.2-4.9l0.3-1.9c0.5-2.5,0.8-5,1.1-7.5l0.2-1.7
	l-11.2-7.9h78.8V403.4z M411.9,403.9h-55v-52.7h55V403.9z M275.7,174.6l-16.6,7.7c-0.5-0.4-1-0.8-1.4-1.3l4.8-18.3l-0.9-1.2
	c-4.7-5.9-8.3-12.5-10.6-19.6l-0.5-1.5l-17.7-4.8c-0.2-1.1-0.3-2.3-0.5-3.4l15.7-11.1l0.1-1.5c0.3-6.5,1.7-12.8,4-18.9l0.6-1.5
	l-10.6-15.2c0.9-1.5,1.8-2.9,2.7-4.4l19.2,1.6l1-1c3.9-4.1,8.2-7.6,13-10.4l1.3-0.8l1.7-18.7c1.9-0.8,3.9-1.5,5.9-2.1l13.6,13.5
	l1.5-0.2c2.7-0.3,5.3-0.5,7.8-0.5c2.5,0,5.1,0.2,7.8,0.5l1.5,0.2l13.6-13.5c2,0.6,4,1.3,5.9,2.1l1.7,18.7l1.3,0.8
	c4.8,2.9,9.1,6.4,13,10.4l1,1l19.2-1.6c1,1.4,1.9,2.9,2.7,4.4L367,99.4l0.6,1.5c2.3,6.1,3.7,12.4,4,18.9l0.1,1.5l15.7,11.1
	c-0.1,1.1-0.3,2.3-0.5,3.4l-17.7,4.8l-0.5,1.5c-2.3,7.1-5.8,13.7-10.6,19.6l-0.9,1.2l4.8,18.3c-0.5,0.4-0.9,0.8-1.4,1.3l-16.6-7.7
	l-1.4,0.9c-7,4.4-14.6,7.2-22.7,8.6l-1.6,0.3l-7.9,16.8c-0.4,0-0.9,0-1.3,0l-7.9-16.8l-1.6-0.3c-8.1-1.3-15.7-4.2-22.7-8.6
	L275.7,174.6z M339.8,183.9c1.5-0.8,3.1-1.6,4.6-2.5l17.1,7.9l1.5-1.2c1.5-1.3,3-2.6,4.5-3.9l0.2-0.2v17.3h-27.9V183.9z
	 M367.7,178.9l-2.1-7.9h2.1V178.9z"/>
<path d="M310.9,147.8c15.1,0,27.3-12.3,27.3-27.3s-12.3-27.3-27.3-27.3s-27.3,12.3-27.3,27.3S295.8,147.8,310.9,147.8z M310.9,99.2
	c11.8,0,21.3,9.6,21.3,21.3s-9.6,21.3-21.3,21.3s-21.3-9.6-21.3-21.3S299.1,99.2,310.9,99.2z"/>
<path d="M217.1,315.8h-19.7c15.6-10.1,25.9-27.6,25.9-47.5v-41.8c0-1.7-0.1-3.4-0.4-5.1h16.7l0.1-2.9c0-1,0.1-1.9,0.1-2.9
	c0-34.3-24.2-63-56.5-70v-10h-29.5v9.8c-32.7,6.6-57.4,35.6-57.4,70.2c0,1,0,1.9,0.1,2.9l0.1,2.9h14c-0.3,1.7-0.4,3.4-0.4,5.1v41.8
	c0,19.9,10.3,37.4,25.9,47.5h-24.9c-35.2,0-63.9,28.7-63.9,63.9v30.4H281v-30.4C281,344.4,252.4,315.8,217.1,315.8z M53.3,379.7
	c0-31.9,26-57.9,57.9-57.9h30.7l12.5,27.8l-12.1,54.6h-89V379.7z M116.2,226.5c0-1.7,0.2-3.5,0.5-5.1h100.1c0.3,1.7,0.5,3.4,0.5,5.1
	v41.8c0,27.9-22.7,50.5-50.5,50.5s-50.5-22.7-50.5-50.5V226.5z M126.1,168.1l4.7,8l-9.7-2.6L126.1,168.1z M114.4,177.9l15.7,4.2
	c0.5,0.1,1,0.2,1.5,0.2c1.7,0,3.4-0.8,4.4-2.2c1.4-1.8,1.5-4.3,0.4-6.2l-6.7-11.4c7.1-5.2,15.3-8.9,24.1-10.9V165h6v-23.4h17.5V165
	h6v-13.2c8.9,2.1,17,6,24.1,11.3l-7.3,12.4c-1,1.7-0.9,3.8,0.3,5.4c0.9,1.2,2.3,1.9,3.8,1.9c0.4,0,0.8-0.1,1.3-0.2l16.5-4.4
	c7.4,10.6,11.7,23.4,11.8,37.2H102.5C102.5,201.5,107,188.5,114.4,177.9z M216.5,173.5l-9.7,2.6l4.7-8L216.5,173.5z M148.7,403.3
	l10.9-49.5H176l10.9,49.5H148.7z M159.7,346.8l-8.9-19.8h33.9l-8.9,19.8H159.7z M275,404.1h-81.7l-12.1-54.6l12.5-27.8h23.4
	c31.9,0,57.9,26,57.9,57.9V404.1z"/>
<path d="M149.3,257.1c4.6,0,8.3-3.7,8.3-8.3c0-4.6-3.7-8.3-8.3-8.3s-8.3,3.7-8.3,8.3C141,253.3,144.8,257.1,149.3,257.1z
	 M149.3,246.5c1.3,0,2.3,1,2.3,2.3s-1,2.3-2.3,2.3s-2.3-1-2.3-2.3S148.1,246.5,149.3,246.5z"/>
<path d="M189.9,256.1c4.6,0,8.3-3.7,8.3-8.3c0-4.6-3.7-8.3-8.3-8.3s-8.3,3.7-8.3,8.3C181.6,252.4,185.3,256.1,189.9,256.1z
	 M189.9,245.5c1.3,0,2.3,1,2.3,2.3s-1,2.3-2.3,2.3s-2.3-1-2.3-2.3S188.6,245.5,189.9,245.5z"/>
<path d="M157.3,288c3,2.8,7.9,5,13.1,5c4.4,0,8.9-1.5,12.7-5.3l-4.2-4.2c-6,6-14.5,3.1-17.4,0.2L157.3,288z"/>
</svg>
