<?xml version="1.0" encoding="utf-8"?>
<!-- Generator: Adobe Illustrator 21.1.0, SVG Export Plug-In . SVG Version: 6.00 Build 0)  -->
<svg version="1.1" id="Layer_1" xmlns="http://www.w3.org/2000/svg" xmlns:xlink="http://www.w3.org/1999/xlink" x="0px" y="0px"
	 viewBox="0 0 512 512" style="enable-background:new 0 0 512 512;" xml:space="preserve">
<style type="text/css">
	.st0{fill:#FFFFFF;stroke:#00AEEF;stroke-width:6;stroke-miterlimit:10;}
	.st1{fill:#FFFFFF;stroke:#000000;stroke-width:6;stroke-linecap:round;stroke-linejoin:round;stroke-miterlimit:10;}
	.st2{fill:#FFFFFF;stroke:#00AEEF;stroke-width:6.2963;stroke-miterlimit:10;}
	.st3{fill:#FFFFFF;stroke:#000000;stroke-width:6.296;stroke-linecap:round;stroke-linejoin:round;stroke-miterlimit:10;}
	.st4{fill:#00AEEF;}
	.st5{fill:none;}
	.st6{fill:none;stroke:#FFFFFF;stroke-width:0;stroke-linecap:round;stroke-linejoin:round;}
	.st7{fill:none;stroke:#00AEEF;stroke-width:0;stroke-linecap:round;stroke-linejoin:round;}
	.st8{fill:#FFFFFF;stroke:#000000;stroke-width:6;stroke-miterlimit:10;}
	.st9{fill:none;stroke:#000000;stroke-width:6;stroke-miterlimit:10;}
	.st10{fill:#00AEEF;stroke:#000000;stroke-width:6;stroke-miterlimit:10;}
	.st11{fill:none;stroke:#000000;stroke-width:6;stroke-linecap:round;stroke-linejoin:round;stroke-miterlimit:10;}
	.st12{fill:#00AEEF;stroke:#000000;stroke-width:6;stroke-linecap:round;stroke-linejoin:round;stroke-miterlimit:10;}
	.st13{fill:#FFFFFF;}
</style>
<path class="st4" d="M50.5,376.9v-12.3C33,331.5,23.7,294.5,23.7,256s9.3-75.5,26.8-108.6v-12.3C29.1,171.4,17.7,353.8,17.7,256
	S29.1,340.6,50.5,376.9z"/>
<path class="st4" d="M58.2,133.9c9.4-15.1,20.6-29.3,33.5-42.2c43.9-43.9,102.2-68,164.3-68s120.4,24.2,164.3,68s68,102.2,68,164.3
	c0,4.4-0.1,8.8-0.4,13.2l2-0.1v32.5c2.9-14.9,4.3-30.1,4.3-45.5c0-63.7-24.8-123.5-69.8-168.5c-45-45-104.9-69.8-168.5-69.8
	S132.5,42.5,87.5,87.5c-14.1,14.1-26.3,29.7-36.3,46.5H58.2z"/>
<path class="st4" d="M458.5,375.1l-0.9-3.6c-6.7,11.7-14.5,22.8-23.3,33.3h7.8c8.1-10,15.3-20.6,21.5-31.7L458.5,375.1z"/>
<path class="st4" d="M429.2,410.8c-2.9,3.2-5.9,6.4-8.9,9.5c-43.9,43.9-102.2,68-164.3,68s-120.4-24.2-164.3-68
	c-3.1-3.1-6-6.2-8.9-9.5h-8c4,4.7,8.2,9.3,12.7,13.7c45,45,104.9,69.8,168.5,69.8s123.5-24.8,168.5-69.8c4.4-4.4,8.6-9,12.7-13.7
	H429.2z"/>
<path d="M50.5,147.4v217.2v12.3v28h-25c-1.7,0-3,1.3-3,3s1.3,3,3,3h49.3h8h346.4h8h49.3c1.7,0,3-1.3,3-3s-1.3-3-3-3h-44.3h-7.8h-54
	c2.6-1,5.3-2.3,7.9-4l0.1-0.1l64.4-49.2l4.8,20l0.9,3.6l5.2-2l26.3-10.3v-61.3v-32.5l-2,0.1l-54.2,3.5l4.9,20.2
	c-13.6-1.1-28.9-2.4-38.4-3.2c-5-0.4-9.9,0.5-14.5,2.8l-10.9-9.3l-0.3-0.2c-3.9-2.7-8.5-3.2-12.6-1.5l-67.4,27.3l1.9-22.1l-40.3-7
	V133.9h-198h-7h-0.7v1.2V147.4z M250.2,139.9v264.2h-60.6v-58h-71.2v58H56.5V139.9H250.2z M371.1,288l27.1,23.1l0.3,0.2
	c1.3,0.9,2.3,2.8,2.5,5c0.2,2.2-0.3,4.4-1.4,5.6l-2.2,2.3c-0.9,0.9-1.9,1-2.9,0.3l-25.6-18.3l-43.7,39.1c-1.6,1.5-3,3.3-4.1,5.5
	c-1.2,1.6-4.3,7.1-0.9,18.1l-30.7-7.9l4.5-45.3l70.3-28.5C366.5,286.2,368.9,286.5,371.1,288z M399.8,295.7
	c10,0.8,26.4,2.2,40.4,3.3l11.1,46.1L385,395.8c-3.2,2-12.4,7.1-20.6,4.1l37.1-28.2l-3.6-4.8l-38.2,29l1.8,2.4l0.1,0.2
	c-0.7-0.4-1.3-0.9-2-1.5l-11.8-10.4l36.9-30.5l-3.8-4.6l-37.6,31.1l-10.2-9l37-30.6l-3.8-4.6l-37.7,31.2l-0.9-0.8
	c-0.8-0.7-1.5-1.6-2-2.6c-2.3-8.1-0.2-11.6,0.1-12l0.2-0.2l0.3-0.5c0.7-1.6,1.7-2.9,2.8-3.9l22.9-20.4l17.3-15.4l21.7,15.5
	c3.5,2.5,7.8,2.1,10.8-1.1l2.2-2.3c2.3-2.5,3.5-6.3,3-10.3c-0.4-3.9-2.2-7.2-5-9.2l-11.1-9.5c2.3-0.8,4.7-1.2,7.1-1.2
	C398.6,295.7,399.2,295.7,399.8,295.7z M484,275.5v83.3l-21.2,8.3l-21.5-88.8L484,275.5z M124.4,352.2h59.2v52.5h-59.2V352.2z
	 M288.2,313.2l-5.1,52.2l0.6,0.2l-2,22.7h-25.5V285.9l33.9,5.8L288.2,313.2z M256.2,404.8v-10.6h31l2.3-27.2l38.2,9.9l27.9,24.7
	c1.5,1.3,3.1,2.4,4.9,3.2H256.2z"/>
<path class="st4" d="M321.6,244.2c-4.6-10.6-4.9-22.3-0.7-33c2.1-5.4,5.2-10.1,9-14.1c-1.5-1.6-3.1-3.1-4.9-4.4l-1.8-1.3l29.8-80.8
	l-3.9-9.5l-9,4.6l-4.2,15.4l-9.4,11.1l2.4,12.3l-6.2,8.5l1.9,9.3l-9.5,10.5l-5.1,13.7l-2.3-0.2c-0.9-0.1-1.8-0.1-2.7-0.1
	c-14,0-26.8,8.8-31.7,22.1c-3.1,8.5-2.8,17.6,1,25.8c3.8,8.2,10.5,14.4,19,17.6c10.4,3.8,21.5,2.2,30.2-3.4
	C322.9,246.9,322.2,245.6,321.6,244.2z M311.8,232.4c-1,2.7-2.9,4.8-5.5,6c-1.4,0.7-2.9,1-4.4,1c-1.2,0-2.5-0.2-3.7-0.7
	c-5.5-2-8.3-8.1-6.3-13.6v0c2-5.5,8.1-8.3,13.6-6.3c2.7,1,4.8,2.9,6,5.5C312.7,226.9,312.8,229.8,311.8,232.4z"/>
<path class="st4" d="M306.2,230.3c0.4-1.2,0.4-2.4-0.1-3.5c-0.5-1.1-1.4-2-2.6-2.4c-2.4-0.9-5,0.3-5.9,2.7c-0.9,2.4,0.3,5,2.7,5.9
	c1.2,0.4,2.4,0.4,3.5-0.1C304.9,232.4,305.8,231.5,306.2,230.3z"/>
<path d="M305.6,218.8c-5.5-2-11.6,0.8-13.6,6.3v0c-2,5.5,0.8,11.6,6.3,13.6c1.2,0.4,2.4,0.7,3.7,0.7c1.5,0,3-0.3,4.4-1
	c2.6-1.2,4.5-3.3,5.5-6c1-2.7,0.9-5.5-0.3-8.1C310.3,221.7,308.2,219.8,305.6,218.8z M300.3,233.1c-2.4-0.9-3.6-3.5-2.7-5.9
	c0.9-2.4,3.5-3.6,5.9-2.7c1.2,0.4,2.1,1.3,2.6,2.4c0.5,1.1,0.6,2.4,0.1,3.5c-0.4,1.2-1.3,2.1-2.4,2.6
	C302.7,233.4,301.4,233.5,300.3,233.1z"/>
<path class="st4" d="M411.6,97.3l-10.4,5.1L367,190l-2.3-0.2c-1.2-0.1-2.4-0.2-3.6-0.2c-15.1,0-29.1,9.3-34.7,23.7
	c-3.6,9.3-3.4,19.4,0.6,28.4c4,9.1,11.3,16.1,20.5,19.7c9.3,3.6,19.4,3.4,28.4-0.6c9.1-4,16.1-11.3,19.7-20.5
	c6-15.5,1-33.2-12.3-43.2l-1.8-1.4l5.7-14.7l-0.1-15.4l8.3-6.2l1.1-11.4l10.9-8.3l0.4-16l7.8-15.7L411.6,97.3z M367.9,240.4
	c-1.1,2.8-3.2,5-6,6.2c-1.5,0.6-3,1-4.5,1c-1.4,0-2.8-0.3-4.1-0.8c-2.8-1.1-5-3.2-6.2-6s-1.3-5.8-0.2-8.6c1.1-2.8,3.2-5,6-6.2
	c2.8-1.2,5.8-1.3,8.6-0.2c2.8,1.1,5,3.2,6.2,6S369,237.6,367.9,240.4z"/>
<path d="M396.4,98.1L363,183.7c-10.5-0.5-20.7,3-28.7,9.3c-1.2-1.3-2.6-2.6-4-3.8l29.1-78.8l-7.3-17.7l-17.2,8.8l-4.6,16.7
	L320,130.5l2.5,12.6l-6.2,8.5l1.8,9l-8.2,9.1l-3.9,10.6c-16.8-0.4-32.3,10.1-38.2,26c-7.6,20.6,3,43.5,23.5,51.1
	c4.5,1.7,9.2,2.5,13.7,2.5c7.8,0,15.4-2.3,21.8-6.5c4.7,6.2,11.1,10.9,18.5,13.8c5.1,2,10.4,3,15.7,3c5.9,0,11.8-1.2,17.3-3.7
	c10.6-4.6,18.7-13.1,22.9-23.9c6.7-17.2,1.6-36.9-12.5-48.7l4.5-11.6l-0.1-13.5l8-6l1.1-11.4l11.1-8.5l0.5-17.5l8.3-16.9l-7.5-19.2
	L396.4,98.1z M407.6,139.7l-10.9,8.3l-1.1,11.4l-8.3,6.2l0.1,15.4l-5.7,14.7l1.8,1.4c13.2,10,18.3,27.7,12.3,43.2
	c-3.6,9.3-10.6,16.5-19.7,20.5c-9.1,4-19.2,4.2-28.4,0.6c-9.3-3.6-16.5-10.6-20.5-19.7c-4-9.1-4.2-19.2-0.6-28.4
	c5.6-14.3,19.5-23.7,34.7-23.7c1.2,0,2.4,0.1,3.6,0.2l2.3,0.2l34.1-87.6l10.4-5.1l4.2,10.7l-7.8,15.7L407.6,139.7z M293.4,251.7
	c-8.5-3.1-15.2-9.4-19-17.6c-3.8-8.2-4.1-17.4-1-25.8c4.9-13.3,17.7-22.1,31.7-22.1c0.9,0,1.8,0,2.7,0.1l2.3,0.2l5.1-13.7l9.5-10.5
	l-1.9-9.3l6.2-8.5l-2.4-12.3l9.4-11.1l4.2-15.4l9-4.6l3.9,9.5l-29.8,80.8l1.8,1.3c1.8,1.3,3.4,2.8,4.9,4.4c-3.8,4-6.9,8.8-9,14.1
	c-4.2,10.7-3.9,22.5,0.7,33c0.6,1.4,1.3,2.8,2,4.1C315,253.9,303.8,255.5,293.4,251.7z"/>
<path class="st4" d="M362.3,238.3L362.3,238.3c0.5-1.3,0.5-2.8-0.1-4.1c-0.6-1.3-1.6-2.3-2.9-2.8c-0.6-0.2-1.3-0.4-1.9-0.4
	c-0.7,0-1.4,0.2-2.1,0.5c-1.3,0.6-2.3,1.6-2.8,2.9c-0.5,1.3-0.5,2.8,0.1,4.1c0.6,1.3,1.6,2.3,2.9,2.8c1.3,0.5,2.8,0.5,4.1-0.1
	C360.8,240.6,361.8,239.6,362.3,238.3z"/>
<path d="M361.5,225.8c-2.8-1.1-5.9-1-8.6,0.2c-2.8,1.2-4.9,3.4-6,6.2c-1.1,2.8-1,5.9,0.2,8.6s3.4,4.9,6.2,6c1.3,0.5,2.7,0.8,4.1,0.8
	c1.5,0,3.1-0.3,4.5-1c2.8-1.2,4.9-3.4,6-6.2c1.1-2.8,1-5.9-0.2-8.6S364.3,226.9,361.5,225.8z M355.5,241.3c-1.3-0.5-2.4-1.5-2.9-2.8
	c-0.6-1.3-0.6-2.7-0.1-4.1c0.5-1.3,1.5-2.4,2.8-2.9c0.7-0.3,1.4-0.5,2.1-0.5c0.7,0,1.3,0.1,1.9,0.4c1.3,0.5,2.4,1.5,2.9,2.8
	c0.6,1.3,0.6,2.7,0.1,4.1v0c-0.5,1.3-1.5,2.4-2.8,2.9C358.2,241.8,356.8,241.8,355.5,241.3z"/>
<path d="M142.1,165.7h-42v42h42V165.7z M136.1,201.7h-30v-30h30V201.7z"/>
<path d="M206.6,165.7h-42v42h42V165.7z M200.6,201.7h-30v-30h30V201.7z"/>
<path d="M142.1,224.2h-42v42h42V224.2z M136.1,260.2h-30v-30h30V260.2z"/>
<path d="M206.6,224.2h-42v42h42V224.2z M200.6,260.2h-30v-30h30V260.2z"/>
<path d="M142.1,282.7h-42v42h42V282.7z M136.1,318.7h-30v-30h30V318.7z"/>
<path d="M206.6,282.7h-42v42h42V282.7z M200.6,318.7h-30v-30h30V318.7z"/>
</svg>
