<?xml version="1.0" encoding="utf-8"?>
<!-- Generator: Adobe Illustrator 21.1.0, SVG Export Plug-In . SVG Version: 6.00 Build 0)  -->
<svg version="1.1" id="Layer_1" xmlns="http://www.w3.org/2000/svg" xmlns:xlink="http://www.w3.org/1999/xlink" x="0px" y="0px"
	 viewBox="0 0 512 512" style="enable-background:new 0 0 512 512;" xml:space="preserve">
<style type="text/css">
	.st0{fill:#FFFFFF;stroke:#00AEEF;stroke-width:6;stroke-miterlimit:10;}
	.st1{fill:#FFFFFF;stroke:#000000;stroke-width:6;stroke-linecap:round;stroke-linejoin:round;stroke-miterlimit:10;}
	.st2{fill:#FFFFFF;stroke:#00AEEF;stroke-width:6.2963;stroke-miterlimit:10;}
	.st3{fill:#FFFFFF;stroke:#000000;stroke-width:6.296;stroke-linecap:round;stroke-linejoin:round;stroke-miterlimit:10;}
	.st4{fill:#00AEEF;}
	.st5{fill:none;}
	.st6{fill:none;stroke:#FFFFFF;stroke-width:0;stroke-linecap:round;stroke-linejoin:round;}
	.st7{fill:none;stroke:#00AEEF;stroke-width:0;stroke-linecap:round;stroke-linejoin:round;}
	.st8{fill:#FFFFFF;stroke:#000000;stroke-width:6;stroke-miterlimit:10;}
	.st9{fill:none;stroke:#000000;stroke-width:6;stroke-miterlimit:10;}
	.st10{fill:#00AEEF;stroke:#000000;stroke-width:6;stroke-miterlimit:10;}
	.st11{fill:none;stroke:#000000;stroke-width:6;stroke-linecap:round;stroke-linejoin:round;stroke-miterlimit:10;}
	.st12{fill:#00AEEF;stroke:#000000;stroke-width:6;stroke-linecap:round;stroke-linejoin:round;stroke-miterlimit:10;}
	.st13{fill:#FFFFFF;}
</style>
<path class="st4" d="M53,369.2C33.9,335,23.7,296.3,23.7,256c0-62.1,24.2-120.4,68-164.3s102.2-68,164.3-68s120.4,24.2,164.3,68
	s68,102.2,68,164.3c0,39.4-9.8,77.3-28.1,111V379c22.2-36.8,34.1-79,34.1-123c0-63.7-24.8-123.5-69.8-168.5S319.7,17.7,256,17.7
	S132.5,42.5,87.5,87.5S17.7,192.3,17.7,256c0,44.9,12.3,87.8,35.3,125V369.2z"/>
<path class="st4" d="M429.1,411c-2.8,3.2-5.8,6.3-8.8,9.3c-43.9,43.9-102.2,68-164.3,68s-120.4-24.2-164.3-68c-3-3-5.9-6.1-8.8-9.3
	h-8c4,4.6,8.2,9.2,12.5,13.5c45,45,104.9,69.8,168.5,69.8s123.5-24.8,168.5-69.8c4.4-4.4,8.5-8.9,12.5-13.5H429.1z"/>
<path class="st4" d="M454.2,238H337.6v167h28.2h88.4V238z M358.7,380.5c-1.7,0-3-1.3-3-3s1.3-3,3-3h74.4c1.7,0,3,1.3,3,3s-1.3,3-3,3
	H358.7z M433.1,304.6c1.7,0,3,1.3,3,3s-1.3,3-3,3h-74.4c-1.7,0-3-1.3-3-3s1.3-3,3-3H433.1z M358.7,327.9h74.4c1.7,0,3,1.3,3,3
	s-1.3,3-3,3h-74.4c-1.7,0-3-1.3-3-3S357.1,327.9,358.7,327.9z M358.7,351.2h74.4c1.7,0,3,1.3,3,3s-1.3,3-3,3h-74.4c-1.7,0-3-1.3-3-3
	S357.1,351.2,358.7,351.2z M358.7,258h74.4c1.7,0,3,1.3,3,3s-1.3,3-3,3h-74.4c-1.7,0-3-1.3-3-3S357.1,258,358.7,258z M355.7,284.3
	c0-1.7,1.3-3,3-3h74.4c1.7,0,3,1.3,3,3s-1.3,3-3,3h-74.4C357.1,287.3,355.7,286,355.7,284.3z"/>
<path d="M460.2,367V232h-78.4v-21.2c0-8.8-7.2-16-16-16H265.4v-30.1c0-9.2-7.5-16.8-16.8-16.8h-62.4c-9.2,0-16.8,7.5-16.8,16.8v30.1
	H69c-8.8,0-16,7.2-16,16v158.4V381v14c0,3.7,1.3,7.1,3.4,9.8H25.5c-1.7,0-3,1.3-3,3s1.3,3,3,3h41.3c0.7,0.1,1.4,0.2,2.2,0.2h5.9h8
	h248.7h34.2h63.2h8h23.2v-0.2h26.3c1.7,0,3-1.3,3-3s-1.3-3-3-3h-26.3V379V367z M59,395V289.5h135.8v39.2h44v-39.2h92.8V405H69
	C63.5,405,59,400.5,59,395z M69,200.8h100.5h95.9h100.5c5.5,0,10,4.5,10,10V232h-44.2v51.5H59v-72.6C59,205.3,63.5,200.8,69,200.8z
	 M175.5,164.8c0-5.9,4.8-10.8,10.8-10.8h62.4c5.9,0,10.8,4.8,10.8,10.8v30.1h-10.3v-21c0-5.5-4.5-10-10-10h-43.4
	c-5.5,0-10,4.5-10,10v21h-10.3V164.8z M191.7,193.7v-19.9c0-2.2,1.8-4,4-4h43.4c2.2,0,4,1.8,4,4v19.9H191.7z M232.8,290.7v32h-32
	v-32H232.8z M56.9,286.5L56.9,286.5L56.9,286.5z M365.8,405h-28.2V238h116.6v167H365.8z"/>
<path d="M358.7,264h74.4c1.7,0,3-1.3,3-3s-1.3-3-3-3h-74.4c-1.7,0-3,1.3-3,3S357.1,264,358.7,264z"/>
<path d="M433.1,287.3c1.7,0,3-1.3,3-3s-1.3-3-3-3h-74.4c-1.7,0-3,1.3-3,3s1.3,3,3,3H433.1z"/>
<path d="M358.7,304.6c-1.7,0-3,1.3-3,3s1.3,3,3,3h74.4c1.7,0,3-1.3,3-3s-1.3-3-3-3H358.7z"/>
<path d="M358.7,333.9h74.4c1.7,0,3-1.3,3-3s-1.3-3-3-3h-74.4c-1.7,0-3,1.3-3,3S357.1,333.9,358.7,333.9z"/>
<path d="M358.7,357.2h74.4c1.7,0,3-1.3,3-3s-1.3-3-3-3h-74.4c-1.7,0-3,1.3-3,3S357.1,357.2,358.7,357.2z"/>
<path d="M436.1,377.5c0-1.7-1.3-3-3-3h-74.4c-1.7,0-3,1.3-3,3s1.3,3,3,3h74.4C434.8,380.5,436.1,379.2,436.1,377.5z"/>
<path d="M293.1,147h4.9v18.8l26.5-18.8h44.3c11.1,0,20.1-9,20.1-20.1V91.1C389,80,380,71,368.9,71h-75.7C282,71,273,80,273,91.1
	v35.7C273,138,282,147,293.1,147z M279,91.1c0-7.8,6.3-14.1,14.1-14.1h75.7c7.8,0,14.1,6.3,14.1,14.1v35.7c0,7.8-6.3,14.1-14.1,14.1
	h-46.2L304,154.2V141h-10.9c-7.8,0-14.1-6.3-14.1-14.1V91.1z"/>
</svg>
