<?xml version="1.0" encoding="utf-8"?>
<!-- Generator: Adobe Illustrator 21.1.0, SVG Export Plug-In . SVG Version: 6.00 Build 0)  -->
<svg version="1.1" id="Layer_1" xmlns="http://www.w3.org/2000/svg" xmlns:xlink="http://www.w3.org/1999/xlink" x="0px" y="0px"
	 viewBox="0 0 512 512" style="enable-background:new 0 0 512 512;" xml:space="preserve">
<style type="text/css">
	.st0{fill:#FFFFFF;stroke:#00AEEF;stroke-width:6;stroke-miterlimit:10;}
	.st1{fill:#FFFFFF;stroke:#000000;stroke-width:6;stroke-linecap:round;stroke-linejoin:round;stroke-miterlimit:10;}
	.st2{fill:#FFFFFF;stroke:#00AEEF;stroke-width:6.2963;stroke-miterlimit:10;}
	.st3{fill:#FFFFFF;stroke:#000000;stroke-width:6.296;stroke-linecap:round;stroke-linejoin:round;stroke-miterlimit:10;}
	.st4{fill:#00AEEF;}
	.st5{fill:none;}
	.st6{fill:none;stroke:#FFFFFF;stroke-width:0;stroke-linecap:round;stroke-linejoin:round;}
	.st7{fill:none;stroke:#00AEEF;stroke-width:0;stroke-linecap:round;stroke-linejoin:round;}
	.st8{fill:#FFFFFF;stroke:#000000;stroke-width:6;stroke-miterlimit:10;}
	.st9{fill:none;stroke:#000000;stroke-width:6;stroke-miterlimit:10;}
	.st10{fill:#00AEEF;stroke:#000000;stroke-width:6;stroke-miterlimit:10;}
	.st11{fill:none;stroke:#000000;stroke-width:6;stroke-linecap:round;stroke-linejoin:round;stroke-miterlimit:10;}
	.st12{fill:#00AEEF;stroke:#000000;stroke-width:6;stroke-linecap:round;stroke-linejoin:round;stroke-miterlimit:10;}
	.st13{fill:#FFFFFF;}
</style>
<g>
	<circle class="st0" cx="256" cy="256" r="235.3"/>
	<line class="st1" x1="25.5" y1="407.8" x2="486.5" y2="407.8"/>
</g>
<path d="M301.1,338.4c-2-1.2-4.9-2.4-8.8-3.7l0.1-16.4c3.9,0.3,7.7,1.2,11.4,2.7l2-4.9c-4.3-1.8-8.7-2.7-13.4-2.9l0-6.8l-4.9,0
	l0,6.9c-4.2,0.4-7.6,1.7-10.1,3.8c-2.6,2.1-3.9,4.8-3.9,8.1c0,3.4,1,6.2,3.1,8.4c2.1,2.2,5.7,4.1,10.8,5.8l-0.1,16.6
	c-2.2,0-4.7-0.3-7.4-0.9c-2.7-0.6-5.1-1.4-7.2-2.3l0,5.9c1.7,0.8,3.8,1.4,6.5,1.9c2.6,0.5,5.4,0.7,8.2,0.7l0,8.4l4.9,0l0-8.8
	c4.6-0.6,8.2-1.9,10.8-4.1c2.6-2.2,3.9-5,3.9-8.4c0-2.2-0.4-4.1-1.4-5.6C304.5,341,303,339.6,301.1,338.4z M287.4,333
	c-2.8-1-4.7-2.2-5.9-3.3c-1.1-1.2-1.7-2.7-1.7-4.6c0-1.7,0.7-3.2,1.9-4.3c1.3-1.2,3.2-1.9,5.7-2.3L287.4,333z M292.1,355.5l0.1-14.7
	c3.2,1.1,5.4,2.2,6.5,3.4s1.7,2.6,1.7,4.4C300.3,352.5,297.6,354.8,292.1,355.5z"/>
<path d="M205.3,273.7l0.9,2.3c-1.6,0.8-2.8,1.9-3.4,3.1c-0.7,1.2-0.8,2.4-0.3,3.7c0.5,1.2,1.2,2,2.2,2.6c1,0.5,2.4,0.8,4.1,0.8
	l1.3,0l2,5.2c-0.8,0.3-1.8,0.6-3,0.7c-1.2,0.2-2.2,0.2-3.2,0.1l1.1,2.9c1.7,0.1,3.7-0.3,6-1.2l1.1,2.9l1.8-0.7l-1.2-3
	c1.8-0.9,3-2,3.6-3.3c0.6-1.2,0.7-2.5,0.2-3.9c-0.4-1.1-1.1-1.9-2.1-2.3c-1-0.5-2.5-0.7-4.5-0.7l-1.2,0l-2-5c1.5-0.5,3-0.7,4.7-0.7
	l0-2.9c-1.9,0-3.9,0.3-5.8,1l-0.9-2.3L205.3,273.7z M214.5,286.3c0.5,0.2,0.9,0.6,1.1,1.1c0.4,1.1-0.1,2.2-1.6,3l-1.7-4.4
	C213.2,286.1,214,286.1,214.5,286.3z M208.9,283c-1,0-1.7-0.1-2.2-0.3c-0.5-0.2-0.8-0.6-1-1.1c-0.2-0.5-0.2-1,0.1-1.5
	s0.7-0.9,1.4-1.3L208.9,283z"/>
<rect x="104.7" y="303.8" transform="matrix(0.9317 -0.3633 0.3633 0.9317 -103.5831 62.9094)" width="21.4" height="6"/>
<polygon points="110.6,323.7 111.7,326.5 131.6,318.7 129.5,313.1 109.5,320.9 "/>
<polygon points="115.9,336.8 117,339.6 118.1,342.4 138,334.6 137,331.8 135.9,329 "/>
<path class="st4" d="M359.2,235l-2.9-0.2l1.3-30.3L291,245.3l62.8,48.6l1.3-30.2l3.1,0.2c50.2,3.3,89,54.5,86.5,114.3
	c-0.4,8.7-1.6,17.4-3.7,25.7H465c1.5-8,2.5-16.1,2.8-24.2C471,304,422.3,239,359.2,235z"/>
<path d="M369.2,230.1c-1.1-2-2.1-4-3.2-5.9c-1-1.7-2-3.4-3-5.1l1.1-25.6l-13.2,8.1c-13.6-17-28.4-27.5-43.5-30.8
	c9.1-3.3,16.4-10.6,19.7-20.2l12.1-35.6l-23.2,4.8c-4.2,0.9-8.6,0.7-12.8-0.5l-14.3-11.7l-8.3,9.7c-6,3.4-13.3,4.4-20.1,2.6
	l-20.4-5.4l16.9,38.4c3.7,8.4,10.8,14.8,19.2,17.7c-21.1,3.7-41.6,19.5-58.5,45.3c-5.7,8.8-10.8,18.3-14.9,28l-41.1,16.2l-6.1-10
	l-0.2-0.3c-2.6-3.5-6.5-5.3-10.5-5l-64.4,4l7.8-18l-39-21l-33.1,99L49.7,320l9.7-22.4l24.4,15.8l21.8,55.5l84.4-33.2v28.7
	c0,25.7,20.9,46.6,46.6,46.6H347c25.7,0,46.6-20.9,46.6-46.6V317c0-11.4-2-24.6-5.5-38.2c31.3,16.9,52.4,55.7,50.6,99.3
	c-0.4,9.6-1.9,19.1-4.5,28.2l-1.1,3.8h36.9l0.5-2.4c1.9-9.1,3-18.4,3.4-27.6C477,304.8,430.8,239.9,369.2,230.1z M467.9,379.8
	c-0.3,8.1-1.3,16.3-2.8,24.2h-24.1c2.1-8.4,3.3-17,3.7-25.7c2.5-59.8-36.3-111.1-86.5-114.3l-3.1-0.2l-1.3,30.2L291,245.3l66.6-40.8
	l-1.3,30.3l2.9,0.2C422.3,239,471,304,467.9,379.8z M387.6,364.4c0,22.4-18.2,40.6-40.6,40.6H236.6c-22.4,0-40.6-18.2-40.6-40.6
	v-31.1l57.7-22.7l-29.5-75l-13.4,5.3c16.1-34.8,43.8-65.1,75.2-65.1h11.6c10.2,0,28.3,4.3,48.1,28.9l-65.3,40l78.9,61l1.5-35.6
	c7,0.8,13.7,2.5,20.1,5.2c4.3,14.9,6.7,29.3,6.7,41.6V364.4z M90.9,314.9l-0.2-2.9c-1-11.5,2.7-14.8,3.2-15.2l0.3-0.1l0.4-0.5
	c1-1.1,2.2-1.9,3.4-2.4l44-18.9l7,9.7c-6.5,6.7-9,17-5.3,26.3c3.8,9.7,13.1,15.6,23,15.6c3,0,6.1-0.6,9-1.7
	c6.1-2.4,11-7.1,13.6-13.1s2.8-12.8,0.3-18.9c-2.4-6.1-7.1-11-13.1-13.6c-1.3-0.6-2.7-1-4-1.3c-0.1-0.1-0.2-0.3-0.3-0.4l-7.3-12
	l55.9-22l25.1,63.9L109,361.1L90.9,314.9z M61.4,291.7L77.9,255l67.5-4.2c2-0.1,3.9,0.7,5.3,2.5l16.5,27.3l0.2,0.3
	c0.8,1.1,1.1,2.8,0.7,4.7c-0.4,1.9-1.4,3.4-2.6,4.1l-2.5,1.4c-0.9,0.5-1.6,0.3-2.1-0.5l-16.7-23l-48.4,20.8c-1.8,0.8-3.5,2-5.1,3.5
	c-1.5,1.1-5.6,4.8-6,14.8L61.4,291.7z M54.3,294.3l-7.9,18.2L23.9,305l29-86.5l27.9,15l-7.5,17.4L53.8,294L54.3,294.3z M155.8,294.1
	c2.4,3.2,6.3,4.1,9.8,2.2l2.5-1.4c2.8-1.5,4.9-4.5,5.7-8.1c0.2-0.7,0.2-1.4,0.3-2.1c4.6,2,8.1,5.6,9.9,10.3
	c1.8,4.6,1.7,9.7-0.3,14.3s-5.6,8.1-10.3,9.9c-9.6,3.8-20.5-1-24.2-10.5c-1.8-4.6-1.7-9.7,0.3-14.3c0.8-1.8,1.8-3.4,3-4.8
	L155.8,294.1z M259,125.7c8.4,2.2,17.6,1,25.1-3.5l0.4-0.3l5.2-6l10.6,8.7l0.6,0.2c5.3,1.6,10.9,1.9,16.3,0.8l12.9-2.7l-8.7,25.7
	c-3.8,11.3-14.4,18.5-26.2,18.1l-9.1-0.3c-10.2-0.4-19.4-6.6-23.5-16l-11.9-27L259,125.7z"/>
<rect x="145.9" y="153.6" transform="matrix(1.848486e-02 -0.9998 0.9998 1.848486e-02 -21.2366 313.2333)" width="6" height="27.6"/>
<polygon points="180.7,123.6 182.6,121.2 184.5,118.9 162.9,101.7 159.2,106.4 "/>
<polygon points="221.4,89.4 226.4,86.1 211.4,63 208.9,64.7 206.3,66.3 "/>
</svg>
