<?xml version="1.0" encoding="utf-8"?>
<!-- Generator: Adobe Illustrator 21.1.0, SVG Export Plug-In . SVG Version: 6.00 Build 0)  -->
<svg version="1.1" id="Layer_1" xmlns="http://www.w3.org/2000/svg" xmlns:xlink="http://www.w3.org/1999/xlink" x="0px" y="0px"
	 viewBox="0 0 512 512" style="enable-background:new 0 0 512 512;" xml:space="preserve">
<style type="text/css">
	.st0{fill:#FFFFFF;stroke:#00AEEF;stroke-width:6;stroke-miterlimit:10;}
	.st1{fill:#FFFFFF;stroke:#000000;stroke-width:6;stroke-linecap:round;stroke-linejoin:round;stroke-miterlimit:10;}
	.st2{fill:#FFFFFF;stroke:#00AEEF;stroke-width:6.2963;stroke-miterlimit:10;}
	.st3{fill:#FFFFFF;stroke:#000000;stroke-width:6.296;stroke-linecap:round;stroke-linejoin:round;stroke-miterlimit:10;}
	.st4{fill:#00AEEF;}
	.st5{fill:none;}
	.st6{fill:none;stroke:#FFFFFF;stroke-width:0;stroke-linecap:round;stroke-linejoin:round;}
	.st7{fill:none;stroke:#00AEEF;stroke-width:0;stroke-linecap:round;stroke-linejoin:round;}
	.st8{fill:#FFFFFF;stroke:#000000;stroke-width:6;stroke-miterlimit:10;}
	.st9{fill:none;stroke:#000000;stroke-width:6;stroke-miterlimit:10;}
	.st10{fill:#00AEEF;stroke:#000000;stroke-width:6;stroke-miterlimit:10;}
	.st11{fill:none;stroke:#000000;stroke-width:6;stroke-linecap:round;stroke-linejoin:round;stroke-miterlimit:10;}
	.st12{fill:#00AEEF;stroke:#000000;stroke-width:6;stroke-linecap:round;stroke-linejoin:round;stroke-miterlimit:10;}
	.st13{fill:#FFFFFF;}
</style>
<path class="st4" d="M68.1,404.8h7.8C40.6,363,21.4,310.6,21.4,255.2c0-29.2,5.4-57.6,15.6-84v-15.4c-14.1,30.8-21.6,64.5-21.6,99.4
	C15.4,310.3,34,362.6,68.1,404.8z"/>
<path class="st4" d="M426.2,410.8c-2.7,3-5.4,5.8-8.2,8.7c-43.9,43.9-102.2,68-164.3,68s-120.4-24.2-164.3-68
	c-2.8-2.8-5.6-5.7-8.2-8.7h-8c3.8,4.4,7.8,8.7,12,12.9c45,45,104.9,69.8,168.5,69.8s123.5-24.8,168.5-69.8c4.2-4.2,8.2-8.5,12-12.9
	H426.2z"/>
<path class="st4" d="M73.5,108.5c5-6.1,10.3-11.9,15.9-17.6c43.9-43.9,102.2-68,164.3-68s120.4,24.2,164.3,68s68,102.2,68,164.3
	c0,34.8-7.6,68.4-22,99v13.3c18.3-34.2,28-72.5,28-112.4c0-63.7-24.8-123.5-69.8-168.5c-45-45-104.9-69.8-168.5-69.8
	S130.2,41.7,85.2,86.7c-6.9,6.9-13.4,14.2-19.3,21.8H73.5z"/>
<path d="M37,171.2v161.3h28v0.1h158.4v31.9h-0.1v1.8l-38,38.5H75.9h-7.8H25.5c-1.7,0-3,1.3-3,3s1.3,3,3,3h47.6h8h345.1h8h52.3
	c1.7,0,3-1.3,3-3s-1.3-3-3-3H464v-37.2v-13.3V237.7h-52.4v167.1h-9.8V268.4H391v-57.7l10.6-6.3l12.6,18.1l24.9-58.5l-48.2-2.9v-52.6
	H73.5h-7.7H37v47.3V171.2z M385,160.8l-10.3-0.6l10.3,17.7v1.9l-120.2,72.9l12.1,25.2L385,214.3v54.2h-35.6v58.1h-9v-20.9H288v20.9
	h-60.1c-1.6-32.2-27.1-58.3-59.2-60.6c11.6-7,19.4-19.7,19.4-34.2v-28.8c0-13.2-10.7-23.9-23.9-23.9h-32
	c-13.2,0-23.9,10.7-23.9,23.9v28.8c0,14.4,7.7,27.1,19.2,34.1c-33.6,0.7-60.9,27.4-62.5,60.7H43v-212h342V160.8z M403.4,196.5
	l-123.9,73l-6.9-14.4L394,181.4l-8.5-14.5l44.8,2.7L413,210.3L403.4,196.5z M229.3,375l28.7,29.8h-28.7V375z M223.3,404.8h-29.5
	l29.5-29.9V404.8z M221.9,326.7H71.1c1.6-30.5,26.9-54.9,57.8-54.9h1.4v8.7c0,9.8,8,17.8,17.8,17.8c9.8,0,17.8-8,17.8-17.8v-8.7
	C196.1,272.8,220.4,296.8,221.9,326.7z M160,273.3v7.2c0,6.5-5.3,11.8-11.8,11.8c-6.5,0-11.8-5.3-11.8-11.8v-7.2H160z M148.3,265.6
	c-18.7,0-33.9-15.2-33.9-33.9v-28.8c0-9.9,8-17.9,17.9-17.9h32c9.9,0,17.9,8,17.9,17.9v28.8C182.2,250.4,167,265.6,148.3,265.6z
	 M294,311.6h40.4v92.1H294V311.6z M340.4,332.5h9v72.3h-9V332.5z M395.8,403.7h-40.4V274.4h40.4V403.7z M288,332.5v72.3h-21.6
	l-37-38.4v-33.9H228v0H288z M186.3,408.2L186.3,408.2L186.3,408.2z M417.6,243.7H458v160h-40.4V243.7z"/>
<rect x="355.4" y="274.4" class="st4" width="40.4" height="129.3"/>
<rect x="294" y="311.6" class="st4" width="40.4" height="92.1"/>
<rect x="417.6" y="243.7" class="st4" width="40.4" height="160"/>
<polygon class="st4" points="385.5,166.8 394,181.4 272.6,255 279.5,269.5 403.4,196.5 413,210.3 430.3,169.5 "/>
<rect x="75" y="140.5" width="255.1" height="6"/>
<rect x="207.1" y="166.7" width="117" height="6"/>
<rect x="232" y="192.7" width="89.1" height="6"/>
<circle cx="136.3" cy="218.2" r="3.7"/>
<circle cx="164.2" cy="217.6" r="3.7"/>
<path d="M156,241.5c-3.7,3.7-8.9,1.9-10.7,0.1c-1.2-1.1-3.1-1.1-4.2,0.1c-1.1,1.2-1.1,3.1,0.1,4.2c2.2,2.1,5.8,3.7,9.7,3.7
	c3.2,0,6.6-1.1,9.4-3.9c1.2-1.2,1.2-3.1,0-4.2C159.1,240.3,157.2,240.3,156,241.5z"/>
</svg>
