<?xml version="1.0" encoding="utf-8"?>
<!-- Generator: Adobe Illustrator 21.1.0, SVG Export Plug-In . SVG Version: 6.00 Build 0)  -->
<svg version="1.1" id="Layer_1" xmlns="http://www.w3.org/2000/svg" xmlns:xlink="http://www.w3.org/1999/xlink" x="0px" y="0px"
	 viewBox="0 0 512 512" style="enable-background:new 0 0 512 512;" xml:space="preserve">
<style type="text/css">
	.st0{fill:#FFFFFF;stroke:#00AEEF;stroke-width:6;stroke-miterlimit:10;}
	.st1{fill:#FFFFFF;stroke:#000000;stroke-width:6;stroke-linecap:round;stroke-linejoin:round;stroke-miterlimit:10;}
	.st2{fill:#FFFFFF;stroke:#00AEEF;stroke-width:6.2963;stroke-miterlimit:10;}
	.st3{fill:#FFFFFF;stroke:#000000;stroke-width:6.296;stroke-linecap:round;stroke-linejoin:round;stroke-miterlimit:10;}
	.st4{fill:#00AEEF;}
	.st5{fill:none;}
	.st6{fill:none;stroke:#FFFFFF;stroke-width:0;stroke-linecap:round;stroke-linejoin:round;}
	.st7{fill:none;stroke:#00AEEF;stroke-width:0;stroke-linecap:round;stroke-linejoin:round;}
	.st8{fill:#FFFFFF;stroke:#000000;stroke-width:6;stroke-miterlimit:10;}
	.st9{fill:none;stroke:#000000;stroke-width:6;stroke-miterlimit:10;}
	.st10{fill:#00AEEF;stroke:#000000;stroke-width:6;stroke-miterlimit:10;}
	.st11{fill:none;stroke:#000000;stroke-width:6;stroke-linecap:round;stroke-linejoin:round;stroke-miterlimit:10;}
	.st12{fill:#00AEEF;stroke:#000000;stroke-width:6;stroke-linecap:round;stroke-linejoin:round;stroke-miterlimit:10;}
	.st13{fill:#FFFFFF;}
</style>
<path class="st4" d="M463.8,151.8c16.1,31.9,24.5,67.4,24.5,104.2c0,47.9-14.4,93.6-41.2,132.2l2.9,6.2
	c28.7-40.1,44.3-88.1,44.3-138.4c0-39.9-9.7-78.2-28-112.4C465.6,146.4,464.8,149.2,463.8,151.8z"/>
<path class="st4" d="M102.6,78.2c1.2,0,2.4,0.1,3.6,0.2C148.1,43,200.6,23.7,256,23.7c48.9,0,95.4,15,134.4,42.8
	c2.8-0.6,5.6-1,8.5-1.2c-41-30.9-90.7-47.6-142.9-47.6c-59.4,0-115.4,21.6-159.2,61C98.7,78.3,100.6,78.2,102.6,78.2z"/>
<path class="st4" d="M429.2,410.8c-2.9,3.2-5.9,6.4-8.9,9.5c-43.9,43.9-102.2,68-164.3,68s-120.4-24.2-164.3-68
	c-3.1-3.1-6-6.2-8.9-9.5h-8c4,4.7,8.2,9.3,12.7,13.7c45,45,104.9,69.8,168.5,69.8s123.5-24.8,168.5-69.8c4.4-4.4,8.6-9,12.7-13.7
	H429.2z"/>
<path class="st4" d="M77.6,404.8C42.7,363.1,23.7,311,23.7,256c0-36.6,8.4-72,24.4-103.8h-6.7c-15.5,32-23.7,67.3-23.7,103.8
	c0,54.8,18.4,106.7,52.2,148.8H77.6z"/>
<path class="st4" d="M346,129c0,32,26,58,58,58s58-26,58-58s-26-58-58-58S346,97,346,129z"/>
<path d="M390.4,66.5C361.6,72.7,340,98.4,340,129c0,35.3,28.7,64,64,64c27.3,0,50.6-17.1,59.8-41.2c1-2.7,1.9-5.4,2.5-8.2
	c1.1-4.7,1.7-9.6,1.7-14.6c0-35.3-28.7-64-64-64c-1.7,0-3.4,0.1-5.1,0.2C396,65.4,393.2,65.9,390.4,66.5z M462,129c0,32-26,58-58,58
	s-58-26-58-58s26-58,58-58S462,97,462,129z"/>
<rect x="325" y="70.9" transform="matrix(0.3304 -0.9439 0.9439 0.3304 142.7206 364.162)" width="6" height="21.2"/>
<rect x="314" y="107.5" transform="matrix(4.993762e-02 -0.9988 0.9988 4.993762e-02 183.8164 428.2368)" width="6" height="20"/>
<rect x="306.5" y="152" transform="matrix(0.9487 -0.3162 0.3162 0.9487 -32.7992 107.8821)" width="19" height="6"/>
<rect x="324.8" y="180" transform="matrix(0.7593 -0.6508 0.6508 0.7593 -38.6865 261.4203)" width="18.4" height="6"/>
<rect x="352.9" y="201" transform="matrix(0.4961 -0.8682 0.8682 0.4961 4.7722 416.2234)" width="16.1" height="6"/>
<rect x="399" y="204" width="6" height="17"/>
<rect x="442" y="197.5" transform="matrix(0.943 -0.3328 0.3328 0.943 -43.3581 159.8774)" width="6" height="18"/>
<path d="M48,152.2h148l-0.1-3.1c-0.3-8.6-4.9-16.4-12.1-20.9c0.2-1.4,0.2-2.7,0.2-4c0-20.4-16.6-36.9-36.9-36.9
	c-5.7,0-11.3,1.3-16.4,3.8c-6.2-7.2-15-11.8-24.4-12.7c-1.2-0.1-2.4-0.2-3.6-0.2c-2,0-3.9,0.2-5.8,0.5c-15.6,2.5-28,14.7-30.6,30.4
	c-2.6-0.8-5.2-1.2-8-1.2C43.2,107.8,31,120,31,135c0,5.7,1.8,11.2,5.1,15.9l0.9,1.2h4.3H48z M67.5,115.9l4.1,2l0.2-4.5
	c0.9-16.4,14.4-29.2,30.9-29.2c9.8,0,19,4.7,24.9,12.5l1.6,2.2l2.3-1.4c4.7-2.8,10.1-4.3,15.6-4.3c17,0,30.9,13.9,30.9,30.9
	c0,1.7-0.1,3.4-0.4,5.2l-0.4,2.2l2,1c5.5,2.7,9.3,7.8,10.4,13.7H40.2C38.1,142.8,37,139,37,135c0-11.7,9.5-21.2,21.2-21.2
	C61.5,113.8,64.6,114.5,67.5,115.9z"/>
<path d="M270.7,191.4c0.1-0.7,0.1-1.3,0.1-2c0-13.5-11-24.6-24.6-24.6c-3.5,0-7,0.8-10.1,2.2c-4.6-5-11.2-8-18.1-8
	c-11.7,0-21.6,8.2-24,19.3c-1.4-0.3-2.8-0.5-4.2-0.5c-10.2,0-18.4,8.3-18.4,18.4c0,3.9,1.2,7.6,3.5,10.7l0.9,1.2h102.8l-0.1-3.1
	C278.2,199.5,275.3,194.4,270.7,191.4z M178.9,202.2c-1-1.8-1.5-3.9-1.5-6c0-6.8,5.6-12.4,12.4-12.4c1.9,0,3.7,0.4,5.4,1.2l4.1,2
	l0.2-4.5c0.5-9.8,8.7-17.5,18.5-17.5c5.9,0,11.4,2.7,14.9,7.5l1.6,2.2l2.3-1.4c2.8-1.7,6.1-2.6,9.4-2.6c10.2,0,18.6,8.3,18.6,18.6
	c0,1-0.1,2.1-0.3,3.1l-0.4,2.2l2,1c2.8,1.4,4.8,3.8,5.7,6.6H178.9z"/>
<path d="M447.1,388.2l-40.7-86.6l-16.9,30.5l-70.2-113.9l-53.2,114.1L230,281.8l-49.8,123H141c-4.1-12.4-17.7-59.1-0.3-91.4
	l-5.3-2.8c-11.2,20.9-10.3,46.9-7.6,65c1.9,12.7,4.9,23.3,6.9,29.3h-27.5c4.2-8.1,14.1-33.8,5.8-84.3l-5.9,1
	c9.6,58.7-6.3,82.6-6.4,82.8l0.8,0.6H77.6h-7.8H25.5c-1.7,0-3,1.3-3,3s1.3,3,3,3h49.3h8h346.4h8h49.3c1.7,0,3-1.3,3-3s-1.3-3-3-3
	H455l-4.9-10.4L447.1,388.2z M447.9,404l-260.8-0.5l44.3-109.3l35.8,49.9L320,230.8l69.8,113.1l16.2-29.2L447.9,404z"/>
<path d="M121.3,213C84.8,213,55,242.8,55,279.3c0,31.3,22.2,58.6,52.8,64.9l0.5-2.6l0.3-3.3C81,332.4,61,307.6,61,279.3
	c0-33.3,27.1-60.3,60.3-60.3c33.3,0,60.3,27.1,60.3,60.3c0,31-21.5,52.5-43.4,56.7l0.1,6.1c13.7-2.2,26.1-9.8,35.2-21.6
	c9-11.6,14.1-26.6,14.1-41.2C187.7,242.8,157.9,213,121.3,213z"/>
</svg>
