<?xml version="1.0" encoding="utf-8"?>
<!-- Generator: Adobe Illustrator 21.1.0, SVG Export Plug-In . SVG Version: 6.00 Build 0)  -->
<svg version="1.1" id="Layer_1" xmlns="http://www.w3.org/2000/svg" xmlns:xlink="http://www.w3.org/1999/xlink" x="0px" y="0px"
	 viewBox="0 0 512 512" style="enable-background:new 0 0 512 512;" xml:space="preserve">
<style type="text/css">
	.st0{fill:#FFFFFF;stroke:#00AEEF;stroke-width:6;stroke-miterlimit:10;}
	.st1{fill:#FFFFFF;stroke:#000000;stroke-width:6;stroke-linecap:round;stroke-linejoin:round;stroke-miterlimit:10;}
	.st2{fill:#FFFFFF;stroke:#00AEEF;stroke-width:6.2963;stroke-miterlimit:10;}
	.st3{fill:#FFFFFF;stroke:#000000;stroke-width:6.296;stroke-linecap:round;stroke-linejoin:round;stroke-miterlimit:10;}
	.st4{fill:#00AEEF;}
	.st5{fill:none;}
	.st6{fill:none;stroke:#FFFFFF;stroke-width:0;stroke-linecap:round;stroke-linejoin:round;}
	.st7{fill:none;stroke:#00AEEF;stroke-width:0;stroke-linecap:round;stroke-linejoin:round;}
	.st8{fill:#FFFFFF;stroke:#000000;stroke-width:6;stroke-miterlimit:10;}
	.st9{fill:none;stroke:#000000;stroke-width:6;stroke-miterlimit:10;}
	.st10{fill:#00AEEF;stroke:#000000;stroke-width:6;stroke-miterlimit:10;}
	.st11{fill:none;stroke:#000000;stroke-width:6;stroke-linecap:round;stroke-linejoin:round;stroke-miterlimit:10;}
	.st12{fill:#00AEEF;stroke:#000000;stroke-width:6;stroke-linecap:round;stroke-linejoin:round;stroke-miterlimit:10;}
	.st13{fill:#FFFFFF;}
</style>
<circle class="st0" cx="256" cy="256" r="235.3"/>
<line class="st1" x1="25.5" y1="407.8" x2="486.5" y2="407.8"/>
<path d="M67.9,329.3c-1.4-0.8-3.3-0.4-4.1,1.1c-0.4,0.7-10,17.2-4.8,36.7c0.4,1.3,1.6,2.2,2.9,2.2c0.3,0,0.5,0,0.8-0.1
	c1.6-0.4,2.6-2.1,2.1-3.7c-4.5-17,4-31.9,4.2-32.1C69.8,332,69.3,330.1,67.9,329.3z"/>
<rect x="257.7" y="385" class="st4" width="210.4" height="19.1"/>
<path class="st4" d="M363,285c-51.9,0-94.4,41.4-96,93H459C457.4,326.4,414.9,285,363,285z"/>
<path d="M405.4,288.2V150.9h-46.9v-19.2c0-19.6-16-35.6-35.6-35.6H280c-19.6,0-35.6,16-35.6,35.6v19.2h-50.3v104.2h-24.1l-10.7-39.4
	l-48.5-9l-1.1,5.9l44.8,8.3l9.3,34.2h-13.8l3.6,58.7c-0.8-0.7-1.7-1.4-2.6-2.1c-7.7-5.6-19.8-2.8-32.5,0.9c-3.2,0.9-6.5,1.4-9.8,1.5
	c-3.4-8.4-3.6-15.6-0.7-21.5c4.9-9.9,17.3-13.1,17.4-13.2c1.6-0.4,2.6-2,2.2-3.6c-0.4-1.6-2-2.6-3.6-2.2
	c-0.6,0.1-13.5,3.5-20.2,14.2c-0.6-4.7-3-9-6.6-12.1c-3.9-3.3-8.9-4.9-14-4.4l-17.1,1.5l0.9,10.5c0.4,5.1,2.8,9.7,6.8,13
	c3.5,2.9,7.8,4.5,12.3,4.5c0.6,0,1.1,0,1.7-0.1l12.2-1.1c-0.3,4.4,0.4,9,2.1,14c-2.2-0.3-4.4-0.8-6.6-1.6
	c-12.7-4.3-27.2-9.1-35.7-4.1c-16.2,9.7-17.6,27.2-17.6,47.4c0,18.5,6.4,33.9,18,43.3c11.2,9.1,26.6,12.1,44.7,8.5
	c5.8,1.1,11.1,1.6,16,1.6c10.9,0,19.5-2.7,26.2-8.1c4.6-3.8,8.2-8.8,10.8-15.1l1.3,21h34.8v2.5h57.6v1H474V379H465
	C464.2,338.7,440,304.1,405.4,288.2z M143.3,396c-8.3,6.8-20.7,8.5-37.9,5.2l-0.6-0.1l-0.6,0.1c-16.5,3.4-30.4,0.9-40.3-7.1
	c-10.2-8.3-15.8-22-15.8-38.7c0-19,1.1-34.2,14.6-42.2c6.1-3.7,20.3,1.1,30.7,4.6c8.6,2.9,17.8,3.1,26.5,0.6
	c10.8-3.1,21.8-5.8,27.3-1.8c3.1,2.3,5.3,4.9,6.8,7.8l2.5,40C155.2,379.4,150.8,390,143.3,396z M156.3,261.1h65.6l-8.6,139.5h-48.4
	L156.3,261.1z M228.2,255.1h-28.2v-98.2h199.3v128.8c-10.7-4.1-22.3-6.4-34.4-6.7v-14.3c7.4-1.4,13-7.9,13-15.7c0-8.8-7.2-16-16-16
	s-16,7.2-16,16c0,7.8,5.6,14.3,13,15.7v14.4c-53.7,2.1-96.9,45.9-98,99.9h-9.4v24.1h-32.6L228.2,255.1z M250.4,131.8
	c0-16.3,13.3-29.6,29.6-29.6h42.8c16.3,0,29.6,13.3,29.6,29.6v18.6h-102V131.8z M352,249c0-5.5,4.5-10,10-10s10,4.5,10,10
	s-4.5,10-10,10S352,254.5,352,249z M267,378c1.6-51.6,44-93,96-93s94.4,41.4,96,93H267z M468,404.1H257.7V385H468V404.1z
	 M77.6,291.7c-2.7-2.3-4.3-5.4-4.6-8.9l-0.4-4.5l11.1-1c3.5-0.3,6.9,0.8,9.6,3c2.7,2.3,4.3,5.4,4.6,8.9l0.4,4.5l-11.1,1
	C83.7,295,80.3,293.9,77.6,291.7z"/>
<path class="st4" d="M372,249c0-5.5-4.5-10-10-10s-10,4.5-10,10s4.5,10,10,10S372,254.5,372,249z"/>
<path d="M89.5,159.4c-5.1-1.7-10.5,1-12.2,6.1c-1.7,5.1,1,10.5,6.1,12.2c0.9,0.3,2.3,0.4,3.8,0.4c4.9,0,11.9-1.3,14.4-1.8l5.1-1
	l-3.5-3.9C101,168.9,93.4,160.7,89.5,159.4z M85.3,172c-0.9-0.3-1.7-1-2.1-1.8c-0.4-0.9-0.5-1.9-0.2-2.8c0.5-1.5,1.9-2.5,3.5-2.5
	c0.4,0,0.8,0.1,1.2,0.2c1.2,0.4,4.2,3.1,7.4,6.3C90.5,172,86.4,172.4,85.3,172z"/>
<path d="M117.1,146.8l4.4,2.8l0.2-5.2c0.1-3.3,0.4-14.5-1.5-18.2l0,0c-2.5-4.7-8.3-6.6-13-4.1c-2.3,1.2-4,3.2-4.8,5.7
	c-0.8,2.5-0.6,5.1,0.6,7.4C105,138.8,114.3,145,117.1,146.8z M110,127.4c0.5-0.3,1.1-0.4,1.7-0.4c1.3,0,2.6,0.7,3.3,2
	c0.6,1.1,0.9,5.2,0.9,9.7c-3.6-2.6-6.8-5.2-7.4-6.3c-0.5-0.9-0.5-1.9-0.2-2.8C108.5,128.6,109.1,127.8,110,127.4z"/>
<path d="M154.1,140.4c2.2-2.5,9.6-10.9,10.5-14.9v0c1.1-5.2-2.2-10.4-7.4-11.5c-2.5-0.6-5.1-0.1-7.3,1.3c-2.2,1.4-3.7,3.5-4.2,6.1
	c-0.9,4.1,2.3,14.8,3.3,17.9l1.6,5L154.1,140.4z M151.6,122.6c0.2-1,0.8-1.8,1.6-2.3c0.6-0.4,1.3-0.6,2-0.6c0.3,0,0.5,0,0.8,0.1
	c2,0.4,3.2,2.4,2.8,4.4c-0.3,1.2-2.7,4.6-5.5,8C152.1,127.9,151.3,123.8,151.6,122.6z"/>
</svg>
