<?xml version="1.0" encoding="utf-8"?>
<!-- Generator: Adobe Illustrator 21.1.0, SVG Export Plug-In . SVG Version: 6.00 Build 0)  -->
<svg version="1.1" id="Layer_1" xmlns="http://www.w3.org/2000/svg" xmlns:xlink="http://www.w3.org/1999/xlink" x="0px" y="0px"
	 viewBox="0 0 512 512" style="enable-background:new 0 0 512 512;" xml:space="preserve">
<style type="text/css">
	.st0{fill:#FFFFFF;stroke:#00AEEF;stroke-width:6;stroke-miterlimit:10;}
	.st1{fill:#FFFFFF;stroke:#000000;stroke-width:6;stroke-linecap:round;stroke-linejoin:round;stroke-miterlimit:10;}
	.st2{fill:#FFFFFF;stroke:#00AEEF;stroke-width:6.2963;stroke-miterlimit:10;}
	.st3{fill:#FFFFFF;stroke:#000000;stroke-width:6.296;stroke-linecap:round;stroke-linejoin:round;stroke-miterlimit:10;}
	.st4{fill:#00AEEF;}
	.st5{fill:none;}
	.st6{fill:none;stroke:#FFFFFF;stroke-width:0;stroke-linecap:round;stroke-linejoin:round;}
	.st7{fill:none;stroke:#00AEEF;stroke-width:0;stroke-linecap:round;stroke-linejoin:round;}
	.st8{fill:#FFFFFF;stroke:#000000;stroke-width:6;stroke-miterlimit:10;}
	.st9{fill:none;stroke:#000000;stroke-width:6;stroke-miterlimit:10;}
	.st10{fill:#00AEEF;stroke:#000000;stroke-width:6;stroke-miterlimit:10;}
	.st11{fill:none;stroke:#000000;stroke-width:6;stroke-linecap:round;stroke-linejoin:round;stroke-miterlimit:10;}
	.st12{fill:#00AEEF;stroke:#000000;stroke-width:6;stroke-linecap:round;stroke-linejoin:round;stroke-miterlimit:10;}
	.st13{fill:#FFFFFF;}
</style>
<path class="st4" d="M43.9,364.8c0-3.9,0.4-7.7,1-11.4C31,323.3,23.7,290.2,23.7,256c0-62.1,24.2-120.4,68-164.3s102.2-68,164.3-68
	c55.6,0,108.3,19.4,150.2,55.1c1.5-1.4,3.1-2.6,4.8-3.8C367.9,37.9,313.5,17.7,256,17.7c-63.7,0-123.5,24.8-168.5,69.8
	S17.7,192.3,17.7,256c0,38.5,9.1,75.7,26.2,109V364.8z"/>
<path class="st4" d="M462.9,150.1c16.6,32.4,25.4,68.5,25.4,105.9c0,41.5-10.8,81.4-31.2,116.4V384c24.2-37.9,37.2-81.9,37.2-128
	c0-39.5-9.5-77.5-27.5-111.4C465.6,146.4,464.3,148.2,462.9,150.1z"/>
<path class="st4" d="M428.3,411.8c-2.6,2.9-5.3,5.7-8,8.5c-43.9,43.9-102.2,68-164.3,68s-120.4-24.2-164.3-68
	c-2.8-2.8-5.4-5.6-8-8.5h-8c3.8,4.3,7.7,8.6,11.8,12.7c45,45,104.9,69.8,168.5,69.8s123.5-24.8,168.5-69.8c4.1-4.1,8-8.3,11.8-12.7
	H428.3z"/>
<circle cx="163.4" cy="217.7" r="6.2"/>
<circle cx="211.1" cy="216.5" r="6.2"/>
<path d="M198.5,258.9c-7.4,7.4-17.5,3.8-21.2,0.3c-1.2-1.1-3.1-1.1-4.2,0.1c-1.1,1.2-1.1,3.1,0.1,4.2c3.4,3.3,9.1,5.7,15.1,5.7
	c5,0,10.2-1.7,14.6-6.1c1.2-1.2,1.2-3.1,0-4.2C201.6,257.7,199.7,257.7,198.5,258.9z"/>
<polygon points="182,164.2 188,164.2 188,150.4 201.8,150.4 201.8,144.4 188,144.4 188,130.6 182,130.6 182,144.4 168.2,144.4 
	168.2,150.4 182,150.4 "/>
<path d="M325.8,224.1h39.1v-39.1h-39.1V224.1z M331.8,191.1h27.1v27.1h-27.1V191.1z"/>
<path d="M325.8,277.9h39.1v-39.1h-39.1V277.9z M331.8,244.8h27.1v27.1h-27.1V244.8z"/>
<path d="M385.1,277.9h39.1v-39.1h-39.1V277.9z M391.1,244.8h27.1v27.1h-27.1V244.8z"/>
<path d="M325.8,331.7h39.1v-39.1h-39.1V331.7z M331.8,298.6h27.1v27.1h-27.1V298.6z"/>
<path d="M385.1,331.7h39.1v-39.1h-39.1V331.7z M391.1,298.6h27.1v27.1h-27.1V298.6z"/>
<path class="st4" d="M472.7,111.1c0-20.7-16.8-37.5-37.5-37.5c-12.1,0-23.5,5.9-30.6,15.8l-2.4,3.4l-2.4-3.4
	c-7-9.9-18.5-15.8-30.6-15.8c-20.7,0-37.5,16.8-37.5,37.5c0,36.5,59.7,79.4,70.5,86.9C413,190.6,472.7,147.6,472.7,111.1z"/>
<path d="M406.2,78.7c-1.4,1.3-2.8,2.6-4,4.1c-8.2-9.6-20.3-15.2-33-15.2c-24,0-43.5,19.5-43.5,43.5c0,13.4,6.8,28.4,20.3,44.7h-53.2
	v158.3c-9.9-7.7-22.2-12.5-35.5-13.2c0.3-9.5,1.2-57.4-7.4-90.3v-19.1c0-0.4,0-0.8,0-1.3l11-73.2l-2.7-0.6
	c-1.8-0.4-43.8-10.4-73.7-10.4c-29.9,0-72.9,9.9-74.8,10.4l-2.7,0.6l10.9,77.5l0.1,0v9.9c-1.5,6.6-3.2,15.2-4.8,24.7
	c-4.6,28.7-5.4,52.8-2.2,71.7h-3.1c-31.4,0-57.5,22.7-62.9,52.5c-0.7,3.7-1,7.5-1,11.4v0.2v40.9H25.5c-1.7,0-3,1.3-3,3s1.3,3,3,3
	h50.2h8h344.7h8h50.2c1.7,0,3-1.3,3-3s-1.3-3-3-3h-29.3V384v-11.5v-215c2.1-2.4,4-4.9,5.8-7.3c1.4-1.9,2.7-3.7,3.9-5.5
	c7.9-12,11.9-23.2,11.9-33.4c0-24-19.5-43.5-43.5-43.5c-8.7,0-17.1,2.6-24.1,7.3C409.4,76.1,407.7,77.4,406.2,78.7z M49.9,364.8
	c0-31.9,26-57.9,57.9-57.9H151v5.1c0,17.1,13.9,31,31,31s31-13.9,31-31v-5.1h40.8c15,0,28.7,5.7,39,15.1v82.8H49.9V364.8z
	 M184.3,112c25,0,59.8,7.4,69.7,9.6l-9.6,63.8c-9.4-1.6-38-6.1-60.1-6.1c-26.6,0-52.5,5.6-61.5,7.7l-9.2-65.4
	C123.6,119.5,159.3,112,184.3,112z M157,306.9h50v5.1c0,13.8-11.2,25-25,25s-25-11.2-25-25V306.9z M251.3,299.4h-37.5
	c19.8-10.1,33.9-30,35.8-53.2C251.7,269.3,251.4,291.6,251.3,299.4z M243.8,240.7c0,30.2-22.4,55.2-51.5,59.3h-16.9
	c-29.1-4.1-51.5-29.1-51.5-59.3V193c8.3-2,34-7.6,60.4-7.6c21.6,0,50.7,4.6,59.5,6c0,0,0,0.1,0,0.1V240.7z M154,299.4h-37.2
	c-3.1-19.1-1.6-41.8,1.1-61.4v2.7C117.9,266.3,132.6,288.5,154,299.4z M348.6,356.9h53.9v47.8h-53.9V356.9z M408.5,404.2v-53.3
	h-65.9v53.3h-43.9V161.9h52.4c3.7,4.1,7.7,8.2,12.2,12.4c7.5,7.1,15.1,13.4,21.4,18.3v31.5h39.1v-34.9c5.3-4.3,11.2-9.3,17.1-14.9
	c3.7-3.5,7-6.9,10.2-10.2v240.1H408.5z M390.8,197.2c5.8,4.3,9.7,6.9,9.8,6.9l1.7,1.1l1.7-1.1c0.1-0.1,5.8-3.9,14-10.2v24.2h-27.1
	V197.2z M402.2,198c-10.8-7.5-70.5-50.4-70.5-86.9c0-20.7,16.8-37.5,37.5-37.5c12.1,0,23.5,5.9,30.6,15.8l2.4,3.4l2.4-3.4
	c7-9.9,18.5-15.8,30.6-15.8c20.7,0,37.5,16.8,37.5,37.5C472.7,147.6,413,190.6,402.2,198z"/>
</svg>
