<?xml version="1.0" encoding="utf-8"?>
<!-- Generator: Adobe Illustrator 21.1.0, SVG Export Plug-In . SVG Version: 6.00 Build 0)  -->
<svg version="1.1" id="Layer_1" xmlns="http://www.w3.org/2000/svg" xmlns:xlink="http://www.w3.org/1999/xlink" x="0px" y="0px"
	 viewBox="0 0 512 512" style="enable-background:new 0 0 512 512;" xml:space="preserve">
<style type="text/css">
	.st0{fill:#FFFFFF;stroke:#00AEEF;stroke-width:6;stroke-miterlimit:10;}
	.st1{fill:#FFFFFF;stroke:#000000;stroke-width:6;stroke-linecap:round;stroke-linejoin:round;stroke-miterlimit:10;}
	.st2{fill:#FFFFFF;stroke:#00AEEF;stroke-width:6.2963;stroke-miterlimit:10;}
	.st3{fill:#FFFFFF;stroke:#000000;stroke-width:6.296;stroke-linecap:round;stroke-linejoin:round;stroke-miterlimit:10;}
	.st4{fill:#00AEEF;}
	.st5{fill:none;}
	.st6{fill:none;stroke:#FFFFFF;stroke-width:0;stroke-linecap:round;stroke-linejoin:round;}
	.st7{fill:none;stroke:#00AEEF;stroke-width:0;stroke-linecap:round;stroke-linejoin:round;}
	.st8{fill:#FFFFFF;stroke:#000000;stroke-width:6;stroke-miterlimit:10;}
	.st9{fill:none;stroke:#000000;stroke-width:6;stroke-miterlimit:10;}
	.st10{fill:#00AEEF;stroke:#000000;stroke-width:6;stroke-miterlimit:10;}
	.st11{fill:none;stroke:#000000;stroke-width:6;stroke-linecap:round;stroke-linejoin:round;stroke-miterlimit:10;}
	.st12{fill:#00AEEF;stroke:#000000;stroke-width:6;stroke-linecap:round;stroke-linejoin:round;stroke-miterlimit:10;}
	.st13{fill:#FFFFFF;}
</style>
<path class="st4" d="M478,324.7c-9.1,29.6-24.1,57.1-44.5,81.1h7.8c22.3-27.5,38-59.3,46.3-93.4C484.9,316.9,481.7,321,478,324.7z"
	/>
<path class="st4" d="M454,134.3c20.5,33.1,32.2,71,34.1,110.6c2.6,4.4,4.7,9.1,6.2,14.1c0-1,0-2,0-3c0-47.6-13.9-93.1-39.7-131.8
	c0,0,0,0.1,0,0.1C454.6,127.7,454.4,131,454,134.3z"/>
<path class="st4" d="M428.3,411.8c-2.6,2.9-5.3,5.7-8,8.5c-43.9,43.9-102.2,68-164.3,68s-120.4-24.2-164.3-68
	c-2.8-2.8-5.4-5.6-8-8.5h-8c3.8,4.3,7.7,8.6,11.8,12.7c45,45,104.9,69.8,168.5,69.8s123.5-24.8,168.5-69.8c4.1-4.1,8-8.3,11.8-12.7
	H428.3z"/>
<path class="st4" d="M43,349.1c-12.7-29-19.3-60.5-19.3-93.1c0-62.1,24.2-120.4,68-164.3s102.2-68,164.3-68
	c38.6,0,75.7,9.3,108.8,26.9c3.3-0.7,6.6-1.1,10-1.3C339.1,28.7,298.4,17.7,256,17.7c-63.7,0-123.5,24.8-168.5,69.8
	S17.7,192.3,17.7,256c0,37.9,8.8,74.4,25.3,107.2V349.1z"/>
<path d="M433.6,405.8H282.1v-21.9h-30v-25.2h143.3v-24.9c10.3,6.6,22.5,10.5,35.7,10.5c18.3,0,35-7.5,47-19.6
	c3.7-3.7,6.9-7.8,9.6-12.3c6.1-10,9.5-21.7,9.5-34.2c0-6.7-1-13.2-2.9-19.3c-1.5-5-3.6-9.7-6.2-14.1c-11.5-19.5-32.7-32.7-57-32.7
	c-13.1,0-25.4,3.9-35.7,10.5v-24.9c30.6-6.6,54.4-32,58.5-63.5c0.4-3.3,0.7-6.6,0.7-9.9c0,0,0-0.1,0-0.1c-0.1-41.4-33.8-75-75.2-75
	c-1.6,0-3.1,0.1-4.6,0.2c-3.4,0.2-6.8,0.6-10,1.3c-34.5,6.8-60.5,37.3-60.5,73.7c0,8.9,1.6,17.4,4.4,25.4H83.4v101.4H43v97.9v14.1
	v42.6H25.5c-1.7,0-3,1.3-3,3s1.3,3,3,3h50.2h8h344.7h8h50.2c1.7,0,3-1.3,3-3s-1.3-3-3-3h-45.1H433.6z M49,257.1h56v148H49V257.1z
	 M448.6,124.3c0,38.1-31,69.2-69.2,69.2s-69.2-31-69.2-69.2s31-69.2,69.2-69.2S448.6,86.2,448.6,124.3z M331.1,181.8H134.8V269H342
	v-79.5c11,6.4,23.8,10,37.5,10c3.4,0,6.7-0.2,10-0.7V227c-14.9,12.1-24.4,30.6-24.4,51.3s9.5,39.1,24.4,51.3v23.2H111V251.1H89.4
	v-95.4h221.8C315.8,165.8,322.7,174.7,331.1,181.8z M336,187.8V263H140.8v-75.2H336z M491.2,278.3c0,33.1-27,60.1-60.1,60.1
	s-60.1-27-60.1-60.1s27-60.1,60.1-60.1S491.2,245.1,491.2,278.3z M276.1,389.9v15.4h-73.3v-15.4h30v-31.2h13.4v31.2H276.1z
	 M111,358.7h115.7v25.2h-30v21.9H111V358.7z"/>
<path d="M78,387c5.5,0,10-4.5,10-10s-4.5-10-10-10s-10,4.5-10,10S72.5,387,78,387z M78,373c2.2,0,4,1.8,4,4s-1.8,4-4,4s-4-1.8-4-4
	S75.8,373,78,373z"/>
<rect x="138.3" y="281" width="202.2" height="6"/>
<rect x="138.3" y="299" width="202.2" height="6"/>
<rect x="138.3" y="317" width="202.2" height="6"/>
<path class="st4" d="M310.3,124.3c0,38.1,31,69.2,69.2,69.2s69.2-31,69.2-69.2s-31-69.2-69.2-69.2S310.3,86.2,310.3,124.3z
	 M417.4,104.8c-1.4,0.9-3.2,0.6-4.2-0.8c-6.8-10.1-18.1-16.1-30.2-16.1c-20.1,0-36.4,16.3-36.4,36.4s16.3,36.4,36.4,36.4
	c11.5,0,22.1-5.3,29-14.5c1-1.3,2.9-1.6,4.2-0.6c1.3,1,1.6,2.9,0.6,4.2c-8.1,10.7-20.4,16.8-33.8,16.8c-23.4,0-42.4-19-42.4-42.4
	s19-42.4,42.4-42.4c14.1,0,27.3,7,35.2,18.7C419.2,102,418.8,103.9,417.4,104.8z"/>
<path d="M383.1,81.9c-23.4,0-42.4,19-42.4,42.4s19,42.4,42.4,42.4c13.4,0,25.7-6.1,33.8-16.8c1-1.3,0.7-3.2-0.6-4.2
	c-1.3-1-3.2-0.7-4.2,0.6c-7,9.2-17.5,14.5-29,14.5c-20.1,0-36.4-16.3-36.4-36.4s16.3-36.4,36.4-36.4c12.1,0,23.4,6,30.2,16.1
	c0.9,1.4,2.8,1.7,4.2,0.8c1.4-0.9,1.7-2.8,0.8-4.2C410.3,88.9,397.2,81.9,383.1,81.9z"/>
<path d="M404,263h26v47c0,1.7,1.3,3,3,3s3-1.3,3-3v-47h26c1.7,0,3-1.3,3-3s-1.3-3-3-3h-58c-1.7,0-3,1.3-3,3S402.3,263,404,263z"/>
</svg>
