<?xml version="1.0" encoding="utf-8"?>
<!-- Generator: Adobe Illustrator 21.1.0, SVG Export Plug-In . SVG Version: 6.00 Build 0)  -->
<svg version="1.1" id="Layer_1" xmlns="http://www.w3.org/2000/svg" xmlns:xlink="http://www.w3.org/1999/xlink" x="0px" y="0px"
	 viewBox="0 0 512 512" style="enable-background:new 0 0 512 512;" xml:space="preserve">
<style type="text/css">
	.st0{fill:#FFFFFF;stroke:#00AEEF;stroke-width:6;stroke-miterlimit:10;}
	.st1{fill:#FFFFFF;stroke:#000000;stroke-width:6;stroke-linecap:round;stroke-linejoin:round;stroke-miterlimit:10;}
	.st2{fill:#FFFFFF;stroke:#00AEEF;stroke-width:6.2963;stroke-miterlimit:10;}
	.st3{fill:#FFFFFF;stroke:#000000;stroke-width:6.296;stroke-linecap:round;stroke-linejoin:round;stroke-miterlimit:10;}
	.st4{fill:#00AEEF;}
	.st5{fill:none;}
	.st6{fill:none;stroke:#FFFFFF;stroke-width:0;stroke-linecap:round;stroke-linejoin:round;}
	.st7{fill:none;stroke:#00AEEF;stroke-width:0;stroke-linecap:round;stroke-linejoin:round;}
	.st8{fill:#FFFFFF;stroke:#000000;stroke-width:6;stroke-miterlimit:10;}
	.st9{fill:none;stroke:#000000;stroke-width:6;stroke-miterlimit:10;}
	.st10{fill:#00AEEF;stroke:#000000;stroke-width:6;stroke-miterlimit:10;}
	.st11{fill:none;stroke:#000000;stroke-width:6;stroke-linecap:round;stroke-linejoin:round;stroke-miterlimit:10;}
	.st12{fill:#00AEEF;stroke:#000000;stroke-width:6;stroke-linecap:round;stroke-linejoin:round;stroke-miterlimit:10;}
	.st13{fill:#FFFFFF;}
</style>
<path class="st4" d="M77.6,404.8C42.7,363.1,23.7,311,23.7,256c0-43.3,11.8-84.8,33.8-120.8V124c-25.9,38.8-39.8,84.3-39.8,132
	c0,54.8,18.4,106.7,52.2,148.8H77.6z"/>
<path class="st4" d="M78.1,106.5c4.3-5.1,8.8-10,13.6-14.8c43.9-43.9,102.2-68,164.3-68s120.4,24.2,164.3,68s68,102.2,68,164.3
	c0,9.9-0.6,19.6-1.8,29.3c0,0,0,0,0,0c1.8,2.9,3.4,5.8,4.8,8.8c2-12.5,3-25.2,3-38.1c0-63.7-24.8-123.5-69.8-168.5
	S319.7,17.7,256,17.7S132.5,42.5,87.5,87.5c-6.1,6.1-11.8,12.4-17.1,19H78.1z"/>
<path class="st4" d="M429.2,410.8c-2.9,3.2-5.9,6.4-8.9,9.5c-43.9,43.9-102.2,68-164.3,68s-120.4-24.2-164.3-68
	c-3.1-3.1-6-6.2-8.9-9.5h-8c4,4.7,8.2,9.3,12.7,13.7c45,45,104.9,69.8,168.5,69.8s123.5-24.8,168.5-69.8c4.4-4.4,8.6-9,12.7-13.7
	H429.2z"/>
<path d="M222.5,167.4l-7.6-11.9l-2.3-3.9l-1.6-4.4c0.3-0.7,0.3-1.3,0.3-1.6c-0.3-3-3.4-3-6.6-3c-5.7,0-9.8-0.3-9.8-0.3l-0.3,0
	l-0.3,0c-0.7,0.1-4.1,0.7-5.3,3.3c-0.3,0.5-2,2.1-3.7,3.6h-1c-0.2-0.4-0.3-0.8-0.3-0.9c0.7-2.1,0.9-3.2,0.9-3.7v-1.6l-7-4.4
	l-6.4,4.8h-3.5c-4,0-8.2,1.5-8.3,1.6L159,145c-0.2,0.1-4.5,2.7-7.6,5.7c-2.7,2.7-8.9,8.6-9,8.6l-1.6,1.5l5.1,11.1l6.4,0.8
	c-0.2,0.3-0.3,0.5-0.4,0.5c-0.9,0.6-2,1.6-3.8,3.2c-1.5,1.4-4.1,3.7-5.4,4.5c-0.2-0.1-0.3-0.1-0.5-0.2c-1.2-0.4-2.7-1.1-5.4-1.1
	c-1,0-1.5,0-1.9,0.1c-0.4,0-0.6,0-5.1-0.4c-2.2-0.2-3.3-0.5-4.3-0.7c-2.6-0.6-3.8-0.6-8.4,0.8c-0.7,0.2-1.3,0.4-1.8,0.6
	c-2.2,0.7-4.2,1.3-4.2,4.3c0,0.4,0,1.3-1,3.4c-3.7,7.8-0.5,15.1-0.4,15.4l0.8,1.8h8.4l-0.2,0.5c-2.3,1.4-6.7,4.1-8,5.5l-3.2,3.2
	l4.1,5.4l11.4,5.9l4.9,2.6l4.2,0.8h2.7c0.2,0.2,0.5,0.4,0.7,0.6c-2.1,1.8-6.2,4.9-9.7,7.5l-0.6,0.5l-4.6,10l-8.2,8.2l0.3,5.4
	c-2.1,0.8-4.5,1.7-5.4,1.8c-3.1,0.5-6.7,2.6-7.3,5.9c-0.4,2,0.8,4.1,3.4,6.4l-3.8,8.7l10.9,8.4l5.3,3.8l7.9,2.8l10.7-0.4l0.5-0.1
	c0.3-0.1,7.7-1.5,12.1-3.3c4.2-1.7,6.6-2.8,6.6-2.8l0.3-0.1l9.4-6.2l7.7-3l4.9-2l7.4-1.3l9.1-2.9l13-5.9l1.8-5.4l-3.9-2.9
	c5.8-8.9,5.8-10.9,5.8-11.6v-3.1c0.3-1.2,1.4-5.2,2-7.2c0.8-2.7,0.3-11.3,0.1-13.9l0-0.2c0,0-2.1-13.9-2.4-16.3
	c-0.1-0.4-0.1-0.9-0.2-1.4c-0.5-3.8-1-7.1-2.4-9.2c0-0.1-0.1-0.1-0.1-0.2c1.9-0.2,3.5-0.5,4.6-1.4c1.2-0.9,2.9-1.9,2.9-1.9l0.4-0.3
	c0.8-0.7,3.2-2.7,4.7-4.5c0.5,0.3,1.2,0.4,1.9,0.3c3.3-0.4,3.4-4.4,3.5-7.1c0-0.8,0.1-1.4,0.1-1.9c1.1-1,0.8-2.6,0.5-4.4
	L222.5,167.4z M218,180.9l-2.2,3.3c0,0-0.7,1.1-1.8,2.9c-0.4,0.7-2.4,2.6-4,4c-0.5,0.3-1.8,1.1-3,2c-0.5,0.2-1.8,0.3-2.7,0.4
	c-2.6,0.3-4.7,0.5-5.8,2.2c-1.8,2.7,0.4,4.9,1.2,5.7c0.4,0.4,0.9,0.9,1.2,1.4c0.8,1.1,1.2,4.8,1.4,6.6c0.1,0.6,0.1,1.1,0.2,1.6
	c0.3,2.3,2.2,14.9,2.4,16.3c0.3,4.7,0.4,10.5,0.1,11.7c-0.7,2.4-2,7.5-2.1,7.7l-0.1,0.4v3.7c-0.4,1.4-3.2,6.2-5.8,10l-1,1.4l2.1,4.3
	l0.8,0.6l-8.9,4l-8.3,2.7l-7.8,1.4l-13.8,5.4l-9.4,6.3c-0.7,0.3-3,1.3-6.3,2.7c-3.5,1.4-9.5,2.7-10.7,2.9l-9.3,0.3l-6-2.1l-4.5-3.2
	l-7.1-5.5l3.9-8.8l-2-1.4c-0.9-0.6-1.9-1.5-2.5-2.1c0.5-0.3,1.2-0.7,2-0.8c2.3-0.4,7.6-2.5,8.7-3l2-0.8l-0.4-7.1l7.1-7.1l4.4-9.5
	c12.4-9.2,12.4-10.2,12.4-11.7c0-0.8,0-2.5-4.6-6.2l-0.8-0.7h-4.2l-2.7-0.5l-4.2-2.2l-10.2-5.3l-0.1-0.1c1.3-1,4.5-3.1,7.3-4.7
	l0.9-0.5l4-10.6h-12.9c-0.4-2-0.7-5.3,0.8-8.6c0.9-1.9,1.3-3.3,1.5-4.4c0,0,0,0,0.1,0c0.5-0.2,1.1-0.3,1.9-0.6
	c3.6-1.1,3.8-1.1,5.2-0.7c1,0.2,2.5,0.6,5.1,0.9c4.9,0.5,5.2,0.5,6.2,0.4c0.3,0,0.6,0,1.4,0c1.5,0,2.2,0.3,3.2,0.7
	c0.6,0.2,1.3,0.5,2.2,0.7c2.4,0.5,4.7-1.3,10-6.2c1.2-1.1,2.5-2.3,3-2.6c3-2,3.9-6.7,4.1-7.6l0.5-3.1l-9.8-1.2l-1.9-4.2
	c2-1.9,5.6-5.3,7.6-7.3c2.1-2.1,5.2-4.1,6.1-4.6c0.8-0.3,3.6-1.1,6-1.1h5.5l4.7-3.5l0.3,0.2c0,0.1-0.1,0.3-0.1,0.4
	c-1.1,3.4,1.3,6.9,1.8,7.6l0.9,1.2h6.4l0.8-0.7c2.2-1.8,4.9-4.3,5.8-6c0.2-0.1,0.5-0.2,0.7-0.3c1.2,0.1,5,0.3,9.9,0.3
	c0.2,0,0.3,0,0.4,0l2,5.3l2.7,4.6l7,11.1l1.6,9.7c0,0,0,0,0,0.1C218.2,179.8,218.1,180.3,218,180.9z"/>
<path class="st4" d="M424.7,333l37.9,55.6c13.1-9.7,23.1-23.7,27.7-40.5L424.7,333z"/>
<path class="st4" d="M398.2,400.7l15.4-67.1l-59.5,34.1C363.8,383.4,379.2,395.5,398.2,400.7z"/>
<path class="st4" d="M351.2,362.5l57.8-33.1l-64.8-14.9C341,331.4,353.8,348.1,351.2,362.5z"/>
<path class="st4" d="M481.4,288.5c-10.6-17-27.3-28.8-46.8-33.3c-5.6-1.3-11.2-1.9-16.8-1.9c-4.1,0-8.2,0.4-12.2,1l14.8,71.5
	l71.2,16.3C495.1,323.6,491.6,304.6,481.4,288.5z"/>
<path class="st4" d="M457.6,391.9l-38.3-56.2L404.1,402C423.2,405.6,442.1,401.6,457.6,391.9z"/>
<path class="st4" d="M414,324.3l-14.2-68.8c-25.6,6.4-46.9,26.2-54.2,53.1L414,324.3z"/>
<path d="M486.5,285.3C486.5,285.3,486.5,285.3,486.5,285.3C475,267,457.1,254.2,436,249.4c-8.2-1.9-16.5-2.4-24.5-1.8V106.5H78.1
	h-7.8H57.5V124v11.2v195.3h279.5c0.3,12.8,3.7,25,9.6,35.9c-0.1,0.6,0,1.3,0.3,1.9c0.3,0.6,0.9,1,1.5,1.3c9.5,16,24.5,28.8,43,35.2
	H275.4l0.8-0.8L238,364.4v-33.9h-6v32h-0.1v1.8L192.8,404l0.8,0.8h-116h-7.8H25.5c-1.7,0-3,1.3-3,3s1.3,3,3,3h49.3h8h346.4h8h49.3
	c1.7,0,3-1.3,3-3s-1.3-3-3-3h-42.1c6.6-2.3,12.9-5.5,18.7-9.4c0.1-0.1,0.3-0.1,0.4-0.2c0.1-0.1,0.2-0.2,0.3-0.2
	c16.1-11.1,28.3-28,33.1-48.6c4.1-17.8,2.1-36-5.5-52.3C489.9,291.1,488.3,288.2,486.5,285.3z M63.5,324.5v-353h342v135.8
	c-1.3,0.2-2.6,0.4-4,0.7c0,0,0,0-0.1,0c0,0,0,0,0,0c-30,6.3-55.2,29.4-62.5,61.2c-1.1,4.8-1.7,9.6-1.9,14.3H63.5z M404.1,402
	l15.2-66.3l38.3,56.2C442.1,401.6,423.2,405.6,404.1,402z M345.5,308.6c7.3-26.9,28.7-46.7,54.2-53.1l14.2,68.8L345.5,308.6z
	 M344.2,314.5l64.8,14.9l-57.8,33.1C353.8,348.1,341,331.4,344.2,314.5z M413.6,333.6l-15.4,67.1c-19-5.2-34.4-17.3-44.1-33
	L413.6,333.6z M462.6,388.5L424.7,333l65.6,15C485.7,364.8,475.7,378.8,462.6,388.5z M491.6,342.2l-71.2-16.3l-14.8-71.5
	c4-0.7,8.1-1,12.2-1c5.5,0,11.2,0.6,16.8,1.9c19.5,4.5,36.1,16.3,46.8,33.3C491.6,304.6,495.1,323.6,491.6,342.2z M237.9,373
	l30.7,31.8h-30.7V373z M231.9,404.8h-31.5l31.5-32V404.8z"/>
<path d="M262.2,179c0.6,0.6,1.3,0.9,2.1,0.9c0.8,0,1.6-0.3,2.1-0.9c1.2-1.2,1.1-3.1-0.1-4.2l-10-9.7c43.5-3.8,76.2,6.8,97.3,31.5
	c15.8,18.6,18.9,38.7,18.9,39c0.2,1.5,1.5,2.6,3,2.6c0.1,0,0.3,0,0.4,0c1.6-0.2,2.8-1.7,2.6-3.4c-0.1-0.9-3.2-21.9-20.1-41.8
	c-27.7-32.7-70.4-36.6-102-33.9l6.7-12.4c0.8-1.5,0.2-3.3-1.2-4.1c-1.5-0.8-3.3-0.2-4.1,1.2l-9.9,18.4c-0.6,1.2-0.4,2.6,0.5,3.6
	L262.2,179z"/>
<path d="M324,207h-78c-1.7,0-3,1.3-3,3s1.3,3,3,3h78c1.7,0,3-1.3,3-3S325.7,207,324,207z"/>
<path d="M324,228h-78c-1.7,0-3,1.3-3,3s1.3,3,3,3h78c1.7,0,3-1.3,3-3S325.7,228,324,228z"/>
<path d="M324,249h-78c-1.7,0-3,1.3-3,3s1.3,3,3,3h78c1.7,0,3-1.3,3-3S325.7,249,324,249z"/>
<path d="M308,270h-62c-1.7,0-3,1.3-3,3s1.3,3,3,3h62c1.7,0,3-1.3,3-3S309.7,270,308,270z"/>
<polygon points="328.6,155.8 341.2,144 342.5,141.2 330,135.6 328.2,139.5 335.7,142.8 323.7,153.6 "/>
<path d="M347.9,147.9c0.6,0.3,1,0.6,1.3,1c0.3,0.4,0.3,0.8,0.1,1.3c-0.5,1.2-2,1.3-4.4,0.2l-1.1-0.5l-1.6,3.5l1.1,0.5
	c0.9,0.4,1.6,0.8,2,1.2c0.5,0.4,0.8,0.7,0.9,1.1c0.1,0.4,0.1,0.8-0.1,1.3c-0.3,0.6-0.7,1-1.3,1c-0.6,0.1-1.4-0.1-2.4-0.6
	c-0.7-0.3-1.3-0.7-2-1.3c-0.7-0.5-1.3-1.2-1.9-1.9l-1.8,3.9c0.8,0.8,1.5,1.4,2.2,1.9c0.7,0.5,1.6,1,2.5,1.4c2.3,1,4.2,1.4,5.9,1
	c1.7-0.3,2.9-1.3,3.6-2.9c1.1-2.4,0.2-4.4-2.5-6.1l0-0.1c1.4,0.2,2.6,0.1,3.6-0.4c1-0.5,1.7-1.2,2.2-2.3c0.6-1.2,0.5-2.5-0.2-3.6
	c-0.7-1.2-1.9-2.2-3.7-3c-1.2-0.6-2.4-0.9-3.5-1.1c-1.1-0.2-2.2-0.1-3.4,0.1l0.5,4C345.5,147.3,346.8,147.4,347.9,147.9z"/>
<path d="M372.6,162.8c-1.4-0.6-2.7-0.7-3.9-0.1c-1.2,0.6-2.2,1.7-3,3.5c-0.8,1.7-1,3.2-0.6,4.5c0.3,1.3,1.2,2.3,2.6,2.9
	c1.4,0.7,2.8,0.7,4,0.1c1.2-0.6,2.2-1.8,3-3.5c0.8-1.7,0.9-3.2,0.6-4.5C374.8,164.4,373.9,163.4,372.6,162.8z M371.7,166.7
	c-0.1,0.5-0.3,1.2-0.7,2c-0.4,0.8-0.7,1.4-1,1.8c-0.3,0.4-0.7,0.5-1,0.4c-0.3-0.1-0.4-0.4-0.4-0.9c0-0.5,0.3-1.2,0.7-2.1
	c0.4-0.9,0.8-1.5,1.1-1.9c0.3-0.3,0.7-0.4,1-0.3C371.6,165.9,371.8,166.2,371.7,166.7z"/>
<polygon points="358.1,169.1 375.5,156.1 372,154.5 354.6,167.5 "/>
<path d="M357.6,160.8c1.4,0.7,2.8,0.7,4,0.1c1.2-0.6,2.2-1.8,3-3.5c0.8-1.7,0.9-3.2,0.6-4.5c-0.4-1.3-1.3-2.3-2.6-2.9
	c-1.4-0.6-2.7-0.7-3.9-0.1c-1.2,0.6-2.2,1.7-3,3.5c-0.8,1.7-1,3.2-0.6,4.5C355.4,159.2,356.2,160.2,357.6,160.8z M359.2,155
	c0.4-0.9,0.8-1.5,1.1-1.9c0.3-0.3,0.7-0.4,1-0.3c0.3,0.1,0.4,0.4,0.4,0.9c0,0.5-0.3,1.2-0.7,2.1c-0.4,0.9-0.8,1.6-1.1,1.9
	c-0.3,0.3-0.6,0.4-0.9,0.3c-0.3-0.1-0.4-0.4-0.4-0.9C358.5,156.6,358.8,155.9,359.2,155z"/>
</svg>
