<?xml version="1.0" encoding="utf-8"?>
<!-- Generator: Adobe Illustrator 21.1.0, SVG Export Plug-In . SVG Version: 6.00 Build 0)  -->
<svg version="1.1" id="Layer_1" xmlns="http://www.w3.org/2000/svg" xmlns:xlink="http://www.w3.org/1999/xlink" x="0px" y="0px"
	 viewBox="0 0 129.8 22" style="enable-background:new 0 0 129.8 22;" xml:space="preserve">
<style type="text/css">
	.st0{fill:#FFFFFF;}
</style>
<title>logo-coloured</title>
<desc>Created with Sketch.</desc>
<g id="Symbols">
	<g id="logo-coloured">
		<path id="Shape" d="M26.2,8.3V0h3.6v20.8h-3.6v-1.5c-0.9,1.1-2.2,1.9-4.1,1.9c-3.8,0-6.6-3.1-6.6-7.4c0-4.2,2.8-7.4,6.6-7.4
			C24,6.4,25.3,7.1,26.2,8.3z M19.3,13.8c0,2.1,1.4,3.9,3.5,3.9c2.1,0,3.5-1.6,3.5-3.9c0-2.2-1.4-3.9-3.5-3.9
			C20.7,9.9,19.3,11.6,19.3,13.8z M69,11.9v8.9h-3.6v-7.7c0-2-1-3.1-2.7-3.1c-1.6,0-2.9,1-2.9,3.1v7.7h-3.7v-7.7c0-2-1-3.1-2.7-3.1
			c-1.6,0-2.9,1-2.9,3.1v7.7h-3.7v-14h3.6v1.6c1-1.5,2.5-2,4-2c2,0,3.6,0.9,4.5,2.4c1.1-1.8,2.8-2.4,4.6-2.4
			C66.8,6.4,69,8.6,69,11.9z M76.2,9.5c-1.4,0-2.1,0.5-2.1,1.3c0,0.8,1,1,2.2,1.2l1.2,0.2c3,0.5,4.6,1.8,4.6,4.2
			c0,2.9-2.3,4.8-6.3,4.8c-1.9,0-4.3-0.4-6.1-1.6l1.4-2.9c1.2,0.8,2.6,1.4,4.6,1.4c1.7,0,2.5-0.5,2.5-1.3c0-0.7-0.7-1-2.3-1.3
			l-1.1-0.2c-3.1-0.5-4.7-1.9-4.7-4.2c0-2.9,2.2-4.6,5.8-4.6c2.2,0,3.9,0.4,5.7,1.3l-1.2,2.9C79.5,10.2,77.8,9.5,76.2,9.5z
			 M41.7,6.8v1.5c-0.9-1.1-2.2-1.9-4.1-1.9c-3.8,0-6.6,3.1-6.6,7.4c0,2.6,1.1,4.8,2.8,6.1c0.5,0,0.9-0.1,0.9-0.1
			c1.3-0.3,2.3-0.7,3-1.3c0.3-0.2,0.5-0.5,0.6-0.8h-0.1c-2.1,0-3.5-1.7-3.5-3.9c0-2.1,1.4-3.9,3.5-3.9c2.1,0,3.5,1.6,3.5,3.9
			c0,0.1,0,0.3,0,0.4l0,0c0,0.9-0.3,1.6-0.6,2.3c-0.4,0.8-0.9,1.5-1.6,2.1c-0.6,0.6-1.4,1-2.3,1.3c-0.9,0.3-1.8,0.5-2.7,0.5
			c0.9,0.5,1.9,0.8,3,0.8c1.9,0,3.2-0.8,4.1-1.9v1.5h3.6v-14H41.7z M10.8,6.8v1.5C9.7,8.6,8.6,9.1,7.8,9.9c1.4,0,2.6,1.2,3,2.5
			c0.4,1.2,0.3,2.7-0.5,3.7c-0.7,1-2,1.7-3.3,1.5c-1.6-0.2-2.9-1.8-3-3.5s0.6-3.3,1.9-4.5s2.8-1.7,4.4-2C9,6.6,7.2,6.2,5.5,6.5
			C3.9,6.9,2.4,7.9,1.5,9.3s-1.4,3.1-1.3,4.9c0.1,2.3,1.2,4.8,3.2,6c1.2,0.7,2.6,1.1,4,1c1.3-0.2,2.6-0.9,3.5-1.8v1.5h3.6v-14
			C13.2,6.8,12.1,6.8,10.8,6.8z"/>
		<g id="Group" transform="translate(87.277029, 6.555959)">
			<polygon id="Shape_1_" class="st0" points="0.3,14.2 0.3,0.2 3.6,0.2 3.6,10.7 9.5,10.7 8.3,14.2 			"/>
			<polygon id="Shape_2_" class="st0" points="33.4,14.2 31.3,6 29.3,14.2 25.4,14.2 20.8,0.2 24.2,0.2 27.3,9.6 29.5,0.2 33.1,0.2 
				35.3,9.6 38.7,0.2 42.1,0.2 37.3,14.2 			"/>
			<path id="Shape_3_" class="st0" d="M19.6,14.2l-0.8-2.7h-4.6l-0.8,2.7H9.9l4.7-14h3.9l4.7,14H19.6z M17.7,8.2L16.5,4l-1.3,4.1
				H17.7z"/>
		</g>
	</g>
</g>
</svg>
