<?xml version="1.0" encoding="utf-8"?>
<!-- Generator: Adobe Illustrator 21.1.0, SVG Export Plug-In . SVG Version: 6.00 Build 0)  -->
<svg version="1.1" id="Layer_1" xmlns="http://www.w3.org/2000/svg" xmlns:xlink="http://www.w3.org/1999/xlink" x="0px" y="0px"
	 viewBox="0 0 512 512" style="enable-background:new 0 0 512 512;" xml:space="preserve">
<style type="text/css">
	.st0{fill:#FFFFFF;stroke:#00AEEF;stroke-width:6;stroke-miterlimit:10;}
	.st1{fill:#FFFFFF;stroke:#000000;stroke-width:6;stroke-linecap:round;stroke-linejoin:round;stroke-miterlimit:10;}
	.st2{fill:#FFFFFF;stroke:#00AEEF;stroke-width:6.2963;stroke-miterlimit:10;}
	.st3{fill:#FFFFFF;stroke:#000000;stroke-width:6.296;stroke-linecap:round;stroke-linejoin:round;stroke-miterlimit:10;}
	.st4{fill:#00AEEF;}
	.st5{fill:none;}
	.st6{fill:none;stroke:#FFFFFF;stroke-width:0;stroke-linecap:round;stroke-linejoin:round;}
	.st7{fill:none;stroke:#00AEEF;stroke-width:0;stroke-linecap:round;stroke-linejoin:round;}
	.st8{fill:#FFFFFF;stroke:#000000;stroke-width:6;stroke-miterlimit:10;}
	.st9{fill:none;stroke:#000000;stroke-width:6;stroke-miterlimit:10;}
	.st10{fill:#00AEEF;stroke:#000000;stroke-width:6;stroke-miterlimit:10;}
	.st11{fill:none;stroke:#000000;stroke-width:6;stroke-linecap:round;stroke-linejoin:round;stroke-miterlimit:10;}
	.st12{fill:#00AEEF;stroke:#000000;stroke-width:6;stroke-linecap:round;stroke-linejoin:round;stroke-miterlimit:10;}
	.st13{fill:#FFFFFF;}
</style>
<circle class="st2" cx="256" cy="256" r="235.3"/>
<line class="st3" x1="25.5" y1="407.8" x2="486.5" y2="407.8"/>
<path class="st5" d="M418.8,293.8c2.7-2.6,3.7-5,3.1-7c-1-3.1-8.3-8.9-23.9-12.4v35.2C406.5,303.7,414.4,298.2,418.8,293.8z"/>
<path class="st5" d="M354.4,284.9c-0.6,2,0.4,4.3,3.1,7c4.4,4.3,11.9,9.9,19.8,15.7c0.4,0.3,0.7,0.5,1.1,0.8v-35.9
	C368.6,274.8,356.2,279.4,354.4,284.9z"/>
<path class="st5" d="M313.5,248.7c-3.9,18.8-15.4,34.9-31.2,44.7c5.2,0.7,9.5,1.7,13.1,2.8h26.7c22.5,0,42.3,11.7,53.7,29.3
	c0.9-0.7,1.8-1.4,2.7-2v-7.7c-1.6-1.2-3.1-2.3-4.7-3.4c-8.1-6-15.8-11.6-20.5-16.3c-4.4-4.3-5.9-8.7-4.5-13c1.7-5.4,8-10,18.8-13.7
	c4.2-1.4,8.1-2.4,10.9-3.1v-12.8C356.4,259.4,330.6,254.7,313.5,248.7z"/>
<circle cx="224.6" cy="210.8" r="6.5"/>
<circle cx="274.5" cy="209.6" r="6.5"/>
<path d="M250.5,264.5c5.2,0,10.6-1.8,15.2-6.3c1.2-1.2,1.2-3.1,0-4.2c-1.2-1.2-3.1-1.2-4.2,0c-7.8,7.8-18.5,4-22.4,0.3
	c-1.2-1.1-3.1-1.1-4.2,0.1c-1.1,1.2-1.1,3.1,0.1,4.2C238.4,262,244.3,264.5,250.5,264.5z"/>
<polygon points="245.7,144.1 230.7,144.1 230.7,150.1 245.7,150.1 245.7,165.1 251.7,165.1 251.7,150.1 266.7,150.1 266.7,144.1 
	251.7,144.1 251.7,129.1 245.7,129.1 "/>
<path class="st4" d="M388.6,323.5c-1.4,1-2.8,2-4.1,3v73.8c0,2.1,1.7,3.8,3.8,3.8s3.8-1.7,3.8-3.8v-74.1
	C390.8,325.3,389.7,324.4,388.6,323.5z"/>
<path class="st4" d="M384.4,251.6v61.2c1.4,1.1,2.9,2.2,4.3,3.2c1.1-0.8,2.2-1.5,3.2-2.3v-61.8c-1.4-0.5-2.8-1.1-4.2-1.7
	C386.6,250.7,385.5,251.2,384.4,251.6z"/>
<path class="st4" d="M382.4,204.9l2.1,0.7v16h7.5v-16l2.1-0.7c7.5-2.5,12.6-9.5,12.6-17.5c0-10.1-8.3-18.4-18.4-18.4
	s-18.4,8.3-18.4,18.4C369.8,195.3,374.8,202.4,382.4,204.9z"/>
<path class="st4" d="M474.5,236.7c-7.7-1.7-17.2-8.6-26.5-15.3c-8.6-6.2-19.3-13.9-23.6-13c-0.4,0.1-0.9,0.3-1.3,1.1
	c-7.8,14.1-29,17.8-29.9,17.9l-0.5,0l-9.7,0c-0.9-0.2-22.2-3.9-29.9-17.9c-0.4-0.8-0.9-1-1.3-1.1c-4.3-1-15,6.8-23.6,13
	c-9.3,6.7-18.9,13.7-26.6,15.3c10.3,7,54.7,21.8,84.9,7.6l0.6-0.3h1.6l0.6,0.3C419.4,258.5,464.1,243.7,474.5,236.7z"/>
<path d="M477,231.1c-6.4-0.7-16.6-8-25.6-14.5C440,208.2,430,201,423,202.6c-2.3,0.5-4.1,1.9-5.3,4.1c-4.1,7.5-13.6,11.5-19.8,13.4
	v-10.3c8.8-3.9,14.6-12.6,14.6-22.4c0-13.5-10.9-24.4-24.4-24.4s-24.4,10.9-24.4,24.4c0,9.8,5.8,18.5,14.6,22.4v10.5
	c-6.2-1.9-16-5.9-20.2-13.6c-1.2-2.2-3-3.6-5.3-4.1c-7-1.6-16.9,5.6-28.4,13.9c-3.1,2.3-6.4,4.6-9.6,6.8v-39.9c0-0.7,0-1.5-0.1-2.2
	h1.1V114H175.9v67.2h1.3c0,0.7-0.1,1.5-0.1,2.2v51.5c0,2.6,0.2,5.2,0.5,7.8h-4.6l-21.2-15l-10.3,19.1l-16-96.3l-18.2,112.5
	l-14.9-61.8l-15.5,43.3H32.3v6H81L91.2,222l17.2,71.2l17.1-105.8l12.9,77.6l15.4-28.6l17.3,12.2h7.5c4.2,20.8,17.9,38.2,36.3,47.6
	h-51.2c-35.2,0-63.9,28.7-63.9,63.9V411H386v-1.2c0.7,0.2,1.4,0.3,2.2,0.3c5.4,0,9.8-4.4,9.8-9.8v-69c8.4,7.5,14.6,15,14.5,21.1
	c-0.1,3.1-2,5.9-5.8,8.4l3.3,5c5.5-3.6,8.4-8,8.6-13.2c0.3-9.4-8.8-19.4-20.5-29.2v-6.5c0.6-0.4,1.2-0.9,1.8-1.3
	c9.3-6.5,18.2-12.5,23.2-17.5c4.4-4.3,5.9-8.7,4.5-13c-1.7-5.4-8-10-18.8-13.7c-4.1-1.4-8-2.4-10.8-3v-14.6
	c6.9,1.8,14.2,2.5,21.4,2.5c27.1,0,53.7-10.3,60.5-16.2c2.2-1.9,2.9-3.8,2.3-5.7C481.6,232.5,479.9,231.4,477,231.1z M392,313.8
	c-1.1,0.7-2.2,1.5-3.2,2.3c-1.4-1.1-2.9-2.2-4.3-3.2v-61.2c1.1-0.4,2.2-0.9,3.3-1.3c1.4,0.6,2.8,1.2,4.2,1.7V313.8z M388.2,404.1
	c-2.1,0-3.8-1.7-3.8-3.8v-73.8c1.4-1,2.7-2,4.1-3c1.1,0.9,2.3,1.8,3.4,2.7v74.1C392,402.4,390.3,404.1,388.2,404.1z M105.6,360.1
	c0-31.9,26-57.9,57.9-57.9h41.6c-2.5,1.8-4.6,3.7-6.3,5.9c-5.6,7.1-5.7,14.4-5.4,17.8c-19.3,0.7-34.7,16.7-34.7,36.1v25
	c0,1.7,1.3,3,3,3s3-1.3,3-3v-25c0-16.6,13.5-30.1,30.1-30.1s30.1,13.5,30.1,30.1v25c0,1.7,1.3,3,3,3s3-1.3,3-3v-25
	c0-18.4-13.8-33.5-31.5-35.8c-0.2-1.2-1.1-7.8,4-14.3c2.6-3.3,7.1-6.9,14.8-9.7h13.3c4.6,1,9.5,1.5,14.4,1.5s9.8-0.5,14.4-1.5h34.1
	c1.6,0.6,3.1,1.2,4.4,1.9c7,3.7,8.9,8.8,10.3,17.6c0.5,3.4,0.5,13.4,0.5,19.4l0,2.9c-6.9,1.2-12.2,7.2-12.2,14.5
	c0,8.1,6.6,14.7,14.7,14.7c8.1,0,14.7-6.6,14.7-14.7c0-6.9-4.8-12.7-11.2-14.3c0-0.1,0-0.1,0-0.2l0-2.9c0-8.7,0-16.8-0.6-20.3
	c-1.2-7.5-2.8-13.8-8.3-18.6h15.3c20.6,0,38.7,10.8,49,27.1c-10.1,8.5-17.5,17.1-17.4,25.2c0.1,5,2.8,9.3,8.2,12.8l3.3-5
	c-3.6-2.4-5.4-4.9-5.5-7.8c-0.1-5.7,6-12.7,14.4-19.8c1.9,3.9,3.4,7.9,4.4,12.2v53.5c0,1.7,0.4,3.3,1.2,4.7h-274V360.1z
	 M183.1,234.9v-51.5c0-0.7,0-1.5,0.1-2.2h125.6c0,0.7,0.1,1.5,0.1,2.2v43.7c-3.7,2.2-7.2,3.7-9.9,4c-2.8,0.3-4.6,1.4-5.2,3.3
	c-0.6,1.9,0.2,3.8,2.4,5.7c2.1,1.9,6.2,4.1,11.6,6.4c-5.5,29.1-31.1,51.2-61.8,51.2C211.3,297.8,183.1,269.5,183.1,234.9z M310,120
	v55.2H181.9V120H310z M367.5,269.4c-10.8,3.7-17.1,8.3-18.8,13.7c-1.4,4.3,0.2,8.7,4.5,13c4.7,4.6,12.4,10.3,20.5,16.3
	c1.5,1.1,3.1,2.3,4.7,3.4v7.7c-0.9,0.7-1.8,1.4-2.7,2c-11.4-17.6-31.2-29.3-53.7-29.3h-26.7c-3.6-1.2-7.9-2.1-13.1-2.8
	c15.8-9.8,27.4-25.9,31.2-44.7c17.1,6,42.9,10.7,64.9,4.8v12.8C375.6,267,371.6,268,367.5,269.4z M378.4,272.5v35.9
	c-0.4-0.3-0.7-0.5-1.1-0.8c-8-5.9-15.5-11.4-19.8-15.7c-2.7-2.6-3.7-5-3.1-7C356.2,279.4,368.6,274.8,378.4,272.5z M312.1,349.7
	c4.8,0,8.7,3.9,8.7,8.7c0,4.8-3.9,8.7-8.7,8.7c-4.8,0-8.7-3.9-8.7-8.7C303.4,353.7,307.3,349.7,312.1,349.7z M389.1,244.3l-0.6-0.3
	h-1.6l-0.6,0.3c-30.2,14.2-74.6-0.6-84.9-7.6c7.7-1.7,17.3-8.6,26.6-15.3c8.6-6.2,19.3-13.9,23.6-13c0.4,0.1,0.9,0.3,1.3,1.1
	c7.8,14.1,29,17.8,29.9,17.9l9.7,0l0.5,0c0.9-0.2,22.2-3.9,29.9-17.9c0.4-0.8,0.9-1,1.3-1.1c4.3-1,15,6.8,23.6,13
	c9.3,6.7,18.9,13.6,26.5,15.3C464.1,243.7,419.4,258.5,389.1,244.3z M388.2,169c10.1,0,18.4,8.3,18.4,18.4c0,7.9-5.1,14.9-12.6,17.5
	l-2.1,0.7v16h-7.5v-16l-2.1-0.7c-7.5-2.5-12.6-9.5-12.6-17.5C369.8,177.3,378,169,388.2,169z M421.8,286.9c0.6,2-0.4,4.3-3.1,7
	c-4.4,4.4-12.3,9.9-20.8,15.8v-35.2C413.5,278,420.8,283.8,421.8,286.9z"/>
</svg>
