<?xml version="1.0" encoding="utf-8"?>
<!-- Generator: Adobe Illustrator 21.1.0, SVG Export Plug-In . SVG Version: 6.00 Build 0)  -->
<svg version="1.1" id="Layer_1" xmlns="http://www.w3.org/2000/svg" xmlns:xlink="http://www.w3.org/1999/xlink" x="0px" y="0px"
	 viewBox="0 0 512 512" style="enable-background:new 0 0 512 512;" xml:space="preserve">
<style type="text/css">
	.st0{fill:#FFFFFF;stroke:#00AEEF;stroke-width:6;stroke-miterlimit:10;}
	.st1{fill:#FFFFFF;stroke:#000000;stroke-width:6;stroke-linecap:round;stroke-linejoin:round;stroke-miterlimit:10;}
	.st2{fill:#FFFFFF;stroke:#00AEEF;stroke-width:6.2963;stroke-miterlimit:10;}
	.st3{fill:#FFFFFF;stroke:#000000;stroke-width:6.296;stroke-linecap:round;stroke-linejoin:round;stroke-miterlimit:10;}
	.st4{fill:#00AEEF;}
	.st5{fill:none;}
	.st6{fill:none;stroke:#FFFFFF;stroke-width:0;stroke-linecap:round;stroke-linejoin:round;}
	.st7{fill:none;stroke:#00AEEF;stroke-width:0;stroke-linecap:round;stroke-linejoin:round;}
	.st8{fill:#FFFFFF;stroke:#000000;stroke-width:6;stroke-miterlimit:10;}
	.st9{fill:none;stroke:#000000;stroke-width:6;stroke-miterlimit:10;}
	.st10{fill:#00AEEF;stroke:#000000;stroke-width:6;stroke-miterlimit:10;}
	.st11{fill:none;stroke:#000000;stroke-width:6;stroke-linecap:round;stroke-linejoin:round;stroke-miterlimit:10;}
	.st12{fill:#00AEEF;stroke:#000000;stroke-width:6;stroke-linecap:round;stroke-linejoin:round;stroke-miterlimit:10;}
	.st13{fill:#FFFFFF;}
</style>
<path class="st4" d="M429.2,410.8c-2.9,3.2-5.9,6.4-8.9,9.5c-43.9,43.9-102.2,68-164.3,68s-120.4-24.2-164.3-68
	c-3.1-3.1-6-6.2-8.9-9.5h-8c4,4.7,8.2,9.3,12.7,13.7c45,45,104.9,69.8,168.5,69.8s123.5-24.8,168.5-69.8c4.4-4.4,8.6-9,12.7-13.7
	H429.2z"/>
<path class="st4" d="M47.2,358.2C31.8,326.8,23.7,292,23.7,256c0-62.1,24.2-120.4,68-164.3s102.2-68,164.3-68s120.4,24.2,164.3,68
	c14.2,14.2,26.3,29.8,36.2,46.6h5.1v9.2c17.5,33,26.8,70,26.8,108.5s-9.3,75.4-26.8,108.5v12.3c21.4-36.2,32.8-77.6,32.8-120.7
	c0-63.7-24.8-123.5-69.8-168.5c-45-45-104.9-69.8-168.5-69.8S132.5,42.5,87.5,87.5S17.7,192.3,17.7,256c0,38.1,8.9,74.8,25.6,107.7
	C44.5,361.8,45.8,360,47.2,358.2z"/>
<circle cx="114.4" cy="280.3" r="4.2"/>
<circle cx="146.2" cy="279.6" r="4.2"/>
<path d="M131,315.8c3.6,0,7.3-1.2,10.4-4.3c1.2-1.2,1.2-3.1,0-4.2s-3.1-1.2-4.2,0c-4.4,4.4-10.6,2.2-12.8,0.2
	c-1.2-1.1-3.1-1.1-4.2,0.1c-1.1,1.2-1.1,3.1,0.1,4.2C122.6,314,126.7,315.8,131,315.8z"/>
<circle cx="229" cy="278.2" r="4.3"/>
<circle cx="261.6" cy="277.4" r="4.3"/>
<path d="M246,314.4c3.6,0,7.5-1.2,10.6-4.4c1.2-1.2,1.2-3.1,0-4.2c-1.2-1.2-3.1-1.2-4.2,0c-4.6,4.6-11,2.3-13.2,0.2
	c-1.2-1.1-3.1-1.1-4.2,0.1c-1.1,1.2-1.1,3.1,0.1,4.2C237.5,312.6,241.6,314.4,246,314.4z"/>
<path d="M461.6,364.5V147.5v-9.2h-5.1H307.8v205.9c-10.3-7.1-22.7-11.2-36.1-11.2h-4.3c13-8.1,21.7-22.6,21.7-39.1v-33.6
	c0-15.1-12.3-27.4-27.4-27.4h-37.4c-15.1,0-27.4,12.3-27.4,27.4V294c0,16.5,8.7,30.9,21.7,39.1h-8.4c-10.3,0-20,2.5-28.6,6.8
	c-8.2-3.8-17.3-6-27-6h-2.6c12.6-8,21-22.1,21-38.1v-32.9c0-14.8-12-26.8-26.8-26.8h-36.5C95,236,83,248,83,262.8v32.9
	c0,16,8.4,30.1,21,38.1h-6.6c-20.3,0-38.4,9.5-50.1,24.4c-1.4,1.8-2.7,3.6-3.9,5.6c-6.2,9.9-9.8,21.5-9.8,34v7.1h-8
	c-1.7,0-3,1.3-3,3s1.3,3,3,3h49.3h8h346.4h8h49.3c1.7,0,3-1.3,3-3s-1.3-3-3-3h-24.9v-28.1V364.5z M39.5,397.7
	c0-31.9,26-57.9,57.9-57.9H108v12.5c0,9.8,8,17.8,17.8,17.8h4.2c9.8,0,17.8-8,17.8-17.8v-12.5h6.8c7.2,0,14.1,1.3,20.5,3.7
	c-17.3,11.4-28.8,31.1-28.8,53.4v6.4H39.5V397.7z M89,262.8c0-11.5,9.3-20.8,20.8-20.8h36.5c11.5,0,20.8,9.3,20.8,20.8v32.9
	c0,21.6-17.5,39.1-39.1,39.1h0c-21.6,0-39.1-17.5-39.1-39.1V262.8z M114,341.6h27.8v10.7c0,6.5-5.3,11.8-11.8,11.8h-4.2
	c-6.5,0-11.8-5.3-11.8-11.8V341.6z M202.9,260.3c0-11.8,9.6-21.4,21.4-21.4h37.4c11.8,0,21.4,9.6,21.4,21.4V294
	c0,22.1-18,40.1-40.1,40.1s-40.1-18-40.1-40.1V260.3z M256.6,353.2L250,358h-12.3l-6.6-14.8H256.6z M250,364.8l8.5,38.7h-29.4
	l8.5-38.7H250z M360.3,355.9h49.9v47.8h-49.9V355.9z M307.8,404.1h-42.9l-9.6-43.3l9.8-21.8h6.6c13.6,0,26.2,4.8,36.1,12.7V404.1z
	 M222.7,339l9.8,21.8l-9.6,43.3h-70.6v-7.2c0-31.9,26-57.9,57.9-57.9H222.7z M416.2,403.2v-53.3h-61.9v53.3h-40.5V144.4h141.8v258.9
	H416.2z"/>
<path d="M338.6,223.1h36.9v-39.1h-36.9V223.1z M344.6,190.1h24.9v27.1h-24.9V190.1z"/>
<path d="M430.5,184.1h-36.9v39.1h36.9V184.1z M424.5,217.1h-24.9v-27.1h24.9V217.1z"/>
<path d="M338.6,276.9h36.9v-39.1h-36.9V276.9z M344.6,243.8h24.9v27.1h-24.9V243.8z"/>
<path d="M393.9,276.9h36.9v-39.1h-36.9V276.9z M399.9,243.8h24.9v27.1h-24.9V243.8z"/>
<path d="M338.6,330.7h36.9v-39.1h-36.9V330.7z M344.6,297.6h24.9v27.1h-24.9V297.6z"/>
<path d="M393.9,330.7h36.9v-39.1h-36.9V330.7z M399.9,297.6h24.9v27.1h-24.9V297.6z"/>
<path class="st4" d="M237.6,177.6c4.9-6.1,9.3-13.1,13.2-21c3.3-6.7,6-13.6,8.1-20.7H235c-3.2,10.9-7,20-11.4,27.1l-2,3.2
	l-32.5-31.7l3.4-2c9.3-5.4,16.1-11.1,20.2-16.9c4-5.7,6-12,6-18.9c0-8.3-3.1-14.7-9.4-19.6c-6.5-5-15.4-7.6-26.4-7.6
	c-11.6,0-20.9,2.7-27.7,8.2c-6.7,5.3-9.9,12.2-9.9,20.9c0,5.4,1,10.5,3,15.1c2,4.7,5.3,9.6,9.8,14.8l2.4,2.8l-3.2,1.8
	c-8.8,5-15.1,10.5-18.6,16.1c-3.5,5.6-5.3,12.5-5.3,20.6c0,11.2,4.1,19.8,12.4,26.4c8.5,6.6,20.2,10,34.9,10
	c14.5,0,27.8-4.1,39.3-12.1l2-1.4l11.8,11.6h27.2l-25.2-24.6L237.6,177.6z M170.9,89.7c3-2.5,7-3.7,11.9-3.7c4.3,0,7.9,1.2,10.8,3.6
	c3,2.5,4.5,6,4.5,10.2c0,4.7-1.8,8.9-5.2,12.4c-3.1,3.1-7.5,6.3-13.2,9.5l-2.1,1.2l-1.6-1.8c-6.5-7.2-9.8-14.1-9.8-20.4
	C166.2,96,167.8,92.3,170.9,89.7z M205.9,181.6c-6.8,4.1-14.6,6.2-23.1,6.2c-7,0-13-1.8-17.6-5.5c-4.8-3.8-7.3-9-7.3-15.3
	c0-4.6,1.3-8.7,3.7-12.2c2.3-3.3,5.4-6.4,9.3-9.4l2.1-1.6l36.1,35.9L205.9,181.6z"/>
<path d="M256.2,159.2c4.1-8.3,7.3-16.9,9.6-25.5l1-3.8h-36.3l-0.6,2.2c-2.7,9.7-5.9,17.9-9.5,24.5L199,135.7
	c8.4-5.2,14.7-10.8,18.7-16.6c4.7-6.7,7.1-14.2,7.1-22.4c0-10.1-3.9-18.3-11.7-24.3c-7.6-5.9-17.7-8.8-30.1-8.8
	c-13,0-23.5,3.2-31.4,9.5c-8.1,6.5-12.2,15.1-12.2,25.6c0,6.3,1.2,12.1,3.5,17.5c1.9,4.4,4.8,9,8.5,13.6c-8.1,5-14,10.5-17.7,16.3
	c-4.1,6.6-6.2,14.5-6.2,23.7c0,13,5,23.5,14.7,31.1c9.5,7.5,22.5,11.3,38.6,11.3c14.9,0,28.6-4,40.6-11.8l10,9.9h44.4L244,179.2
	C248.5,173.3,252.6,166.6,256.2,159.2z M234,204.2l-11.8-11.6l-2,1.4c-11.5,8-24.7,12.1-39.3,12.1c-14.7,0-26.4-3.4-34.9-10
	c-8.4-6.5-12.4-15.2-12.4-26.4c0-8.1,1.8-15,5.3-20.6c3.5-5.7,9.8-11.1,18.6-16.1l3.2-1.8l-2.4-2.8c-4.5-5.2-7.8-10.2-9.8-14.8
	c-2-4.6-3-9.6-3-15.1c0-8.7,3.2-15.6,9.9-20.9c6.8-5.4,16.1-8.2,27.7-8.2c11,0,19.9,2.5,26.4,7.6c6.3,4.9,9.4,11.3,9.4,19.6
	c0,6.9-2,13.2-6,18.9c-4.1,5.8-10.9,11.5-20.2,16.9l-3.4,2l32.5,31.7l2-3.2c4.3-7.1,8.1-16.2,11.4-27.1h23.9c-2.1,7-4.8,14-8.1,20.7
	c-3.9,7.9-8.3,15-13.2,21l-1.7,2.1l25.2,24.6H234z"/>
<path d="M177.5,122.8l2.1-1.2c5.7-3.2,10.1-6.3,13.2-9.5c3.5-3.5,5.2-7.7,5.2-12.4c0-4.3-1.5-7.7-4.5-10.2
	c-2.8-2.4-6.4-3.6-10.8-3.6c-4.9,0-8.9,1.3-11.9,3.7c-3.1,2.6-4.7,6.3-4.7,10.9c0,6.3,3.3,13.2,9.8,20.4L177.5,122.8z M174.7,94.3
	c1.9-1.6,4.6-2.3,8.1-2.3c2.9,0,5.1,0.7,6.9,2.2c1.6,1.4,2.4,3.2,2.4,5.6c0,3.1-1.1,5.8-3.5,8.2c-2.3,2.3-5.6,4.8-9.7,7.2
	c-4.4-5.4-6.7-10.3-6.7-14.6C172.2,97.8,173,95.7,174.7,94.3z"/>
<path d="M171.1,145.4c-3.9,3-7,6.1-9.3,9.4c-2.5,3.5-3.7,7.7-3.7,12.2c0,6.4,2.4,11.5,7.3,15.3c4.6,3.6,10.5,5.5,17.6,5.5
	c8.5,0,16.3-2.1,23.1-6.2l3.3-2l-36.1-35.9L171.1,145.4z M169,177.7c-3.4-2.6-5-6.1-5-10.6c0-3.4,0.9-6.3,2.6-8.8
	c1.5-2.2,3.5-4.3,6-6.4l26.7,26.6c-5,2.3-10.6,3.5-16.5,3.5C177.2,181.8,172.5,180.4,169,177.7z"/>
</svg>
