<?xml version="1.0" encoding="utf-8"?>
<!-- Generator: Adobe Illustrator 21.1.0, SVG Export Plug-In . SVG Version: 6.00 Build 0)  -->
<svg version="1.1" id="Layer_1" xmlns="http://www.w3.org/2000/svg" xmlns:xlink="http://www.w3.org/1999/xlink" x="0px" y="0px"
	 viewBox="0 0 512 512" style="enable-background:new 0 0 512 512;" xml:space="preserve">
<style type="text/css">
	.st0{fill:#FFFFFF;stroke:#00AEEF;stroke-width:6;stroke-miterlimit:10;}
	.st1{fill:#FFFFFF;stroke:#000000;stroke-width:6;stroke-linecap:round;stroke-linejoin:round;stroke-miterlimit:10;}
	.st2{fill:#FFFFFF;stroke:#00AEEF;stroke-width:6.2963;stroke-miterlimit:10;}
	.st3{fill:#FFFFFF;stroke:#000000;stroke-width:6.296;stroke-linecap:round;stroke-linejoin:round;stroke-miterlimit:10;}
	.st4{fill:#00AEEF;}
	.st5{fill:none;}
	.st6{fill:none;stroke:#FFFFFF;stroke-width:0;stroke-linecap:round;stroke-linejoin:round;}
	.st7{fill:none;stroke:#00AEEF;stroke-width:0;stroke-linecap:round;stroke-linejoin:round;}
	.st8{fill:#FFFFFF;stroke:#000000;stroke-width:6;stroke-miterlimit:10;}
	.st9{fill:none;stroke:#000000;stroke-width:6;stroke-miterlimit:10;}
	.st10{fill:#00AEEF;stroke:#000000;stroke-width:6;stroke-miterlimit:10;}
	.st11{fill:none;stroke:#000000;stroke-width:6;stroke-linecap:round;stroke-linejoin:round;stroke-miterlimit:10;}
	.st12{fill:#00AEEF;stroke:#000000;stroke-width:6;stroke-linecap:round;stroke-linejoin:round;stroke-miterlimit:10;}
	.st13{fill:#FFFFFF;}
</style>
<circle class="st2" cx="258.7" cy="254.7" r="235.3"/>
<line class="st3" x1="25.5" y1="407.8" x2="486.5" y2="407.8"/>
<path d="M85.5,208.7c0,36.4,16.5,44,30.4,44c23.1,0,41.9-18.8,41.9-41.9c0-21.2-4.4-35.1-13.4-42.6c-6.8-5.6-16.1-7.4-27.5-5.1
	C96.4,167.1,85.5,182.8,85.5,208.7z M125.9,168.2c5.9,0,10.9,1.6,14.6,4.7c7.6,6.3,11.3,18.7,11.3,38c0,19.8-16.1,35.9-35.9,35.9
	c-16.2,0-24.4-12.8-24.4-38c0-23,8.9-36.3,26.4-39.7C120.8,168.5,123.4,168.2,125.9,168.2z"/>
<rect x="66.4" y="369.6" width="6" height="38.2"/>
<path d="M370.7,353.8c0,6.5-1.9,9.8-5.8,9.8h-57.1v41.2h-24.5V334h22.8v-32.8h-3h-3V328h-61.8v-20.7h45.3v-41.8h19.5h0v-0.1h19.6
	c11.7,0,21.2,10.5,21.2,23.5v74.6h6v-74.6c0-16.3-12.2-29.5-27.2-29.5h-45.4v41.9h-44.9v26.9h-39.3v-26.9h-46v-41.9h-46.4
	c-15.3,0-27.8,13.2-27.8,29.5v74.6h6v-74.6c0-13,9.8-23.5,21.8-23.5h20v0.1h0h20v41.8h46.3V328h-63.3v-26.8h-3h-3V334h23.4v70.8
	h-25.3v-41.2H65.1c-4.9,0-8.9-4.4-8.9-9.8v-91h-6v91c0,8.7,6.7,15.8,14.9,15.8h44.7v41.2h37.3v-76.6h128.1V334h2.1v76.8h36.5v-41.2
	h51.1c7.4,0,11.8-5.9,11.8-15.8v-91h-6V353.8z"/>
<rect x="354.1" y="369.6" width="6" height="38.2"/>
<circle cx="137.9" cy="199.4" r="3.9"/>
<circle cx="290.1" cy="206.9" r="3.9"/>
<path d="M281.5,175.4l-0.2,0.4l-2,8.1c-3.8,10-5.4,22.3-5.4,33.8c0,22.6,12,35.1,33.7,35.1c22.4,0,35.8-22.4,35.8-44
	c0-6.2-1.4-12.3-3.9-17.9c-0.5-2-3.7-12.8-12.1-18.2l0.2-0.2l-1.7-0.7c-0.9-0.5-1.8-0.9-2.8-1.2l-0.3-0.1
	c-6.1-4.3-13.1-6.8-20.3-6.8c-4.7,0-8.7,1.4-12.1,3.9C286.9,169.3,283.6,171.7,281.5,175.4z M337.4,208.8c0,18.7-11.1,38-29.8,38
	c-18.4,0-27.7-9.8-27.7-29.1c0-6.2,0.6-13.8,2.1-21.2c1.4-0.6,3.8-1.6,6.8-2.9l45.9,1.3C336.4,199.3,337.4,204,337.4,208.8z
	 M301.9,187.9l20.4-11.2c5.4,2.3,8.6,8.2,10.2,12.1L301.9,187.9z M307.1,170.3l8.1,3.4l-12.4,6.8c-6.3,3-13.2,6.1-18.5,8.4l2.6-11
	C291.4,170.8,304.3,170.3,307.1,170.3z"/>
<polygon class="st4" points="390.3,317.6 467.6,309.3 460,240.7 382.7,249 "/>
<path class="st4" d="M379,215.7l3,27.4l77.3-8.3l-3-27.4c-1.7-15.6-14.2-27.4-28.4-27.4c-0.9,0-1.8,0-2.8,0.1l-21.8,2.3
	c-7,0.8-13.3,4.3-17.9,10C380.4,198.8,378.1,207.2,379,215.7z M433.5,353.6c2.6-0.3,4.9,1.8,5.2,4.5c0.3,2.8-1.5,5.3-4.1,5.5
	c-2.6,0.3-4.9-1.8-5.2-4.5S430.9,353.9,433.5,353.6z M416.2,198.3c2.6-0.3,4.9,1.8,5.2,4.5c0.3,2.8-1.5,5.3-4.1,5.5
	c-2.6,0.3-4.9-1.8-5.2-4.5S413.6,198.6,416.2,198.3z M400.4,215.4c2.6-0.3,4.9,1.8,5.2,4.5c0.3,2.8-1.5,5.3-4.1,5.5
	c-2.6,0.3-4.9-1.8-5.2-4.5C396,218.1,397.8,215.6,400.4,215.4z"/>
<path class="st4" d="M471.9,348.2l-3.6-32.9l-77.3,8.3l3.6,32.9c1.8,16.7,15.8,28.9,31.1,27.2l21.8-2.3c7-0.8,13.3-4.3,17.9-10
	C470.5,365,472.9,356.6,471.9,348.2z M414.9,345.6c-2.6,0.3-4.9-1.8-5.2-4.5s1.5-5.3,4.1-5.5c2.6-0.3,4.9,1.8,5.2,4.5
	C419.3,342.9,417.4,345.3,414.9,345.6z M432.1,359.9c-2.6,0.3-4.9-1.8-5.2-4.5s1.5-5.3,4.1-5.5c2.6-0.3,4.9,1.8,5.2,4.5
	C436.6,357.1,434.7,359.6,432.1,359.9z M447.9,342.8c-2.6,0.3-4.9-1.8-5.2-4.5s1.5-5.3,4.1-5.5c2.6-0.3,4.9,1.8,5.2,4.5
	C452.4,340.1,450.5,342.6,447.9,342.8z"/>
<path d="M462.3,206.7c-2.2-19.9-19.1-34.5-37.7-32.5l-21.8,2.3c-8.6,0.9-16.4,5.3-21.9,12.2c-6.1,7.6-8.9,17.6-7.8,27.6l15.6,140.8
	c2.1,18.7,17.1,32.7,34.3,32.7c1.1,0,2.3-0.1,3.4-0.2l21.8-2.3c8.6-0.9,16.4-5.3,21.9-12.2c6.1-7.6,8.9-17.6,7.8-27.6L462.3,206.7z
	 M447.5,381.3l-21.8,2.3c-15.3,1.6-29.3-10.6-31.1-27.2l-3.6-32.9l77.3-8.3l3.6,32.9c0.9,8.4-1.4,16.9-6.5,23.2
	C460.8,377,454.5,380.6,447.5,381.3z M403.4,182.5l21.8-2.3c0.9-0.1,1.9-0.1,2.8-0.1c14.2,0,26.6,11.7,28.4,27.4l3,27.4L382,243
	l-3-27.4c-0.9-8.4,1.4-16.9,6.5-23.2C390.1,186.8,396.4,183.2,403.4,182.5z M467.6,309.3l-77.3,8.3l-7.6-68.6l77.3-8.3L467.6,309.3z
	"/>
<path d="M401.5,225.5c2.6-0.3,4.4-2.8,4.1-5.5c-0.3-2.8-2.7-4.8-5.2-4.5c-2.6,0.3-4.4,2.8-4.1,5.5
	C396.6,223.7,399,225.7,401.5,225.5z"/>
<path d="M417.4,208.4c2.6-0.3,4.4-2.8,4.1-5.5c-0.3-2.8-2.7-4.8-5.2-4.5c-2.6,0.3-4.4,2.8-4.1,5.5S414.8,208.7,417.4,208.4z"/>
<path d="M434.6,222.7c2.6-0.3,4.4-2.8,4.1-5.5c-0.3-2.8-2.7-4.8-5.2-4.5c-2.6,0.3-4.4,2.8-4.1,5.5S432,222.9,434.6,222.7z"/>
<path d="M446.8,332.7c-2.6,0.3-4.4,2.8-4.1,5.5s2.7,4.8,5.2,4.5c2.6-0.3,4.4-2.8,4.1-5.5C451.8,334.5,449.4,332.5,446.8,332.7z"/>
<path d="M431,349.8c-2.6,0.3-4.4,2.8-4.1,5.5s2.7,4.8,5.2,4.5c2.6-0.3,4.4-2.8,4.1-5.5C435.9,351.6,433.6,349.5,431,349.8z"/>
<path d="M413.7,335.5c-2.6,0.3-4.4,2.8-4.1,5.5s2.7,4.8,5.2,4.5c2.6-0.3,4.4-2.8,4.1-5.5C418.7,337.3,416.3,335.3,413.7,335.5z"/>
<path d="M161.5,109.1v35.7c0,11.1,9,20.1,20.1,20.1h4.9v18.8l26.5-18.8h44.3c11.1,0,20.1-9,20.1-20.1v-35.7c0-11.1-9-20.1-20.1-20.1
	h-75.7C170.5,89,161.5,98,161.5,109.1z M271.5,109.1v35.7c0,7.8-6.3,14.1-14.1,14.1h-46.2l-18.6,13.2V159h-10.9
	c-7.8,0-14.1-6.3-14.1-14.1v-35.7c0-7.8,6.3-14.1,14.1-14.1h75.7C265.2,95,271.5,101.3,271.5,109.1z"/>
</svg>
