<?xml version="1.0" encoding="utf-8"?>
<!-- Generator: Adobe Illustrator 21.1.0, SVG Export Plug-In . SVG Version: 6.00 Build 0)  -->
<svg version="1.1" id="Layer_1" xmlns="http://www.w3.org/2000/svg" xmlns:xlink="http://www.w3.org/1999/xlink" x="0px" y="0px"
	 viewBox="0 0 512 512" style="enable-background:new 0 0 512 512;" xml:space="preserve">
<style type="text/css">
	.st0{fill:#FFFFFF;stroke:#00AEEF;stroke-width:6;stroke-miterlimit:10;}
	.st1{fill:#FFFFFF;stroke:#000000;stroke-width:6;stroke-linecap:round;stroke-linejoin:round;stroke-miterlimit:10;}
	.st2{fill:#FFFFFF;stroke:#00AEEF;stroke-width:6.2963;stroke-miterlimit:10;}
	.st3{fill:#FFFFFF;stroke:#000000;stroke-width:6.296;stroke-linecap:round;stroke-linejoin:round;stroke-miterlimit:10;}
	.st4{fill:#00AEEF;}
	.st5{fill:none;}
	.st6{fill:none;stroke:#FFFFFF;stroke-width:0;stroke-linecap:round;stroke-linejoin:round;}
	.st7{fill:none;stroke:#00AEEF;stroke-width:0;stroke-linecap:round;stroke-linejoin:round;}
	.st8{fill:#FFFFFF;stroke:#000000;stroke-width:6;stroke-miterlimit:10;}
	.st9{fill:none;stroke:#000000;stroke-width:6;stroke-miterlimit:10;}
	.st10{fill:#00AEEF;stroke:#000000;stroke-width:6;stroke-miterlimit:10;}
	.st11{fill:none;stroke:#000000;stroke-width:6;stroke-linecap:round;stroke-linejoin:round;stroke-miterlimit:10;}
	.st12{fill:#00AEEF;stroke:#000000;stroke-width:6;stroke-linecap:round;stroke-linejoin:round;stroke-miterlimit:10;}
	.st13{fill:#FFFFFF;}
</style>
<path class="st4" d="M424.5,87.5c-45-45-104.9-69.8-168.5-69.8S132.5,42.5,87.5,87.5c-45,45-69.8,104.9-69.8,168.5
	c0,54.8,18.4,106.7,52.2,148.8h7.8C42.7,363.1,23.7,311,23.7,256c0-62.1,24.2-120.4,68-164.3s102.2-68,164.3-68
	c36.9,0,72.4,8.5,104.4,24.7c3.4,1.1,6.6,2.8,9.3,5c18.3,10.3,35.3,23.2,50.5,38.4c43.9,43.9,68,102.2,68,164.3
	c0,55-19,107.1-53.9,148.8h7.8c33.8-42.1,52.2-94.1,52.2-148.8C494.3,192.3,469.5,132.5,424.5,87.5z"/>
<path class="st4" d="M429.2,410.8c-2.9,3.2-5.9,6.4-8.9,9.5c-43.9,43.9-102.2,68-164.3,68s-120.4-24.2-164.3-68
	c-3.1-3.1-6-6.2-8.9-9.5h-8c4,4.7,8.2,9.3,12.7,13.7c45,45,104.9,69.8,168.5,69.8s123.5-24.8,168.5-69.8c4.4-4.4,8.6-9,12.7-13.7
	H429.2z"/>
<path d="M434.4,404.8h-31.7v-37.2h-6v37.2h-40.3v-37.3h51.1c7.4,0,11.8-5.9,11.8-15.8v-91h-6v91c0,6.5-1.9,9.8-5.8,9.8h-57.1v41.2
	h-24.5V332h22.8v-32.8h-6V326h-61.8v-20.7h45.3v-41.8h19.5v-3h0v2.9h19.6c11.7,0,21.2,10.5,21.2,23.5v74.6h6v-74.6
	c0-16.3-12.2-29.5-27.2-29.5h-45.4v41.9h-44.9v26.9h-39.3v-26.9h-46v-41.9h-46.4c-15.3,0-27.8,13.2-27.8,29.5v74.6h6v-74.6
	c0-13,9.8-23.5,21.8-23.5h20v0.1h20v41.8h46.3V326h-63.3v-26.8h-6V332h23.4v70.8h-25.3v-41.2h-50.7c-4.9,0-8.9-4.4-8.9-9.8v-91h-6
	v91c0,8.7,6.7,15.8,14.9,15.8h44.7v37.3h-37.4v-37.2h-6v37.2H77.6h-7.8H25.5c-1.7,0-3,1.3-3,3s1.3,3,3,3h49.3h8h346.4h8h49.3
	c1.7,0,3-1.3,3-3s-1.3-3-3-3h-44.3H434.4z M188.1,329.2L188.1,329.2L188.1,329.2z M189.6,332.2h128.1V332h2.1v72.8H189.6V332.2z"/>
<path d="M158.5,250.8c25.4,0,42.5-13.9,43.7-35.3c1.1-19.6-2.7-33.4-11.3-40.9c-7-6.1-16.9-8-29.6-5.5
	c-23.3,4.5-33.2,15.7-33.2,37.7C128.1,243.1,144.6,250.8,158.5,250.8z M187,179.1c7.1,6.2,10.3,18.4,9.3,36.1
	c-1.2,21.9-21.1,29.6-37.7,29.6c-16.2,0-24.4-12.8-24.4-38c0-19.2,7.7-27.8,28.4-31.8c3.2-0.6,6.2-0.9,8.9-0.9
	C177.9,174,183.1,175.7,187,179.1z"/>
<path d="M350.2,250.8c22.4,0,35.8-22.4,35.8-44c0-23.2-21.7-37.1-42.8-37.1c-12.6,0-27.7,8-27.7,46.3
	C315.6,238.1,328.2,250.8,350.2,250.8z M380,206.8c0,18.7-11.1,38-29.8,38c-18.7,0-28.6-10-28.6-28.8c0-33.3,11.8-40.3,21.7-40.3
	C361.3,175.7,380,187.3,380,206.8z"/>
<circle cx="183.1" cy="202.4" r="3.9"/>
<circle cx="334.7" cy="204.9" r="3.9"/>
<path class="st4" d="M352.3,53.1H242.8c-12,0-21.8,9.8-21.8,21.8v51.6c0,12,9.8,21.8,21.8,21.8h14.4v20.3l28.7-20.3h66.4
	c12,0,21.8-9.8,21.8-21.8V74.9C374.1,62.9,364.3,53.1,352.3,53.1z"/>
<path d="M242.8,47.1c-15.3,0-27.8,12.5-27.8,27.8v51.6c0,15.3,12.5,27.8,27.8,27.8h8.4v25.9l36.6-25.9h64.5
	c15.3,0,27.8-12.5,27.8-27.8V74.9c0-8.7-4-16.5-10.3-21.6c-2.7-2.2-5.9-3.9-9.3-5c-2.6-0.8-5.3-1.2-8.1-1.2H242.8z M374.1,126.6
	c0,12-9.8,21.8-21.8,21.8h-66.4l-28.7,20.3v-20.3h-14.4c-12,0-21.8-9.8-21.8-21.8V74.9c0-12,9.8-21.8,21.8-21.8h109.5
	c12,0,21.8,9.8,21.8,21.8V126.6z"/>
</svg>
