<?xml version="1.0" encoding="utf-8"?>
<!-- Generator: Adobe Illustrator 21.1.0, SVG Export Plug-In . SVG Version: 6.00 Build 0)  -->
<svg version="1.1" id="Layer_1" xmlns="http://www.w3.org/2000/svg" xmlns:xlink="http://www.w3.org/1999/xlink" x="0px" y="0px"
	 viewBox="0 0 512 512" style="enable-background:new 0 0 512 512;" xml:space="preserve">
<style type="text/css">
	.st0{fill:#FFFFFF;stroke:#00AEEF;stroke-width:6;stroke-miterlimit:10;}
	.st1{fill:#FFFFFF;stroke:#000000;stroke-width:6;stroke-linecap:round;stroke-linejoin:round;stroke-miterlimit:10;}
	.st2{fill:#FFFFFF;stroke:#00AEEF;stroke-width:6.2963;stroke-miterlimit:10;}
	.st3{fill:#FFFFFF;stroke:#000000;stroke-width:6.296;stroke-linecap:round;stroke-linejoin:round;stroke-miterlimit:10;}
	.st4{fill:#00AEEF;}
	.st5{fill:none;}
	.st6{fill:none;stroke:#FFFFFF;stroke-width:0;stroke-linecap:round;stroke-linejoin:round;}
	.st7{fill:none;stroke:#00AEEF;stroke-width:0;stroke-linecap:round;stroke-linejoin:round;}
	.st8{fill:#FFFFFF;stroke:#000000;stroke-width:6;stroke-miterlimit:10;}
	.st9{fill:none;stroke:#000000;stroke-width:6;stroke-miterlimit:10;}
	.st10{fill:#00AEEF;stroke:#000000;stroke-width:6;stroke-miterlimit:10;}
	.st11{fill:none;stroke:#000000;stroke-width:6;stroke-linecap:round;stroke-linejoin:round;stroke-miterlimit:10;}
	.st12{fill:#00AEEF;stroke:#000000;stroke-width:6;stroke-linecap:round;stroke-linejoin:round;stroke-miterlimit:10;}
	.st13{fill:#FFFFFF;}
</style>
<path class="st4" d="M57.5,388l-15.3-26.6C46.7,370.6,51.8,379.5,57.5,388z"/>
<path class="st4" d="M73.7,404.8h3.9c-0.8-0.9-1.5-1.8-2.3-2.8L73.7,404.8z"/>
<path class="st4" d="M43.4,350.1c-13-29.2-19.8-61.2-19.8-94.1c0-62.1,24.2-120.4,68-164.3s102.2-68,164.3-68s120.4,24.2,164.3,68
	c32.1,32.1,53.6,71.8,62.9,115.1l8.8,15.2c-7.2-50.8-30.5-97.7-67.4-134.6c-45-45-104.9-69.8-168.5-69.8S132.5,42.5,87.5,87.5
	S17.7,192.3,17.7,256c0,32.9,6.6,64.8,19.2,94.1H43.4z"/>
<path class="st4" d="M486.7,228.2c1.1,9.2,1.6,18.5,1.6,27.8c0,38.4-9.3,75.4-26.7,108.4v12.3c21.3-36.2,32.7-77.6,32.7-120.7
	c0-9.4-0.6-18.7-1.6-27.8H486.7z"/>
<path class="st4" d="M429.2,410.8c-2.9,3.2-5.9,6.4-8.9,9.5c-43.9,43.9-102.2,68-164.3,68s-120.4-24.2-164.3-68
	c-3.1-3.1-6-6.2-8.9-9.5h-8c4,4.7,8.2,9.3,12.7,13.7c45,45,104.9,69.8,168.5,69.8s123.5-24.8,168.5-69.8c4.4-4.4,8.6-9,12.7-13.7
	H429.2z"/>
<polygon points="221,216.5 221,210.5 171,210.5 171,213.5 171,216.5 "/>
<polygon points="187,238.7 187,241.7 232,241.7 232,235.7 187,235.7 "/>
<polygon points="213,263.5 177,263.5 177,266.5 177,269.5 213,269.5 "/>
<polygon points="193,289.5 193,292.5 218,292.5 218,286.5 193,286.5 "/>
<path d="M367.9,295c6.9-17-1.4-36.5-18.4-43.3c-17-6.9-36.5,1.4-43.3,18.4s1.4,36.5,18.4,43.3c4.1,1.6,8.3,2.4,12.4,2.4
	C350.2,315.9,362.7,308,367.9,295z M311.7,272.4c4.3-10.6,14.5-17.1,25.3-17.1c3.4,0,6.8,0.6,10.2,2c6.8,2.7,12.1,7.9,14.9,14.6
	c2.9,6.7,2.9,14.1,0.2,20.9c-5.6,14-21.6,20.7-35.5,15.1C312.9,302.3,306.1,286.3,311.7,272.4z"/>
<polygon points="295.7,324.3 284.5,352 290,354.3 301.3,326.6 298.5,325.5 "/>
<line class="st6" x1="316.7" y1="332.8" x2="316.7" y2="332.8"/>
<polygon points="319.5,333.9 316.7,332.8 313.9,331.6 302.6,359.3 305.4,360.5 308.2,361.6 "/>
<rect x="318.4" y="352.4" transform="matrix(0.3767 -0.9264 0.9264 0.3767 -121.4376 530.3252)" width="29.9" height="6"/>
<path d="M93.8,306.8c1,7.2,4.8,13.6,10.6,17.9c4.8,3.6,10.4,5.5,16.3,5.5c1.3,0,2.6-0.1,3.9-0.3c7.2-1,13.6-4.8,17.9-10.6
	s6.2-13,5.2-20.2c-1-7.2-4.8-13.6-10.6-17.9c-5.8-4.4-13-6.2-20.2-5.2C102.1,278.2,91.7,292,93.8,306.8z M133.5,286.1
	c4.5,3.4,7.5,8.4,8.3,14c0.8,5.6-0.6,11.2-4,15.7c-3.4,4.5-8.4,7.5-14,8.3c-5.6,0.8-11.2-0.6-15.7-4c-4.5-3.4-7.5-8.4-8.3-14
	c-1.6-11.6,6.4-22.3,18-24C123.4,281.2,129,282.7,133.5,286.1z"/>
<path d="M141.4,352.1l-2.8,0.4c-0.5-2-1.3-3.5-2.5-4.5c-1.1-1-2.5-1.4-4-1.2c-1.4,0.2-2.5,0.8-3.4,1.7c-0.8,1-1.5,2.4-1.9,4.3
	l-0.3,1.5l-6.1,0.9c-0.1-1-0.1-2.1,0-3.4c0.1-1.3,0.4-2.5,0.7-3.5l-3.5,0.5c-0.5,1.9-0.6,4.1-0.3,6.9l-3.5,0.5l0.3,2.2l3.6-0.5
	c0.6,2.2,1.4,3.7,2.6,4.7c1.2,1,2.6,1.4,4.2,1.2c1.3-0.2,2.3-0.7,3.1-1.7c0.8-0.9,1.4-2.5,1.9-4.7l0.3-1.3l6-0.8
	c0.1,1.7-0.1,3.5-0.5,5.3l3.2,0.8c0.5-2.1,0.7-4.3,0.4-6.5l2.7-0.4L141.4,352.1z M125.3,358.9c-0.3,0.5-0.8,0.8-1.5,0.9
	c-1.4,0.2-2.3-0.7-2.9-2.5l5.2-0.7C125.9,357.6,125.6,358.4,125.3,358.9z M130.4,353.7c0.3-1.1,0.6-1.8,0.9-2.3
	c0.4-0.4,0.9-0.7,1.5-0.8c0.6-0.1,1.1,0.1,1.6,0.5c0.5,0.4,0.8,1,1.1,1.9L130.4,353.7z"/>
<polygon points="127.3,258.4 133.2,257.6 129.9,233.9 126.9,234.3 124,234.8 "/>
<polygon points="114.8,260.2 117.7,259.8 114.4,236.1 108.5,237 111.8,260.6 "/>
<polygon points="92.9,263.5 98.8,262.6 95.5,239 92.6,239.4 89.6,239.8 "/>
<polygon class="st4" points="381.1,222.2 410.5,222.2 410.5,404 455.6,404 455.6,222.2 485.1,222.2 433.1,132.1 "/>
<path d="M491.9,222.1l-8.8-15.2l-50.1-86.7l-39.9,69.1l-67.4-27.2L319,179l-70.2-4.9l-15.2,219.5l94.3,6.5l11.7,4.7h-262h-3.9
	l1.6-2.8l11.8-20.5l1.9,13.3l88.4-12.6l-24.9-175.1l-88.4,12.6l5.1,36h-15v94.3H43.4h-6.5h-1.3l6.5,11.3L57.5,388l9.7,16.8H25.5
	c-1.7,0-3,1.3-3,3s1.3,3,3,3h49.3h8h346.4h8h49.3c1.7,0,3-1.3,3-3s-1.3-3-3-3h-24.9v-28.1v-12.3V228.2h25.1h6h2.7L491.9,222.1z
	 M455.6,222.2V404h-45.1V222.2h-29.5l52-90.1l52,90.1H455.6z M286.3,260l-14.6,36.2c-1.8-4-2.5-8.4-2.2-12.9
	c0.5-7.3,3.8-13.9,9.3-18.7C281,262.7,283.6,261.2,286.3,260z M306.5,210.1c-1,0.1-2,0.5-2.8,1.2c-1.2,0.9-2.4,2.7-3.6,5.2l-0.7,1.5
	l-7.5-0.5c0.3-2.1,1-4.2,2-6.4l-3.7-1.8c-1.2,2.4-2,5.1-2.2,7.8l-3.4-0.2l-0.2,2.8l3.5,0.2c0.1,2.6,0.7,4.6,1.8,6.2
	c1.1,1.6,2.6,2.4,4.5,2.6c1.8,0.1,3.3-0.3,4.6-1.3c0.4-0.3,0.8-0.7,1.2-1.1l-10.7,26.5c-5.3,1.2-10.2,3.7-14.4,7.3
	c-6.7,5.8-10.7,13.9-11.4,22.8c-0.5,7.3,1.4,14.4,5.3,20.5l-25.3,62.7l66.3,26.7L240,388l14.4-207.5l62.3,4.3L306.5,210.1z
	 M298.2,220.6c-0.6,1.2-1.2,2.1-1.7,2.6c-0.6,0.5-1.2,0.7-2,0.6c-0.8-0.1-1.4-0.4-1.8-1c-0.5-0.6-0.8-1.5-0.8-2.6L298.2,220.6z
	 M251.3,362.8l77.8-192.9l61,24.6l-14.9,25.9c-0.1-0.7-0.2-1.4-0.4-2c-0.7-1.8-1.9-3.1-3.8-3.9c-1.5-0.6-3-0.6-4.4-0.1
	c-1.4,0.5-3.1,1.8-5,3.9l-1.1,1.2l-7-2.8c1-1.9,2.2-3.7,3.8-5.4l-3-2.8c-1.9,1.9-3.4,4.2-4.6,6.8l-3.2-1.3l-1,2.6l3.2,1.3
	c-0.7,2.5-0.8,4.6-0.2,6.4c0.6,1.8,1.8,3.1,3.5,3.8c1.7,0.7,3.2,0.7,4.8,0.2c1.5-0.5,3.1-1.7,4.8-3.4l1.2-1.4l7.2,2.9
	c-0.5,1.2-1.2,2.4-2.2,3.7c-1,1.3-1.9,2.4-2.9,3.3l4.1,1.6c1.7-1.6,3.1-3.9,4.4-6.8h1.2l3,1.2l0.5-1.2h26.3v17.5l-62,153.8
	L251.3,362.8z M364.9,221.2c0.9-1,1.8-1.7,2.4-2c0.7-0.3,1.4-0.3,2.2,0c1.6,0.6,2.1,2.2,1.5,4.6L364.9,221.2z M358.5,221.6
	c-1,1-1.8,1.6-2.4,1.9s-1.4,0.2-2.1-0.1c-0.7-0.3-1.2-0.8-1.4-1.5c-0.3-0.7-0.3-1.6,0-2.7L358.5,221.6z M404.5,261.8v143.1h-57.7
	L404.5,261.8z M60.2,356.1v-94.3h20.5v94.3h14.2l-24.5,42.4L46,356.1H60.2z M147.4,214l23.2,163.2l-76.5,10.9l-2.1-15l13.3-23.1
	H88.7l-2-14.2v-80.1H75.3l-4.4-30.9L147.4,214z"/>
<line class="st6" x1="224.6" y1="150.7" x2="224.6" y2="150.7"/>
<polygon points="224.6,150.7 226.8,148.6 205.8,127 201.5,131.2 222.5,152.8 "/>
<line class="st6" x1="259.2" y1="93.3" x2="259.2" y2="93.3"/>
<polygon points="259.2,93.3 256.4,94.1 264.5,123.3 270.3,121.7 262.1,92.4 "/>
<polygon points="314.5,88.4 312.1,115.7 315.1,116 318.1,116.2 320.4,88.9 317.4,88.7 "/>
<line class="st6" x1="383" y1="104.2" x2="383" y2="104.2"/>
<polygon points="380.5,102.5 364.1,127.9 366.6,129.5 369.1,131.2 385.5,105.8 383,104.2 "/>
</svg>
