<?xml version="1.0" encoding="utf-8"?>
<!-- Generator: Adobe Illustrator 21.1.0, SVG Export Plug-In . SVG Version: 6.00 Build 0)  -->
<svg version="1.1" id="Layer_1" xmlns="http://www.w3.org/2000/svg" xmlns:xlink="http://www.w3.org/1999/xlink" x="0px" y="0px"
	 viewBox="0 0 512 512" style="enable-background:new 0 0 512 512;" xml:space="preserve">
<style type="text/css">
	.st0{fill:#FFFFFF;stroke:#00AEEF;stroke-width:6;stroke-miterlimit:10;}
	.st1{fill:#FFFFFF;stroke:#000000;stroke-width:6;stroke-linecap:round;stroke-linejoin:round;stroke-miterlimit:10;}
	.st2{fill:#FFFFFF;stroke:#00AEEF;stroke-width:6.2963;stroke-miterlimit:10;}
	.st3{fill:#FFFFFF;stroke:#000000;stroke-width:6.296;stroke-linecap:round;stroke-linejoin:round;stroke-miterlimit:10;}
	.st4{fill:#00AEEF;}
	.st5{fill:none;}
	.st6{fill:none;stroke:#FFFFFF;stroke-width:0;stroke-linecap:round;stroke-linejoin:round;}
	.st7{fill:none;stroke:#00AEEF;stroke-width:0;stroke-linecap:round;stroke-linejoin:round;}
	.st8{fill:#FFFFFF;stroke:#000000;stroke-width:6;stroke-miterlimit:10;}
	.st9{fill:none;stroke:#000000;stroke-width:6;stroke-miterlimit:10;}
	.st10{fill:#00AEEF;stroke:#000000;stroke-width:6;stroke-miterlimit:10;}
	.st11{fill:none;stroke:#000000;stroke-width:6;stroke-linecap:round;stroke-linejoin:round;stroke-miterlimit:10;}
	.st12{fill:#00AEEF;stroke:#000000;stroke-width:6;stroke-linecap:round;stroke-linejoin:round;stroke-miterlimit:10;}
	.st13{fill:#FFFFFF;}
</style>
<path class="st4" d="M470.2,165.8c11.9,28.2,18.1,58.7,18.1,90.2c0,42.4-11.3,83.1-32.4,118.6c0.8,2.6,1.6,5.2,2.2,7.9
	c23.6-37.5,36.2-81,36.2-126.5c0-35.1-7.5-68.9-21.8-99.8L470.2,165.8z"/>
<path class="st4" d="M77.6,404.8C42.7,363.1,23.7,311,23.7,256c0-62.1,24.2-120.4,68-164.3s102.2-68,164.3-68
	c39.3,0,77.2,9.7,110.8,28c1.6-0.1,3.1-0.2,4.7-0.2c2.7,0,5.3,0.2,7.8,0.5C342.5,29.6,300.2,17.7,256,17.7
	c-63.7,0-123.5,24.8-168.5,69.8c-45,45-69.8,104.9-69.8,168.5c0,54.8,18.4,106.7,52.2,148.8H77.6z"/>
<path class="st4" d="M435,107.9c13.1,15.8,24,33.1,32.4,51.5l4.2-5.2c-10-21.1-23.2-40.9-39.3-58.5
	C433.6,99.6,434.5,103.7,435,107.9z"/>
<path class="st4" d="M429.2,410.8c-2.9,3.2-5.9,6.4-8.9,9.5c-43.9,43.9-102.2,68-164.3,68s-120.4-24.2-164.3-68
	c-3.1-3.1-6-6.2-8.9-9.5h-8c4,4.7,8.2,9.3,12.7,13.7c45,45,104.9,69.8,168.5,69.8s123.5-24.8,168.5-69.8c4.4-4.4,8.6-9,12.7-13.7
	H429.2z"/>
<path d="M371.5,51.5c-1.6,0-3.2,0.1-4.7,0.2c-33.1,2.4-59.3,30.1-59.3,63.8c0,35.3,28.7,64,64,64s64-28.7,64-64
	c0-2.6-0.2-5.1-0.5-7.5c-0.5-4.2-1.4-8.3-2.7-12.2c-7.6-23.2-28.1-40.7-53-43.7C376.8,51.6,374.2,51.5,371.5,51.5z M429.5,115.5
	c0,32-26,58-58,58s-58-26-58-58s26-58,58-58S429.5,83.5,429.5,115.5z"/>
<polygon points="305.5,71.5 306.5,68.6 286.5,61.6 284.5,67.3 304.5,74.3 "/>
<polygon points="294.5,104.5 294.7,101.5 274.7,100.5 274.4,106.5 294.4,107.5 "/>
<polygon points="292.5,138.5 291.6,135.6 273.6,141.6 275.4,147.3 293.4,141.3 "/>
<polygon points="306.5,161.2 292.5,173.2 296.5,177.7 310.5,165.7 308.5,163.5 "/>
<polygon points="329.9,182 321.9,196 327.1,199 335.1,185 332.5,183.5 "/>
<polygon points="366.5,207.5 369.5,207.5 372.5,207.5 372.5,190.5 366.5,190.5 "/>
<polygon points="412.3,183.5 406.7,185.5 412.7,202.5 415.5,201.5 418.3,200.5 "/>
<path d="M455.9,374.6c-5.5-17.4-15.3-33-28.1-45.4l52.7-65.5h-33.7l23.4-97.9l2.3-9.6l1-4.3l-1.9,2.4l-4.2,5.2l-88.7,110.4h33.7
	l-9.8,41c-15.3-8.1-32.6-12.7-51.1-12.7h0c-59.4,0-108,47.6-109.5,106.7h-14.8L219,243.3l90.4-7.2c3.5-0.2,6.3-3.2,6.3-6.7
	c0-3.6-2.8-6.5-6.3-6.7l-84-6.6l-8-96.8c-0.3-3.5-3.2-6.2-6.7-6.2c-3.5,0-6.5,2.8-6.7,6.3l-6.7,102.9l-63.1,72.7
	c-1.8,2-2.2,4.9-1.1,7.3c1.1,2.5,3.6,4.1,6.3,4.1c1.6,0,3.2-0.6,4.5-1.7l56.5-47.5l-7.5,147.7H121l-4.9-76.5l40.6,10.1
	c0.5,0.1,1.1,0.2,1.6,0.2c3.2,0,5.9-2.3,6.5-5.4c0.5-3-1-5.9-3.8-7.2l-42.7-21.1l-24.9-54.5l-0.1-0.3l-0.2-0.3
	c-1.2-2-3.3-3.2-5.6-3.2h0c-2.2,0-4.3,1.1-5.5,3c-1.1,1.6-1.3,3.6-0.7,5.5L95.1,309l-37.7,35.8c-1.9,1.6-2.8,4.2-2.1,6.7
	c0.8,2.8,3.3,4.8,6.3,4.8c0.9,0,1.8-0.2,2.7-0.6l0.4-0.2l0.4-0.2l35.9-22.6l-4.7,72.1H77.6h-7.8H25.5c-1.7,0-3,1.3-3,3s1.3,3,3,3
	h49.3h8h346.4h8h49.3c1.7,0,3-1.3,3-3s-1.3-3-3-3H461c-0.2-7.7-1.2-15.1-2.9-22.4C457.5,379.8,456.7,377.2,455.9,374.6z M455,404.6
	H248c1.6-55.7,47.4-100.5,103.5-100.5c18,0,34.9,4.6,49.6,12.7l-15.5,64.8l38.4-47.7C442.5,352,454.2,377,455,404.6z M391.3,263.8
	l70.3-87.4l-22.3,93.2H468L397.7,357l22.3-93.2H391.3z M138.7,298.8l64.5-74.2l6.8-104.9c0-0.4,0.4-0.7,0.7-0.7s0.7,0.2,0.7,0.7
	l8.5,101.9l89.1,7c1,0.1,1,1.5,0,1.5l-94.8,7.6L140,300c-0.2,0.2-0.4,0.2-0.6,0.2C138.7,300.3,138.2,299.5,138.7,298.8z
	 M213.2,246.4l8,157.6h-22.2l7.7-152.2L213.2,246.4z M61.6,350.3c-0.4,0-0.7-0.7-0.2-0.9l40.5-38.4L87,253.4
	c-0.2-0.4,0.2-0.8,0.5-0.8c0.2,0,0.3,0.1,0.4,0.3l25.8,56.4l44.8,22.1c0.7,0.3,0.4,1.2-0.2,1.2c-0.1,0-0.1,0-0.2,0l-49-12.2
	l-47.3,29.8C61.7,350.3,61.7,350.3,61.6,350.3z M110,327l5,77h-12.6l4.9-75.2L110,327z"/>
<polygon class="st4" points="397.7,357 468,269.6 439.2,269.6 461.5,176.4 391.3,263.8 420,263.8 "/>
</svg>
