<?xml version="1.0" encoding="utf-8"?>
<!-- Generator: Adobe Illustrator 21.1.0, SVG Export Plug-In . SVG Version: 6.00 Build 0)  -->
<svg version="1.1" id="Layer_1" xmlns="http://www.w3.org/2000/svg" xmlns:xlink="http://www.w3.org/1999/xlink" x="0px" y="0px"
	 viewBox="0 0 512 512" style="enable-background:new 0 0 512 512;" xml:space="preserve">
<style type="text/css">
	.st0{fill:#FFFFFF;stroke:#00AEEF;stroke-width:6;stroke-miterlimit:10;}
	.st1{fill:#FFFFFF;stroke:#000000;stroke-width:6;stroke-linecap:round;stroke-linejoin:round;stroke-miterlimit:10;}
	.st2{fill:#FFFFFF;stroke:#00AEEF;stroke-width:6.2963;stroke-miterlimit:10;}
	.st3{fill:#FFFFFF;stroke:#000000;stroke-width:6.296;stroke-linecap:round;stroke-linejoin:round;stroke-miterlimit:10;}
	.st4{fill:#00AEEF;}
	.st5{fill:none;}
	.st6{fill:none;stroke:#FFFFFF;stroke-width:0;stroke-linecap:round;stroke-linejoin:round;}
	.st7{fill:none;stroke:#00AEEF;stroke-width:0;stroke-linecap:round;stroke-linejoin:round;}
	.st8{fill:#FFFFFF;stroke:#000000;stroke-width:6;stroke-miterlimit:10;}
	.st9{fill:none;stroke:#000000;stroke-width:6;stroke-miterlimit:10;}
	.st10{fill:#00AEEF;stroke:#000000;stroke-width:6;stroke-miterlimit:10;}
	.st11{fill:none;stroke:#000000;stroke-width:6;stroke-linecap:round;stroke-linejoin:round;stroke-miterlimit:10;}
	.st12{fill:#00AEEF;stroke:#000000;stroke-width:6;stroke-linecap:round;stroke-linejoin:round;stroke-miterlimit:10;}
	.st13{fill:#FFFFFF;}
</style>
<circle class="st0" cx="256" cy="256" r="235.3"/>
<line class="st1" x1="25.5" y1="407.8" x2="486.5" y2="407.8"/>
<path d="M228.9,231h37.8v-37.8h-37.8V231z M234.9,199.2h25.8V225h-25.8V199.2z"/>
<path d="M280.4,193.2V231h37.8v-37.8H280.4z M312.2,225h-25.8v-25.8h25.8V225z"/>
<path d="M228.9,286.4h37.8v-37.8h-37.8V286.4z M234.9,254.6h25.8v25.8h-25.8V254.6z"/>
<path d="M280.4,286.4h37.8v-37.8h-37.8V286.4z M286.4,254.6h25.8v25.8h-25.8V254.6z"/>
<path d="M228.9,341.7h37.8v-37.8h-37.8V341.7z M234.9,309.9h25.8v25.8h-25.8V309.9z"/>
<path d="M280.4,341.7h37.8v-37.8h-37.8V341.7z M286.4,309.9h25.8v25.8h-25.8V309.9z"/>
<path d="M276.3,134.6c-2,0-3.4,0.7-4.4,2.2h-0.2l0.1-1.2c0.1-1.2,0.1-2,0.1-2.3V129h-4.1v20.9h4.1v-7.1c0-1.7,0.3-3,0.8-3.8
	c0.5-0.8,1.3-1.2,2.5-1.2c1.6,0,2.4,1.1,2.4,3.3v8.8h4.1v-9.8c0-1.8-0.5-3.1-1.4-4.1C279.4,135.1,278.1,134.6,276.3,134.6z"/>
<path d="M295.1,135.5c-1.1-0.6-2.4-0.9-3.8-0.9c-2.3,0-4.1,0.7-5.4,2s-1.9,3.3-1.9,5.7c0,1.6,0.3,3,0.9,4.1s1.4,2.1,2.5,2.7
	c1.1,0.6,2.4,0.9,3.8,0.9c2.3,0,4.1-0.7,5.4-2.1c1.3-1.4,1.9-3.3,1.9-5.7c0-1.6-0.3-3-0.9-4.1C297,137.1,296.2,136.2,295.1,135.5z
	 M293.6,145.7c-0.5,0.8-1.3,1.1-2.4,1.1c-1.1,0-1.9-0.4-2.4-1.1c-0.5-0.8-0.7-1.9-0.7-3.4c0-1.5,0.2-2.6,0.7-3.4
	c0.5-0.7,1.3-1.1,2.4-1.1c1.1,0,1.9,0.4,2.4,1.1c0.5,0.7,0.7,1.9,0.7,3.3C294.3,143.9,294.1,145,293.6,145.7z"/>
<path d="M305.8,146.5c-0.3-0.3-0.5-0.7-0.5-1.3v-7.2h4.2v-3.1h-4.2v-3.2h-2.6l-1.2,3.2l-2.3,1.4v1.7h2v7.2c0,1.7,0.4,2.9,1.1,3.7
	c0.7,0.8,1.9,1.2,3.6,1.2c1.5,0,2.7-0.2,3.8-0.7v-3.1c-1,0.3-1.9,0.5-2.6,0.5C306.6,146.9,306.2,146.8,305.8,146.5z"/>
<path d="M317.9,134.6c-2.2,0-4,0.7-5.2,2.1c-1.3,1.4-1.9,3.3-1.9,5.8c0,2.4,0.7,4.3,2,5.7c1.4,1.3,3.3,2,5.7,2c1.2,0,2.2-0.1,3-0.3
	c0.8-0.2,1.6-0.4,2.3-0.8v-3.2c-0.9,0.4-1.7,0.7-2.5,0.9c-0.8,0.2-1.7,0.3-2.6,0.3c-1.2,0-2.1-0.3-2.7-1c-0.6-0.7-1-1.6-1-2.7h9.7
	v-2c0-2.1-0.6-3.8-1.8-5C321.6,135.2,320,134.6,317.9,134.6z M315,140.7c0.1-1,0.4-1.8,0.8-2.3c0.5-0.6,1.2-0.8,2-0.8
	c0.9,0,1.6,0.3,2.1,0.8c0.5,0.6,0.8,1.3,0.8,2.3H315z"/>
<rect x="326.8" y="129" width="4.1" height="20.9"/>
<polygon class="st4" points="363.6,256.5 337,256.5 337,405 465.7,405 465.7,256.5 441.3,256.5 "/>
<path d="M441.3,223.5c0-10.7-8.7-19.4-19.4-19.4h-28.1v-43.8H360v-46.6H236v46.6h-33.8V410H331v1h140.7V250.5h-30.4V223.5z
	 M242,119.6H354v40H242V119.6z M208.2,166.3h179.6v37.8H383c-5.2,0-9.8,2-13.3,5.3v-16.2h-37.8V231h31.7v17.6h-31.7v1.9H331V404
	H208.2V166.3z M435.3,223.5v26.9h-65.7v-26.9c0-7.4,6-13.4,13.4-13.4h38.9C429.3,210.1,435.3,216.1,435.3,223.5z M363.6,223.5v1.5
	h-25.7v-25.8h25.8v22.5C363.6,222.3,363.6,222.9,363.6,223.5z M465.7,405H337V256.5h26.6h77.7h24.4V405z"/>
<path d="M181.7,111c-3.4-2.4-7.4-3.6-11.5-3.6c-6.6,0-12.7,3.2-16.5,8.6l-23.5,33.6L44,143.2c-0.2,0-0.3,0-0.5,0
	c-2.8,0-5.3,2-5.9,4.8c-0.6,2.9,1,5.9,3.9,6.9l68,24.3l-20,28.6l-20.8-1.4c-0.1,0-0.3,0-0.4,0c-0.9,0-1.7,0.2-2.5,0.5l-9,4.1
	c-2.3,1.1-3.7,3.4-3.5,6c0.2,2.5,2,4.7,4.5,5.3l18.4,4.8c-2.1,4-1.3,9,2,12.2c1.9,1.8,4.4,2.8,7,2.8c2.5,0,4.9-0.9,6.7-2.5l9.4,18.2
	c1,2,3.1,3.3,5.3,3.3c0.2,0,0.4,0,0.7,0c2.5-0.3,4.5-2.1,5.1-4.5l2.6-10.2c0.3-1.1,0.2-2.2-0.1-3.2l-6.3-21.2l23.1-24.5l39.8,63.5
	c1.1,1.8,3.1,2.8,5.1,2.8c0.8,0,1.6-0.2,2.4-0.5c2.7-1.2,4.1-4.3,3.3-7.1l-24.6-86.2l26.9-28.5c0.5-0.5,1.2-1.3,1.9-2.3
	C193,129.9,190.8,117.3,181.7,111z M180.4,137.2l-29.2,30.9l25.5,89.5l-43.9-70.1L102,220.2l7.3,24.5l-2.6,10.2l-13.2-25.6l-5.1,5.4
	c-0.8,0.9-2,1.3-3.1,1.3c-1,0-2.1-0.4-2.9-1.2c-1.5-1.5-1.7-3.8-0.6-5.5l4.2-6l-26.6-7l9-4.1l24.2,1.6l26.4-37.8l-75.4-26.9
	l89.6,6.7l25.5-36.4c2.7-3.9,7.1-6,11.6-6c2.8,0,5.6,0.8,8.1,2.5c6.4,4.5,7.9,13.3,3.5,19.7C181.4,136.1,180.9,136.7,180.4,137.2z"
	/>
<path d="M181.7,291h-40.2c-3,0-5.6,2.3-6,5.3l-1.9,16c-1.2,9.7-8,17.7-17.4,20.4L53.8,351c-1.8,0.5-3.3,1.9-3.9,3.7l-3.9,10.6
	c-2,5.3-1.2,11.3,2,16c1.9,2.7,4.4,4.7,7.3,6c-0.2,1.1-0.3,2.2-0.3,3.3c0,9.9,8.1,18,18,18s18-8.1,18-18c0-0.6,0-1.2-0.1-1.7l6.5,0
	c-0.1,0.6-0.1,1.1-0.1,1.7c0,9.9,8.1,18,18,18s18-8.1,18-18c0-0.6,0-1.1-0.1-1.7l6.5,0c0,0.5-0.1,1.1-0.1,1.6c0,9.9,8.1,18,18,18
	s18-8.1,18-18c0-0.5,0-1.1-0.1-1.6l6,0h0c1.6,0,3.1-0.6,4.2-1.8c1.1-1.1,1.8-2.7,1.8-4.2v-27.2v-22.8V297
	C187.7,293.7,185,291,181.7,291z M169.7,390.5c0,6.6-5.4,12-12,12c-6.6,0-12-5.4-12-12c0-6.6,5.4-12,12-12
	C164.3,378.5,169.7,383.8,169.7,390.5z M157.7,372.5c-7.2,0-13.4,4.3-16.3,10.4l-9.8,0c-2.9-6.1-9.1-10.4-16.3-10.4
	c-7.2,0-13.4,4.2-16.3,10.3l-9.9,0c-2.9-6.1-9.1-10.3-16.2-10.3c-6.7,0-12.5,3.7-15.6,9.1c-5.1-2.4-7.9-8.4-5.8-14.2l3.9-10.6
	l30.3-8.9l4.2,8c0.2,0.3,0.4,0.5,0.6,0.8c-0.2,0.5-0.4,1-0.4,1.6c-0.2,2.5,1.6,4.7,4.1,4.9c2.5,0.2,4.7-1.6,4.9-4.1
	c0.2-2.3-1.3-4.3-3.5-4.8c0-0.4-0.1-0.8-0.3-1.1l-3.7-6.9l11.5-3.4l4.1,8.8c0.1,0.3,0.3,0.6,0.6,0.8c-0.4,0.7-0.7,1.4-0.7,2.2
	c-0.3,2.9,1.9,5.4,4.8,5.7c2.9,0.3,5.4-1.9,5.7-4.8c0.2-2.8-1.8-5.3-4.6-5.6c0-0.3-0.1-0.6-0.2-0.8l-3.7-8l8.8-2.6
	c1.1-0.3,2.1-0.7,3.1-1.1l6.7,13.5c0,0,0.1,0.1,0.1,0.1c-0.7,0.9-1.1,2.1-1.1,3.3c0,3.1,2.5,5.5,5.5,5.5s5.5-2.5,5.5-5.5
	c0-2.7-1.9-4.9-4.4-5.4c-0.1-0.2-0.1-0.5-0.2-0.7l-6.8-13.6c7.3-4.8,12.2-12.6,13.3-21.6l1.9-16h40.2v35.9v22.8v27.2l-7.7,0
	C171.1,376.8,164.9,372.5,157.7,372.5z M127.3,390.5c0,6.6-5.4,12-12,12c-6.6,0-12-5.4-12-12c0-6.6,5.4-12,12-12
	C122,378.5,127.3,383.8,127.3,390.5z M85,390.5c0,6.6-5.4,12-12,12c-6.6,0-12-5.4-12-12c0-6.6,5.4-12,12-12
	C79.6,378.5,85,383.8,85,390.5z"/>
</svg>
