<?xml version="1.0" encoding="utf-8"?>
<!-- Generator: Adobe Illustrator 21.1.0, SVG Export Plug-In . SVG Version: 6.00 Build 0)  -->
<svg version="1.1" id="Layer_1" xmlns="http://www.w3.org/2000/svg" xmlns:xlink="http://www.w3.org/1999/xlink" x="0px" y="0px"
	 viewBox="0 0 512 512" style="enable-background:new 0 0 512 512;" xml:space="preserve">
<style type="text/css">
	.st0{fill:#FFFFFF;stroke:#00AEEF;stroke-width:6;stroke-miterlimit:10;}
	.st1{fill:#FFFFFF;stroke:#000000;stroke-width:6;stroke-linecap:round;stroke-linejoin:round;stroke-miterlimit:10;}
	.st2{fill:#FFFFFF;stroke:#00AEEF;stroke-width:6.2963;stroke-miterlimit:10;}
	.st3{fill:#FFFFFF;stroke:#000000;stroke-width:6.296;stroke-linecap:round;stroke-linejoin:round;stroke-miterlimit:10;}
	.st4{fill:#00AEEF;}
	.st5{fill:none;}
	.st6{fill:none;stroke:#FFFFFF;stroke-width:0;stroke-linecap:round;stroke-linejoin:round;}
	.st7{fill:none;stroke:#00AEEF;stroke-width:0;stroke-linecap:round;stroke-linejoin:round;}
	.st8{fill:#FFFFFF;stroke:#000000;stroke-width:6;stroke-miterlimit:10;}
	.st9{fill:none;stroke:#000000;stroke-width:6;stroke-miterlimit:10;}
	.st10{fill:#00AEEF;stroke:#000000;stroke-width:6;stroke-miterlimit:10;}
	.st11{fill:none;stroke:#000000;stroke-width:6;stroke-linecap:round;stroke-linejoin:round;stroke-miterlimit:10;}
	.st12{fill:#00AEEF;stroke:#000000;stroke-width:6;stroke-linecap:round;stroke-linejoin:round;stroke-miterlimit:10;}
	.st13{fill:#FFFFFF;}
</style>
<path class="st4" d="M429.2,410.8c-2.9,3.2-5.9,6.4-8.9,9.5c-43.9,43.9-102.2,68-164.3,68s-120.4-24.2-164.3-68
	c-3.1-3.1-6-6.2-8.9-9.5h-8c4,4.7,8.2,9.3,12.7,13.7c45,45,104.9,69.8,168.5,69.8s123.5-24.8,168.5-69.8c4.4-4.4,8.6-9,12.7-13.7
	H429.2z"/>
<path class="st4" d="M45.3,354.2c-14.2-30.4-21.6-63.7-21.6-98.2c0-62.1,24.2-120.4,68-164.3s102.2-68,164.3-68s120.4,24.2,164.3,68
	s68,102.2,68,164.3c0,35.9-8.1,70.5-23.4,101.8c1.6,1.4,3.1,2.9,4.5,4.5c16.3-32.6,24.9-68.8,24.9-106.3
	c0-63.7-24.8-123.5-69.8-168.5c-45-45-104.9-69.8-168.5-69.8S132.5,42.5,87.5,87.5c-45,45-69.8,104.9-69.8,168.5
	c0,39.6,9.6,77.7,27.6,111.6V354.2z"/>
<polygon class="st4" points="411.5,387.7 358.3,358.7 271,311.6 271,325.5 412.6,402.6 472,402.6 472,387.1 "/>
<path class="st4" d="M418.5,346.3l-1.8-0.2L406,320l-22.7,4.5c-0.8,2.8-3.3,4.8-6.3,4.8c-3.6,0-6.5-2.9-6.5-6.5s2.9-6.5,6.5-6.5
	c2,0,3.9,0.9,5,2.4l21.6-4.3l-6-14.8l-20.4,4.1c-0.9,2.4-3.3,4.2-6.1,4.2c-3.6,0-6.5-2.9-6.5-6.5c0-3.6,2.9-6.5,6.5-6.5
	c2.3,0,4.3,1.2,5.4,2.9l18.8-3.8l-8.8-21.7c-21.3,2.4-37.9-1.1-49.3-10.4c-7.8-6.4-11.4-14.1-13.1-19.4l-51.5,62.5L413,381.7
	l58.7-0.6C467.3,351.3,419,346.4,418.5,346.3z"/>
<path d="M464.9,357.8c-14.7-12.7-37.4-16.4-44.1-17.3l-14.9-36.5c7.1-5.9,13.4-12.6,18.9-20.1c0.1,0,0.1,0,0.2,0
	c0.4,0,0.7-0.1,1.1-0.2c1.5-0.6,2.3-2.3,1.7-3.9c0,0,0-0.1,0-0.1c11.8-17.8,18.8-39.1,18.8-62.1c0-30-11.8-57.3-31-77.4
	c-0.2-0.3-0.5-0.6-0.7-0.8c-20.4-21-48.9-34.1-80.5-34.1c-50.2,0-92.8,33.1-107.1,78.7l-67.2-41.4l-7.4-29.5c-0.3-1.4-1.6-2.3-3-2.3
	c-1.4,0-2.6,1.1-2.9,2.5c-1.9,10.4-10.1,20.2-25.1,37.9c-9.9,11.7-22.3,26.3-37.6,46.7c-16.5,22-19.8,55.8-9.6,97.6
	c5.9,24.2,14.8,44.8,18.6,53H48.3c-1.7,0-3,1.3-3,3v2.5v13.5v37.2H25.5c-1.7,0-3,1.3-3,3s1.3,3,3,3h49.3h8h346.4h8h49.3
	c1.7,0,3-1.3,3-3s-1.3-3-3-3H478V387l0.1,0l-0.1-3v-2.9h-0.2c-0.9-7.5-4-13.7-8.3-18.7C468,360.7,466.5,359.2,464.9,357.8z
	 M471.7,381.1l-58.7,0.6l-140.4-76.9l51.5-62.5c1.6,5.3,5.2,13,13.1,19.4c11.4,9.3,28,12.8,49.3,10.4l8.8,21.7l-18.8,3.8
	c-1.2-1.7-3.2-2.9-5.4-2.9c-3.6,0-6.5,2.9-6.5,6.5c0,3.6,2.9,6.5,6.5,6.5c2.8,0,5.1-1.7,6.1-4.2l20.4-4.1l6,14.8l-21.6,4.3
	c-1.2-1.5-3-2.4-5-2.4c-3.6,0-6.5,2.9-6.5,6.5s2.9,6.5,6.5,6.5c3,0,5.5-2,6.3-4.8L406,320l10.7,26.2l1.8,0.2
	C419,346.4,467.3,351.3,471.7,381.1z M51.3,354.6h174.4v48.7H51.3V354.6z M88.7,201.6c15.2-20.2,27.5-34.8,37.4-46.4
	c11.2-13.3,18.8-22.2,23.1-30.7l5.3,20.9c0.2,0.8,0.7,1.4,1.3,1.8l72.8,44.8l1.1,6.1c0,0.2,0.1,0.4,0.1,0.5l3.3,8.8l-6.8,15.4
	c-5.9-6.5-19.6-18.5-37.9-16.2c-3.2,0.4-7.1,1.1-11.3,1.8c-17.8,3-44.7,7.6-53.7-2.5c-2.7-3-3.7-7.5-3-13.3c0-0.1,0-0.1,0.1-0.2
	c0.3-0.6,0.3-1.2,0.2-1.8c0.3-1.4,0.6-2.9,1.1-4.5c0.5-1.6-0.5-3.3-2.1-3.7c-1.6-0.5-3.3,0.5-3.7,2.1c-0.6,2.3-1.1,4.4-1.4,6.5
	c-7.1,16.9,8.5,28,28.1,41.9c14.7,10.4,31.3,22.3,44.2,39.7c12.1,16.4,15.3,34,9.3,52.2c-3.7,11.2-9.9,19.4-12.1,22L99.3,348
	c-2.9-6-12.7-27.7-19.1-53.8C73.3,266.3,69.3,227.6,88.7,201.6z M334.3,111.5c28.1,0,53.7,11,72.7,28.8c-32.8,8-58.5,22.1-78.6,38.1
	c-4.3-1.8-8.6-3.5-13.1-5c-31.8-11-59.5-12.6-70.6-12.7C263.6,131.1,296.7,111.5,334.3,111.5z M228.7,348.6h-38.5
	c3.1-4,8.1-11.6,11.4-21.7c4.6-13.9,6.6-35.3-10.1-57.8c-13.5-18.2-31.3-30.9-45.6-41c-6-4.3-11.1-8-15.3-11.4
	c13.5,3.5,32.4,0.3,47.3-2.3c4.3-0.7,8-1.4,11.1-1.8c16.1-2,28.5,9.6,33.3,15c2.4,27.5,14.7,52.1,33.4,70.3c0.2,0.4,0.6,0.7,0.9,0.9
	c2.9,2.8,6,5.4,9.2,7.9c0,0.1,0,0.2,0.1,0.2c-0.7,0.9-1.1,2-1.1,3.1v18.9l139.1,75.7H231.7v-53.2C231.7,350,230.4,348.6,228.7,348.6
	z M390.3,265.7L388,266c-20.6,2.7-36.4-0.2-46.9-8.7c-11.2-9.1-12.3-21.7-12.3-21.8l-0.5-7.5l-60.1,72.9c-2.2-1.8-4.4-3.7-6.5-5.6
	c1.5-6.8,8.4-34.1,27.2-63.8c11.3-17.8,24.9-33.3,40.4-46.2c16.6,7.3,31.6,16.6,44.6,27.8c20.5,17.5,36.4,39.8,47.1,66
	c-5,7.1-10.9,13.5-17.4,19.1L390.3,265.7z M377.7,208.5c-12.7-10.9-27.2-20-43.2-27.4c0.2-0.1,0.4-0.3,0.6-0.4
	c22.1-16.9,47.9-28.7,76.9-35.3c17.7,19,28.6,44.5,28.6,72.4c0,20.2-5.7,39.2-15.6,55.3C413.9,247.5,398,225.8,377.7,208.5z
	 M241.1,166.6c6.6-0.1,37.2,0.3,72.2,12.4c3.3,1.2,6.6,2.4,9.8,3.7c-17.5,15-30.4,31.3-39.5,45.7c-17,26.8-24.4,51.2-27,61.8
	c-14.9-16-25-36.5-27.8-59.3c0.4-0.3,0.8-0.7,1-1.2l9.2-21c0.3-0.7,0.3-1.5,0.1-2.3l-3.7-9.7l-1.3-7.1c-0.2-0.8-0.7-1.6-1.4-2
	l-0.4-0.2C234.6,180.1,237.5,173.2,241.1,166.6z M412.6,402.6L271,325.5v-13.9l87.4,47l53.1,29.1l60.5-0.7v15.5H412.6z"/>
<path d="M243.3,367.2h58.4c1.7,0,3-1.3,3-3s-1.3-3-3-3h-58.4c-1.7,0-3,1.3-3,3S241.7,367.2,243.3,367.2z"/>
<path d="M268,384.7c0,1.7,1.3,3,3,3h58.4c1.7,0,3-1.3,3-3s-1.3-3-3-3H271C269.4,381.7,268,383.1,268,384.7z"/>
<path d="M144.8,173c0.2,0.1,4.4,1.9,9.2,1.9c1.3,0,2.6-0.1,3.9-0.4c4.9-1.2,11.8-1.9,11.9-1.9c1.6-0.2,2.9-1.6,2.7-3.3
	c-0.2-1.7-1.6-2.9-3.3-2.7c-0.3,0-7.5,0.7-12.8,2c-4.1,1-9.1-1.1-9.1-1.1c-1.5-0.7-3.3,0-4,1.5C142.6,170.5,143.3,172.3,144.8,173z"
	/>
<circle cx="160.7" cy="178.1" r="3.7"/>
</svg>
